{
.appVersion = "1352";
DisplayStrings = (
"HHOOHEHHOHO\012HOHHH/Upsilondieresis HHOHH\012HHOOHHOOHH/space",
"nn/o-cy nuonnuxnnvnonnon\012oonunou/omegatonos nnnononn\012nnnnonononno\012/space",
"HHOHHHHOHOOHH\012hohhohhhohh\012hhohh/iotadieresistonos.sc hhoohohh\012hohoohohoohh/space",
"/dcaron l",
"/zhe-cy.sc/che-cy/caron.alt/tcaron lltll7/U-cy",
"(/Iotatonos )/space (/Iotadieresis )/space (/Upsilontonos )/space (/Upsilondieresis )/space (/Omicrontonos )/space (/Omegatonos )/space (/Alphatonos )/space (/Epsilontonos )/space (/Etatonos )\012\012\012[/Iotatonos ]/space [/Iotadieresis ]/space [/Upsilontonos ]/space [/Upsilondieresis ]/space [/Omicrontonos ]/space [/Omegatonos ]/space [/Alphatonos ]/space [/Epsilontonos ]/space [/Etatonos ]\012\012{/Iotatonos }/space {/Iotadieresis }/space {/Upsilontonos }/space {/Upsilondieresis }/space {/Omicrontonos }/space {/Omegatonos }/space {/Alphatonos }/space {/Epsilontonos }/space {/Etatonos",
"/De-cy.loclRUS/El-cy.loclRUS/Lje-cy.loclRUS",
"/el-cy.loclRUS.sc",
Hamburgefonvstiv,
"/hardsign-cy.loclRUS",
"/hardsign-cy.sc",
"/Ii-cy/Ii-cy/Ii-cy/Ii-cy/Ii-cy/Ii-cy",
"/n.sc/n.sc/n.sc/n.sc/n.sc/n.sc",
"9",

glyphs = (
{
glyphname = A;
lastChange = "2022-10-27 03:26:45 +0000";
layers = (
{
anchors = (
{
name = bottom;
position = "{215, 0}";
},
{
name = ogonek;
position = "{431, 10}";
},
{
name = top;
position = "{214, 655}";
},
{
name = topleft;
position = "{124, 655}";
}
);
layerId = "315A68D9-B8D0-4E7E-8516-8D4632F47100";
paths = (
{
closed = 1;
nodes = (
"65 0 LINE SMOOTH",
"69 0 OFFCURVE",
"73 3 OFFCURVE",
"74 7 CURVE SMOOTH",
"182 448 LINE SMOOTH",
"193 492 OFFCURVE",
"202 534 OFFCURVE",
"211 578 CURVE",
"213 578 LINE",
"222 534 OFFCURVE",
"232 491 OFFCURVE",
"243 447 CURVE SMOOTH",
"352 7 LINE SMOOTH",
"354 3 OFFCURVE",
"357 0 OFFCURVE",
"361 0 CURVE SMOOTH",
"422 0 LINE SMOOTH",
"428 0 OFFCURVE",
"430 4 OFFCURVE",
"429 10 CURVE SMOOTH",
"262 648 LINE SMOOTH",
"260 653 OFFCURVE",
"256 655 OFFCURVE",
"252 655 CURVE SMOOTH",
"175 655 LINE SMOOTH",
"170 655 OFFCURVE",
"166 652 OFFCURVE",
"165 648 CURVE SMOOTH",
"0 10 LINE SMOOTH",
"-2 4 OFFCURVE",
"1 0 OFFCURVE",
"6 0 CURVE SMOOTH"
);
},
{
closed = 1;
nodes = (
"328 158 LINE",
"311 225 LINE",
"113 225 LINE",
"98 158 LINE"
);
}
);
width = 428;
},
{
anchors = (
{
name = bottom;
position = "{208, 0}";
},
{
name = ogonek;
position = "{404, 10}";
},
{
name = top;
position = "{203, 655}";
},
{
name = topleft;
position = "{123, 655}";
}
);
layerId = "87A71899-7C85-4E95-82CD-7392C73A0331";
paths = (
{
closed = 1;
nodes = (
"20 0 LINE SMOOTH",
"22 0 OFFCURVE",
"23 0 OFFCURVE",
"24 3 CURVE SMOOTH",
"172 517 LINE SMOOTH",
"183 557 OFFCURVE",
"193 598 OFFCURVE",
"203 638 CURVE",
"204 638 LINE",
"214 598 OFFCURVE",
"223 559 OFFCURVE",
"234 519 CURVE SMOOTH",
"381 3 LINE SMOOTH",
"382 0 OFFCURVE",
"383 0 OFFCURVE",
"385 0 CURVE SMOOTH",
"395 0 LINE SMOOTH",
"397 0 OFFCURVE",
"399 1 OFFCURVE",
"398 4 CURVE SMOOTH",
"215 652 LINE SMOOTH",
"214 655 OFFCURVE",
"213 655 OFFCURVE",
"211 655 CURVE SMOOTH",
"196 655 LINE SMOOTH",
"194 655 OFFCURVE",
"193 655 OFFCURVE",
"192 652 CURVE SMOOTH",
"8 4 LINE SMOOTH",
"7 0 OFFCURVE",
"9 0 OFFCURVE",
"11 0 CURVE SMOOTH"
);
},
{
closed = 1;
nodes = (
"333 191 LINE",
"327 207 LINE",
"78 207 LINE",
"72 191 LINE"
);
}
);
width = 406;
},
{
anchors = (
{
name = bottom;
position = "{275, 0}";
},
{
name = ogonek;
position = "{539, 10}";
},
{
name = top;
position = "{275, 655}";
},
{
name = topleft;
position = "{126, 655}";
}
);
layerId = "447BF32C-5B1D-49E6-885E-D276D7630B14";
paths = (
{
closed = 1;
nodes = (
"171 0 LINE SMOOTH",
"180 0 OFFCURVE",
"185 4 OFFCURVE",
"186 12 CURVE SMOOTH",
"251 362 LINE SMOOTH",
"259 409 OFFCURVE",
"267 456 OFFCURVE",
"273 502 CURVE",
"276 502 LINE",
"283 456 OFFCURVE",
"289 409 OFFCURVE",
"298 363 CURVE SMOOTH",
"361 11 LINE SMOOTH",
"362 5 OFFCURVE",
"367 0 OFFCURVE",
"375 0 CURVE SMOOTH",
"539 0 LINE SMOOTH",
"548 0 OFFCURVE",
"551 7 OFFCURVE",
"549 16 CURVE SMOOTH",
"385 644 LINE SMOOTH",
"382 652 OFFCURVE",
"376 655 OFFCURVE",
"369 655 CURVE SMOOTH",
"181 655 LINE SMOOTH",
"174 655 OFFCURVE",
"168 652 OFFCURVE",
"166 644 CURVE SMOOTH",
"1 16 LINE SMOOTH",
"-2 7 OFFCURVE",
"2 0 OFFCURVE",
"11 0 CURVE SMOOTH"
);
},
{
closed = 1;
nodes = (
"367 113 LINE",
"341 248 LINE",
"203 248 LINE",
"180 113 LINE"
);
}
);
width = 549;
}
);
leftKerningGroup = A;
rightKerningGroup = A;
unicode = 0041;
},
{
glyphname = Aring;
lastChange = "2022-10-27 03:26:45 +0000";
layers = (
{
layerId = "315A68D9-B8D0-4E7E-8516-8D4632F47100";
paths = (
{
closed = 1;
nodes = (
"267 629 LINE",
"289 643 OFFCURVE",
"302 668 OFFCURVE",
"302 702 CURVE SMOOTH",
"302 757 OFFCURVE",
"269 789 OFFCURVE",
"214 789 CURVE SMOOTH",
"159 789 OFFCURVE",
"126 757 OFFCURVE",
"126 702 CURVE SMOOTH",
"126 669 OFFCURVE",
"139 644 OFFCURVE",
"160 630 CURVE",
"0 10 LINE",
"-2 4 OFFCURVE",
"1 0 OFFCURVE",
"6 0 CURVE SMOOTH",
"65 0 LINE SMOOTH",
"69 0 OFFCURVE",
"73 3 OFFCURVE",
"74 7 CURVE",
"110 158 LINE",
"315 158 LINE",
"352 7 LINE",
"354 3 OFFCURVE",
"357 0 OFFCURVE",
"361 0 CURVE SMOOTH",
"422 0 LINE SMOOTH",
"428 0 OFFCURVE",
"430 4 OFFCURVE",
"429 10 CURVE"
);
},
{
closed = 1;
nodes = (
"176 731 OFFCURVE",
"187 747 OFFCURVE",
"214 747 CURVE SMOOTH",
"241 747 OFFCURVE",
"252 731 OFFCURVE",
"252 701 CURVE SMOOTH",
"252 671 OFFCURVE",
"241 655 OFFCURVE",
"214 655 CURVE SMOOTH",
"188 655 OFFCURVE",
"176 671 OFFCURVE",
"176 701 CURVE SMOOTH"
);
},
{
closed = 1;
nodes = (
"182 448 LINE SMOOTH",
"193 492 OFFCURVE",
"202 537 OFFCURVE",
"211 580 CURVE",
"213 580 LINE",
"222 536 OFFCURVE",
"232 491 OFFCURVE",
"243 447 CURVE SMOOTH",
"299 225 LINE",
"126 225 LINE"
);
}
);
width = 428;
},
{
layerId = "87A71899-7C85-4E95-82CD-7392C73A0331";
paths = (
{
closed = 1;
nodes = (
"218 641 LINE",
"251 647 OFFCURVE",
"271 674 OFFCURVE",
"271 715 CURVE SMOOTH",
"271 761 OFFCURVE",
"245 789 OFFCURVE",
"203 789 CURVE SMOOTH",
"161 789 OFFCURVE",
"135 761 OFFCURVE",
"135 715 CURVE SMOOTH",
"135 674 OFFCURVE",
"155 647 OFFCURVE",
"188 641 CURVE",
"8 4 LINE SMOOTH",
"7 0 OFFCURVE",
"9 0 OFFCURVE",
"11 0 CURVE SMOOTH",
"20 0 LINE SMOOTH",
"22 0 OFFCURVE",
"23 0 OFFCURVE",
"24 3 CURVE",
"78 191 LINE",
"328 191 LINE",
"381 3 LINE",
"382 0 OFFCURVE",
"383 0 OFFCURVE",
"385 0 CURVE SMOOTH",
"395 0 LINE SMOOTH",
"397 0 OFFCURVE",
"399 1 OFFCURVE",
"398 4 CURVE"
);
},
{
closed = 1;
nodes = (
"150 751 OFFCURVE",
"167 773 OFFCURVE",
"203 773 CURVE SMOOTH",
"239 773 OFFCURVE",
"256 751 OFFCURVE",
"256 715 CURVE SMOOTH",
"256 678 OFFCURVE",
"239 656 OFFCURVE",
"203 656 CURVE SMOOTH",
"167 656 OFFCURVE",
"150 678 OFFCURVE",
"150 715 CURVE SMOOTH"
);
},
{
closed = 1;
nodes = (
"172 517 LINE SMOOTH",
"183 557 OFFCURVE",
"193 598 OFFCURVE",
"203 638 CURVE",
"204 638 LINE",
"214 598 OFFCURVE",
"223 559 OFFCURVE",
"234 519 CURVE SMOOTH",
"324 207 LINE",
"82 207 LINE"
);
}
);
width = 406;
},
{
layerId = "447BF32C-5B1D-49E6-885E-D276D7630B14";
paths = (
{
closed = 1;
nodes = (
"389 620 LINE",
"396 636 OFFCURVE",
"401 655 OFFCURVE",
"401 675 CURVE SMOOTH",
"401 748 OFFCURVE",
"349 789 OFFCURVE",
"275 789 CURVE SMOOTH",
"201 789 OFFCURVE",
"150 748 OFFCURVE",
"150 675 CURVE SMOOTH",
"150 655 OFFCURVE",
"154 636 OFFCURVE",
"162 621 CURVE",
"1 16 LINE",
"-2 7 OFFCURVE",
"2 0 OFFCURVE",
"11 0 CURVE SMOOTH",
"171 0 LINE SMOOTH",
"180 0 OFFCURVE",
"185 4 OFFCURVE",
"186 12 CURVE",
"205 113 LINE",
"343 113 LINE",
"361 11 LINE",
"362 5 OFFCURVE",
"367 0 OFFCURVE",
"375 0 CURVE SMOOTH",
"539 0 LINE SMOOTH",
"548 0 OFFCURVE",
"551 7 OFFCURVE",
"549 16 CURVE"
);
},
{
closed = 1;
nodes = (
"247 702 OFFCURVE",
"257 715 OFFCURVE",
"275 715 CURVE SMOOTH",
"294 715 OFFCURVE",
"303 702 OFFCURVE",
"303 674 CURVE SMOOTH",
"303 646 OFFCURVE",
"294 633 OFFCURVE",
"275 633 CURVE SMOOTH",
"257 633 OFFCURVE",
"247 646 OFFCURVE",
"247 674 CURVE SMOOTH"
);
},
{
closed = 1;
nodes = (
"251 362 LINE SMOOTH",
"259 409 OFFCURVE",
"267 460 OFFCURVE",
"273 507 CURVE",
"276 507 LINE",
"283 461 OFFCURVE",
"289 409 OFFCURVE",
"298 363 CURVE SMOOTH",
"318 248 LINE",
"230 248 LINE"
);
}
);
width = 549;
}
);
leftKerningGroup = A;
leftMetricsKey = A;
rightKerningGroup = A;
rightMetricsKey = A;
unicode = 00C5;
},
{
glyphname = AE;
lastChange = "2022-10-27 03:26:45 +0000";
layers = (
{
anchors = (
{
name = bottom;
position = "{341, 0}";
},
{
name = top;
position = "{417, 655}";
}
);
layerId = "315A68D9-B8D0-4E7E-8516-8D4632F47100";
paths = (
{
closed = 1;
nodes = (
"68 0 LINE SMOOTH",
"72 0 OFFCURVE",
"75 2 OFFCURVE",
"77 6 CURVE",
"132 158 LINE",
"289 158 LINE",
"289 9 LINE SMOOTH",
"289 4 OFFCURVE",
"292 0 OFFCURVE",
"297 0 CURVE SMOOTH",
"574 0 LINE SMOOTH",
"579 0 OFFCURVE",
"582 4 OFFCURVE",
"582 9 CURVE SMOOTH",
"582 58 LINE SMOOTH",
"582 64 OFFCURVE",
"579 68 OFFCURVE",
"574 68 CURVE SMOOTH",
"361 68 LINE",
"361 301 LINE",
"556 301 LINE SMOOTH",
"561 301 OFFCURVE",
"564 305 OFFCURVE",
"564 310 CURVE SMOOTH",
"564 357 LINE SMOOTH",
"564 362 OFFCURVE",
"561 366 OFFCURVE",
"556 366 CURVE SMOOTH",
"361 366 LINE",
"361 587 LINE",
"574 587 LINE SMOOTH",
"579 587 OFFCURVE",
"582 591 OFFCURVE",
"582 597 CURVE SMOOTH",
"582 646 LINE SMOOTH",
"582 651 OFFCURVE",
"579 655 OFFCURVE",
"574 655 CURVE SMOOTH",
"248 655 LINE SMOOTH",
"245 655 OFFCURVE",
"241 653 OFFCURVE",
"240 649 CURVE SMOOTH",
"0 10 LINE",
"-2 4 OFFCURVE",
"1 0 OFFCURVE",
"6 0 CURVE SMOOTH"
);
},
{
closed = 1;
nodes = (
"257 506 LINE SMOOTH",
"269 538 OFFCURVE",
"279 567 OFFCURVE",
"289 598 CURVE",
"290 598 LINE",
"289 564 OFFCURVE",
"289 537 OFFCURVE",
"289 508 CURVE SMOOTH",
"289 225 LINE",
"155 225 LINE"
);
}
);
width = 636;
},
{
anchors = (
{
name = bottom;
position = "{364, 0}";
},
{
name = top;
position = "{414, 655}";
}
);
layerId = "87A71899-7C85-4E95-82CD-7392C73A0331";
paths = (
{
closed = 1;
nodes = (
"21 0 LINE SMOOTH",
"22 0 OFFCURVE",
"23 0 OFFCURVE",
"24 2 CURVE",
"104 191 LINE",
"294 191 LINE",
"294 3 LINE SMOOTH",
"294 1 OFFCURVE",
"295 0 OFFCURVE",
"297 0 CURVE SMOOTH",
"558 0 LINE SMOOTH",
"560 0 OFFCURVE",
"561 1 OFFCURVE",
"561 3 CURVE SMOOTH",
"561 13 LINE SMOOTH",
"561 15 OFFCURVE",
"560 16 OFFCURVE",
"558 16 CURVE SMOOTH",
"310 16 LINE",
"310 328 LINE",
"542 328 LINE SMOOTH",
"544 328 OFFCURVE",
"545 329 OFFCURVE",
"545 331 CURVE SMOOTH",
"545 341 LINE SMOOTH",
"545 343 OFFCURVE",
"544 344 OFFCURVE",
"542 344 CURVE SMOOTH",
"310 344 LINE",
"310 639 LINE",
"558 639 LINE SMOOTH",
"560 639 OFFCURVE",
"561 640 OFFCURVE",
"561 642 CURVE SMOOTH",
"561 652 LINE SMOOTH",
"561 654 OFFCURVE",
"560 655 OFFCURVE",
"558 655 CURVE SMOOTH",
"286 655 LINE SMOOTH",
"284 655 OFFCURVE",
"284 655 OFFCURVE",
"283 653 CURVE",
"8 3 LINE",
"7 1 OFFCURVE",
"8 0 OFFCURVE",
"10 0 CURVE SMOOTH"
);
},
{
closed = 1;
nodes = (
"254 545 LINE SMOOTH",
"270 580 OFFCURVE",
"282 610 OFFCURVE",
"293 639 CURVE",
"294 639 LINE",
"294 609 OFFCURVE",
"294 580 OFFCURVE",
"294 550 CURVE SMOOTH",
"294 207 LINE",
"111 207 LINE"
);
}
);
width = 625;
},
{
anchors = (
{
name = bottom;
position = "{393, 0}";
},
{
name = top;
position = "{440, 655}";
}
);
layerId = "447BF32C-5B1D-49E6-885E-D276D7630B14";
paths = (
{
closed = 1;
nodes = (
"174 0 LINE SMOOTH",
"181 0 OFFCURVE",
"187 3 OFFCURVE",
"189 11 CURVE",
"212 113 LINE",
"310 113 LINE",
"310 14 LINE SMOOTH",
"310 6 OFFCURVE",
"316 0 OFFCURVE",
"324 0 CURVE SMOOTH",
"692 0 LINE SMOOTH",
"700 0 OFFCURVE",
"705 6 OFFCURVE",
"705 14 CURVE SMOOTH",
"705 138 LINE SMOOTH",
"705 146 OFFCURVE",
"700 152 OFFCURVE",
"692 152 CURVE SMOOTH",
"483 152 LINE",
"483 257 LINE",
"672 257 LINE SMOOTH",
"680 257 OFFCURVE",
"685 263 OFFCURVE",
"685 272 CURVE SMOOTH",
"685 387 LINE SMOOTH",
"685 395 OFFCURVE",
"680 401 OFFCURVE",
"672 401 CURVE SMOOTH",
"483 401 LINE",
"483 503 LINE",
"692 503 LINE SMOOTH",
"700 503 OFFCURVE",
"705 509 OFFCURVE",
"705 517 CURVE SMOOTH",
"705 641 LINE SMOOTH",
"705 649 OFFCURVE",
"700 655 OFFCURVE",
"692 655 CURVE SMOOTH",
"197 655 LINE SMOOTH",
"189 655 OFFCURVE",
"184 652 OFFCURVE",
"182 644 CURVE SMOOTH",
"1 16 LINE",
"-2 6 OFFCURVE",
"2 0 OFFCURVE",
"11 0 CURVE SMOOTH"
);
},
{
closed = 1;
nodes = (
"279 399 LINE SMOOTH",
"290 443 OFFCURVE",
"299 485 OFFCURVE",
"309 529 CURVE",
"311 529 LINE",
"310 485 OFFCURVE",
"310 448 OFFCURVE",
"310 402 CURVE SMOOTH",
"310 248 LINE",
"244 248 LINE"
);
}
);
width = 737;
}
);
leftKerningGroup = AE;
leftMetricsKey = A;
rightKerningGroup = E;
rightMetricsKey = E;
unicode = 00C6;
},
{
glyphname = B;
lastChange = "2022-10-27 03:26:45 +0000";
layers = (
{
anchors = (
{
name = bottom;
position = "{222, 0}";
},
{
name = top;
position = "{222, 655}";
}
);
layerId = "315A68D9-B8D0-4E7E-8516-8D4632F47100";
paths = (
{
closed = 1;
nodes = (
"212 0 LINE SMOOTH",
"345 0 OFFCURVE",
"409 61 OFFCURVE",
"409 182 CURVE SMOOTH",
"409 272 OFFCURVE",
"372 327 OFFCURVE",
"301 345 CURVE",
"301 347 LINE",
"360 376 OFFCURVE",
"387 422 OFFCURVE",
"387 494 CURVE SMOOTH",
"387 602 OFFCURVE",
"328 655 OFFCURVE",
"202.006 655 CURVE SMOOTH",
"74 655 LINE SMOOTH",
"68 655 OFFCURVE",
"65 651 OFFCURVE",
"65 646 CURVE SMOOTH",
"65 9 LINE SMOOTH",
"65 4 OFFCURVE",
"68 0 OFFCURVE",
"74 0 CURVE SMOOTH"
);
},
{
closed = 1;
nodes = (
"137 308 LINE",
"214 308 LINE SMOOTH",
"298 308 OFFCURVE",
"337 270 OFFCURVE",
"337 188 CURVE SMOOTH",
"337 103 OFFCURVE",
"299 67 OFFCURVE",
"211 67 CURVE SMOOTH",
"137 67 LINE"
);
},
{
closed = 1;
nodes = (
"137 589 LINE",
"201 589 LINE SMOOTH",
"282 589 OFFCURVE",
"315 559 OFFCURVE",
"315 484 CURVE SMOOTH",
"315 409 OFFCURVE",
"280 372 OFFCURVE",
"207 372 CURVE SMOOTH",
"137 372 LINE"
);
}
);
width = 445;
},
{
anchors = (
{
name = bottom;
position = "{220, 0}";
},
{
name = top;
position = "{220, 655}";
}
);
layerId = "87A71899-7C85-4E95-82CD-7392C73A0331";
paths = (
{
closed = 1;
nodes = (
"208 0 LINE SMOOTH",
"334 0 OFFCURVE",
"389 58 OFFCURVE",
"389 182 CURVE SMOOTH",
"389 269 OFFCURVE",
"345 324 OFFCURVE",
"272 339 CURVE",
"272 340 LINE",
"332 358 OFFCURVE",
"366 417 OFFCURVE",
"366 496 CURVE SMOOTH",
"366 604 OFFCURVE",
"314 655 OFFCURVE",
"204 655 CURVE SMOOTH",
"84 655 LINE SMOOTH",
"82 655 OFFCURVE",
"81 654 OFFCURVE",
"81 652 CURVE SMOOTH",
"81 3 LINE SMOOTH",
"81 1 OFFCURVE",
"82 0 OFFCURVE",
"84 0 CURVE SMOOTH"
);
},
{
closed = 1;
nodes = (
"97 330 LINE",
"225 330 LINE SMOOTH",
"316 330 OFFCURVE",
"373 277 OFFCURVE",
"373 182 CURVE SMOOTH",
"373 66 OFFCURVE",
"324 16 OFFCURVE",
"207 16 CURVE SMOOTH",
"97 16 LINE"
);
},
{
closed = 1;
nodes = (
"97 639 LINE",
"203 639 LINE SMOOTH",
"303 639 OFFCURVE",
"350 594 OFFCURVE",
"350 495 CURVE SMOOTH",
"350 406 OFFCURVE",
"301 346 OFFCURVE",
"225 346 CURVE SMOOTH",
"97 346 LINE"
);
}
);
width = 440;
},
{
anchors = (
{
name = bottom;
position = "{249, 0}";
},
{
name = top;
position = "{251, 655}";
}
);
layerId = "447BF32C-5B1D-49E6-885E-D276D7630B14";
paths = (
{
closed = 1;
nodes = (
"253 0 LINE SMOOTH",
"426 0 OFFCURVE",
"499 58 OFFCURVE",
"499 195 CURVE SMOOTH",
"499 275 OFFCURVE",
"458 325 OFFCURVE",
"381 344 CURVE",
"381 348 LINE",
"446 374 OFFCURVE",
"475 418 OFFCURVE",
"475 491 CURVE SMOOTH",
"475 599 OFFCURVE",
"401 655 OFFCURVE",
"254 655 CURVE SMOOTH",
"53 655 LINE SMOOTH",
"45 655 OFFCURVE",
"39 649 OFFCURVE",
"39 641 CURVE SMOOTH",
"39 14 LINE SMOOTH",
"39 6 OFFCURVE",
"45 0 OFFCURVE",
"54 0 CURVE SMOOTH"
);
},
{
closed = 1;
nodes = (
"213 269 LINE",
"255 269 LINE SMOOTH",
"303 269 OFFCURVE",
"327 246 OFFCURVE",
"327 205 CURVE SMOOTH",
"327 161 OFFCURVE",
"305 139 OFFCURVE",
"258 139 CURVE SMOOTH",
"213 139 LINE"
);
},
{
closed = 1;
nodes = (
"213 516 LINE",
"245 516 LINE SMOOTH",
"285 516 OFFCURVE",
"305 496 OFFCURVE",
"305 457 CURVE SMOOTH",
"305 415 OFFCURVE",
"286 393 OFFCURVE",
"248 393 CURVE SMOOTH",
"213 393 LINE"
);
}
);
width = 521;
}
);
leftKerningGroup = H;
leftMetricsKey = H;
rightKerningGroup = B;
unicode = 0042;
},
{
glyphname = C;
lastChange = "2022-10-27 03:26:45 +0000";
layers = (
{
anchors = (
{
name = bottom;
position = "{254, 0}";
},
{
name = top;
position = "{244, 655}";
}
);
layerId = "315A68D9-B8D0-4E7E-8516-8D4632F47100";
paths = (
{
closed = 1;
nodes = (
"371 -8 OFFCURVE",
"442 73 OFFCURVE",
"432 209 CURVE",
"431 217 OFFCURVE",
"428 220 OFFCURVE",
"422 220 CURVE SMOOTH",
"368 220 LINE SMOOTH",
"363 220 OFFCURVE",
"360 216 OFFCURVE",
"361 211 CURVE SMOOTH",
"369 117 OFFCURVE",
"330 59 OFFCURVE",
"247 59 CURVE SMOOTH",
"169 59 OFFCURVE",
"126 107 OFFCURVE",
"126 206 CURVE SMOOTH",
"126 449 LINE SMOOTH",
"126 548 OFFCURVE",
"169 596 OFFCURVE",
"247 596 CURVE SMOOTH",
"327 596 OFFCURVE",
"367 543 OFFCURVE",
"359 444 CURVE",
"359 438 OFFCURVE",
"362 435 OFFCURVE",
"367 435 CURVE SMOOTH",
"423 435 LINE SMOOTH",
"429 435 OFFCURVE",
"431 439 OFFCURVE",
"431 445 CURVE",
"449 579 OFFCURVE",
"373 663 OFFCURVE",
"246 663 CURVE SMOOTH",
"121 663 OFFCURVE",
"54 591 OFFCURVE",
"54 452 CURVE SMOOTH",
"54 203 LINE SMOOTH",
"54 64 OFFCURVE",
"121 -8 OFFCURVE",
"246 -8 CURVE SMOOTH"
);
}
);
width = 485;
},
{
anchors = (
{
name = bottom;
position = "{243, 0}";
},
{
name = top;
position = "{242, 655}";
}
);
layerId = "87A71899-7C85-4E95-82CD-7392C73A0331";
paths = (
{
closed = 1;
nodes = (
"363 -8 OFFCURVE",
"423 62 OFFCURVE",
"418 196 CURVE SMOOTH",
"418 198 OFFCURVE",
"417 199 OFFCURVE",
"415 199 CURVE SMOOTH",
"405 199 LINE SMOOTH",
"403 199 OFFCURVE",
"402 198 OFFCURVE",
"402 196 CURVE SMOOTH",
"405 69 OFFCURVE",
"353 8 OFFCURVE",
"244 8 CURVE SMOOTH",
"141 8 OFFCURVE",
"84 71 OFFCURVE",
"84 189 CURVE SMOOTH",
"84 466 LINE SMOOTH",
"84 584 OFFCURVE",
"140 647 OFFCURVE",
"244 647 CURVE SMOOTH",
"352 647 OFFCURVE",
"408 584 OFFCURVE",
"401 459 CURVE SMOOTH",
"401 457 OFFCURVE",
"402 456 OFFCURVE",
"404 456 CURVE SMOOTH",
"414 456 LINE SMOOTH",
"416 456 OFFCURVE",
"417 457 OFFCURVE",
"417 459 CURVE SMOOTH",
"424 592 OFFCURVE",
"362 663 OFFCURVE",
"244 663 CURVE SMOOTH",
"130 663 OFFCURVE",
"68 594 OFFCURVE",
"68 467 CURVE SMOOTH",
"68 188 LINE SMOOTH",
"68 61 OFFCURVE",
"131 -8 OFFCURVE",
"244 -8 CURVE SMOOTH"
);
}
);
width = 483;
},
{
anchors = (
{
name = bottom;
position = "{300, 0}";
},
{
name = top;
position = "{278, 655}";
}
);
layerId = "447BF32C-5B1D-49E6-885E-D276D7630B14";
paths = (
{
closed = 1;
nodes = (
"454 -8 OFFCURVE",
"540 90 OFFCURVE",
"526 238 CURVE",
"525 247 OFFCURVE",
"520 252 OFFCURVE",
"513 252 CURVE SMOOTH",
"364 252 LINE SMOOTH",
"355 252 OFFCURVE",
"352 247 OFFCURVE",
"352 237 CURVE SMOOTH",
"353 184 OFFCURVE",
"339 145 OFFCURVE",
"280 145 CURVE SMOOTH",
"228 145 OFFCURVE",
"204 172 OFFCURVE",
"204 255 CURVE SMOOTH",
"204 403 LINE SMOOTH",
"204 482 OFFCURVE",
"226 510 OFFCURVE",
"280 510 CURVE SMOOTH",
"335 510 OFFCURVE",
"355 476 OFFCURVE",
"352 419 CURVE",
"351 410 OFFCURVE",
"354 404 OFFCURVE",
"364 404 CURVE SMOOTH",
"512 404 LINE SMOOTH",
"520 404 OFFCURVE",
"524 410 OFFCURVE",
"525 418 CURVE",
"542 565 OFFCURVE",
"449 663 OFFCURVE",
"279 663 CURVE SMOOTH",
"119 663 OFFCURVE",
"30 578 OFFCURVE",
"30 407 CURVE SMOOTH",
"30 247 LINE SMOOTH",
"30 70 OFFCURVE",
"119 -8 OFFCURVE",
"279 -8 CURVE SMOOTH"
);
}
);
width = 557;
}
);
leftKerningGroup = O;
leftMetricsKey = O;
rightKerningGroup = C;
unicode = 0043;
},
{
glyphname = D;
lastChange = "2022-10-27 03:26:45 +0000";
layers = (
{
anchors = (
{
name = bottom;
position = "{216, 0}";
},
{
name = center;
position = "{238, 327}";
},
{
name = top;
position = "{216, 656}";
}
);
layerId = "315A68D9-B8D0-4E7E-8516-8D4632F47100";
paths = (
{
closed = 1;
nodes = (
"205 0 LINE SMOOTH",
"367 0 OFFCURVE",
"444 98 OFFCURVE",
"444 302 CURVE SMOOTH",
"444 383 LINE SMOOTH",
"444 566 OFFCURVE",
"365 655 OFFCURVE",
"202 655 CURVE SMOOTH",
"73 655 LINE SMOOTH",
"68 655 OFFCURVE",
"65 651 OFFCURVE",
"65 646 CURVE SMOOTH",
"65 9 LINE SMOOTH",
"65 4 OFFCURVE",
"68 0 OFFCURVE",
"74 0 CURVE SMOOTH"
);
},
{
closed = 1;
nodes = (
"137 589 LINE",
"197 589 LINE SMOOTH",
"318 589 OFFCURVE",
"372 526 OFFCURVE",
"372 387 CURVE SMOOTH",
"372 297 LINE SMOOTH",
"372 137 OFFCURVE",
"319 66 OFFCURVE",
"199 66 CURVE SMOOTH",
"137 66 LINE"
);
}
);
width = 492;
},
{
anchors = (
{
name = bottom;
position = "{207, 0}";
},
{
name = center;
position = "{241, 328}";
},
{
name = top;
position = "{209, 655}";
}
);
layerId = "87A71899-7C85-4E95-82CD-7392C73A0331";
paths = (
{
closed = 1;
nodes = (
"201 0 LINE SMOOTH",
"356 0 OFFCURVE",
"424 81 OFFCURVE",
"424 274 CURVE SMOOTH",
"424 380 LINE SMOOTH",
"424 574 OFFCURVE",
"352 655 OFFCURVE",
"199 655 CURVE SMOOTH",
"83 655 LINE SMOOTH",
"82 655 OFFCURVE",
"81 654 OFFCURVE",
"81 652 CURVE SMOOTH",
"81 3 LINE SMOOTH",
"81 1 OFFCURVE",
"82 0 OFFCURVE",
"84 0 CURVE SMOOTH"
);
},
{
closed = 1;
nodes = (
"97 639 LINE",
"200 639 LINE SMOOTH",
"341 639 OFFCURVE",
"408 562 OFFCURVE",
"408 379 CURVE SMOOTH",
"408 275 LINE SMOOTH",
"408 92 OFFCURVE",
"346 16 OFFCURVE",
"201 16 CURVE SMOOTH",
"97 16 LINE"
);
}
);
width = 484;
},
{
anchors = (
{
name = bottom;
position = "{248, 0}";
},
{
name = center;
position = "{268, 342}";
},
{
name = top;
position = "{248, 655}";
}
);
layerId = "447BF32C-5B1D-49E6-885E-D276D7630B14";
paths = (
{
closed = 1;
nodes = (
"262 0 LINE SMOOTH",
"438 0 OFFCURVE",
"531 98 OFFCURVE",
"531 295 CURVE SMOOTH",
"531 367 LINE SMOOTH",
"531 558 OFFCURVE",
"439 655 OFFCURVE",
"259 655 CURVE SMOOTH",
"54 655 LINE SMOOTH",
"45 655 OFFCURVE",
"39 650 OFFCURVE",
"39 641 CURVE SMOOTH",
"39 14 LINE SMOOTH",
"39 5 OFFCURVE",
"45 0 OFFCURVE",
"54 0 CURVE SMOOTH"
);
},
{
closed = 1;
nodes = (
"213 503 LINE",
"253 503 LINE SMOOTH",
"326 503 OFFCURVE",
"357 454 OFFCURVE",
"357 364 CURVE SMOOTH",
"357 298 LINE SMOOTH",
"357 203 OFFCURVE",
"325 152 OFFCURVE",
"256 152 CURVE SMOOTH",
"213 152 LINE"
);
}
);
width = 557;
}
);
leftKerningGroup = H;
leftMetricsKey = H;
rightKerningGroup = D;
unicode = 0044;
},
{
glyphname = Eth;
lastChange = "2022-10-27 03:26:45 +0000";
layers = (
{
components = (
{
alignment = -1;
name = D;
}
);
layerId = "315A68D9-B8D0-4E7E-8516-8D4632F47100";
paths = (
{
closed = 1;
nodes = (
"240 302 LINE SMOOTH",
"245 302 OFFCURVE",
"248 306 OFFCURVE",
"248 312 CURVE SMOOTH",
"248 356 LINE SMOOTH",
"248 361 OFFCURVE",
"245 365 OFFCURVE",
"240 365 CURVE SMOOTH",
"65 365 LINE",
"14 365 LINE SMOOTH",
"9 365 OFFCURVE",
"6 361 OFFCURVE",
"6 356 CURVE SMOOTH",
"6 312 LINE SMOOTH",
"6 306 OFFCURVE",
"9 302 OFFCURVE",
"14 302 CURVE SMOOTH"
);
}
);
width = 492;
},
{
components = (
{
alignment = -1;
name = D;
}
);
layerId = "87A71899-7C85-4E95-82CD-7392C73A0331";
paths = (
{
closed = 1;
nodes = (
"240 328 LINE SMOOTH",
"242 328 OFFCURVE",
"243 329 OFFCURVE",
"243 331 CURVE SMOOTH",
"243 341 LINE SMOOTH",
"243 343 OFFCURVE",
"242 344 OFFCURVE",
"240 344 CURVE SMOOTH",
"81 344 LINE",
"10 344 LINE SMOOTH",
"8 344 OFFCURVE",
"7 343 OFFCURVE",
"7 341 CURVE SMOOTH",
"7 331 LINE SMOOTH",
"7 329 OFFCURVE",
"8 328 OFFCURVE",
"10 328 CURVE SMOOTH"
);
}
);
width = 484;
},
{
components = (
{
alignment = -1;
name = D;
transform = "{1, 0, 0, 1, 7, 0}";
}
);
layerId = "447BF32C-5B1D-49E6-885E-D276D7630B14";
paths = (
{
closed = 1;
nodes = (
"269 266 LINE SMOOTH",
"277 266 OFFCURVE",
"282 271 OFFCURVE",
"282 279 CURVE SMOOTH",
"282 376 LINE SMOOTH",
"282 385 OFFCURVE",
"277 391 OFFCURVE",
"269 391 CURVE SMOOTH",
"46 391 LINE",
"14 391 LINE SMOOTH",
"6 391 OFFCURVE",
"0 385 OFFCURVE",
"0 376 CURVE SMOOTH",
"0 279 LINE SMOOTH",
"0 271 OFFCURVE",
"5 266 OFFCURVE",
"14 266 CURVE SMOOTH"
);
}
);
width = 564;
}
);
leftKerningGroup = Eth;
rightKerningGroup = D;
rightMetricsKey = D;
unicode = 00D0;
},
{
glyphname = E;
lastChange = "2022-10-27 03:26:45 +0000";
layers = (
{
anchors = (
{
name = bottom;
position = "{216, 0}";
},
{
name = ogonek;
position = "{344, 10}";
},
{
name = top;
position = "{213, 655}";
},
{
name = topleft;
position = "{32, 655}";
}
);
layerId = "315A68D9-B8D0-4E7E-8516-8D4632F47100";
paths = (
{
closed = 1;
nodes = (
"350 0 LINE SMOOTH",
"355 0 OFFCURVE",
"358 4 OFFCURVE",
"358 9 CURVE SMOOTH",
"358 58 LINE SMOOTH",
"358 64 OFFCURVE",
"355 68 OFFCURVE",
"350 68 CURVE SMOOTH",
"137 68 LINE",
"137 301 LINE",
"332 301 LINE SMOOTH",
"337 301 OFFCURVE",
"340 305 OFFCURVE",
"340 310 CURVE SMOOTH",
"340 357 LINE SMOOTH",
"340 362 OFFCURVE",
"337 366 OFFCURVE",
"332 366 CURVE SMOOTH",
"137 366 LINE",
"137 587 LINE",
"350 587 LINE SMOOTH",
"355 587 OFFCURVE",
"358 591 OFFCURVE",
"358 597 CURVE SMOOTH",
"358 646 LINE SMOOTH",
"358 651 OFFCURVE",
"355 655 OFFCURVE",
"350 655 CURVE SMOOTH",
"73.003 655 LINE SMOOTH",
"68 655 OFFCURVE",
"65 651 OFFCURVE",
"65 646 CURVE SMOOTH",
"65 9 LINE SMOOTH",
"65 4 OFFCURVE",
"68 0 OFFCURVE",
"74 0 CURVE SMOOTH"
);
}
);
width = 412;
},
{
anchors = (
{
name = bottom;
position = "{208, 0}";
},
{
name = ogonek;
position = "{331, 10}";
},
{
name = top;
position = "{211, 655}";
},
{
name = topleft;
position = "{22, 655}";
}
);
layerId = "87A71899-7C85-4E95-82CD-7392C73A0331";
paths = (
{
closed = 1;
nodes = (
"345 0 LINE SMOOTH",
"347 0 OFFCURVE",
"348 1 OFFCURVE",
"348 3 CURVE SMOOTH",
"348 13 LINE SMOOTH",
"348 15 OFFCURVE",
"347 16 OFFCURVE",
"345 16 CURVE SMOOTH",
"97 16 LINE",
"97 328 LINE",
"329 328 LINE SMOOTH",
"331 328 OFFCURVE",
"332 329 OFFCURVE",
"332 331 CURVE SMOOTH",
"332 341 LINE SMOOTH",
"332 343 OFFCURVE",
"331 344 OFFCURVE",
"329 344 CURVE SMOOTH",
"97 344 LINE",
"97 639 LINE",
"345 639 LINE SMOOTH",
"347 639 OFFCURVE",
"348 640 OFFCURVE",
"348 642 CURVE SMOOTH",
"348 652 LINE SMOOTH",
"348 654 OFFCURVE",
"347 655 OFFCURVE",
"345 655 CURVE SMOOTH",
"84 655 LINE SMOOTH",
"82 655 OFFCURVE",
"81 654 OFFCURVE",
"81 652 CURVE SMOOTH",
"81 3 LINE SMOOTH",
"81 1 OFFCURVE",
"82 0 OFFCURVE",
"84 0 CURVE SMOOTH"
);
}
);
width = 412;
},
{
anchors = (
{
name = bottom;
position = "{237, 0}";
},
{
name = ogonek;
position = "{411, 10}";
},
{
name = top;
position = "{234, 655}";
},
{
name = topleft;
position = "{30, 655}";
}
);
layerId = "447BF32C-5B1D-49E6-885E-D276D7630B14";
paths = (
{
closed = 1;
nodes = (
"422 0 LINE SMOOTH",
"430 0 OFFCURVE",
"435 6 OFFCURVE",
"435 14 CURVE SMOOTH",
"435 138 LINE SMOOTH",
"435 146 OFFCURVE",
"430 152 OFFCURVE",
"422 152 CURVE SMOOTH",
"213 152 LINE",
"213 257 LINE",
"402 257 LINE SMOOTH",
"410 257 OFFCURVE",
"415 263 OFFCURVE",
"415 272 CURVE SMOOTH",
"415 387 LINE SMOOTH",
"415 395 OFFCURVE",
"410 401 OFFCURVE",
"402 401 CURVE SMOOTH",
"213 401 LINE",
"213 503 LINE",
"422 503 LINE SMOOTH",
"430 503 OFFCURVE",
"435 509 OFFCURVE",
"435 517 CURVE SMOOTH",
"435 641 LINE SMOOTH",
"435 649 OFFCURVE",
"430 655 OFFCURVE",
"422 655 CURVE SMOOTH",
"52 655 LINE SMOOTH",
"45 655 OFFCURVE",
"39 649 OFFCURVE",
"39 641 CURVE SMOOTH",
"39 14 LINE SMOOTH",
"39 6 OFFCURVE",
"45 0 OFFCURVE",
"52 0 CURVE SMOOTH"
);
}
);
width = 467;
}
);
leftKerningGroup = H;
leftMetricsKey = H;
rightKerningGroup = E;
unicode = 0045;
},
{
glyphname = F;
lastChange = "2022-10-27 03:26:45 +0000";
layers = (
{
anchors = (
{
name = bottom;
position = "{199, 0}";
},
{
name = top;
position = "{204, 655}";
}
);
layerId = "315A68D9-B8D0-4E7E-8516-8D4632F47100";
paths = (
{
closed = 1;
nodes = (
"129 0 LINE SMOOTH",
"134 0 OFFCURVE",
"137 4 OFFCURVE",
"137 9 CURVE SMOOTH",
"137 291 LINE",
"322 291 LINE SMOOTH",
"327 291 OFFCURVE",
"330 295 OFFCURVE",
"330 301 CURVE SMOOTH",
"330 347 LINE SMOOTH",
"330 353 OFFCURVE",
"327 356 OFFCURVE",
"322 356 CURVE SMOOTH",
"137 356 LINE",
"137 587 LINE",
"350 587 LINE SMOOTH",
"355 587 OFFCURVE",
"358 591 OFFCURVE",
"358 597 CURVE SMOOTH",
"358 646 LINE SMOOTH",
"358 651 OFFCURVE",
"355 655 OFFCURVE",
"350 655 CURVE SMOOTH",
"73.003 655 LINE SMOOTH",
"68 655 OFFCURVE",
"65 651 OFFCURVE",
"65 646 CURVE SMOOTH",
"65 9 LINE SMOOTH",
"65 4 OFFCURVE",
"68 0 OFFCURVE",
"72 0 CURVE SMOOTH"
);
}
);
width = 394;
},
{
anchors = (
{
name = bottom;
position = "{195, 0}";
},
{
name = top;
position = "{195, 655}";
}
);
layerId = "87A71899-7C85-4E95-82CD-7392C73A0331";
paths = (
{
closed = 1;
nodes = (
"94 0 LINE SMOOTH",
"96 0 OFFCURVE",
"97 1 OFFCURVE",
"97 3 CURVE SMOOTH",
"97 320 LINE",
"320 320 LINE SMOOTH",
"322 320 OFFCURVE",
"323 321 OFFCURVE",
"323 323 CURVE SMOOTH",
"323 333 LINE SMOOTH",
"323 335 OFFCURVE",
"322 336 OFFCURVE",
"320 336 CURVE SMOOTH",
"97 336 LINE",
"97 639 LINE",
"345 639 LINE SMOOTH",
"347 639 OFFCURVE",
"348 640 OFFCURVE",
"348 642 CURVE SMOOTH",
"348 652 LINE SMOOTH",
"348 654 OFFCURVE",
"347 655 OFFCURVE",
"345 655 CURVE SMOOTH",
"84 655 LINE SMOOTH",
"82 655 OFFCURVE",
"81 654 OFFCURVE",
"81 652 CURVE SMOOTH",
"81 3 LINE SMOOTH",
"81 1 OFFCURVE",
"82 0 OFFCURVE",
"84 0 CURVE SMOOTH"
);
}
);
width = 382;
},
{
anchors = (
{
name = bottom;
position = "{240, 0}";
},
{
name = top;
position = "{240, 655}";
}
);
layerId = "447BF32C-5B1D-49E6-885E-D276D7630B14";
paths = (
{
closed = 1;
nodes = (
"201 0 LINE SMOOTH",
"208 0 OFFCURVE",
"213 6 OFFCURVE",
"213 14 CURVE SMOOTH",
"213 244 LINE",
"391 244 LINE SMOOTH",
"399 244 OFFCURVE",
"404 249 OFFCURVE",
"404 257 CURVE SMOOTH",
"404 377 LINE SMOOTH",
"404 386 OFFCURVE",
"399 392 OFFCURVE",
"391 392 CURVE SMOOTH",
"213 392 LINE",
"213 503 LINE",
"422 503 LINE SMOOTH",
"430 503 OFFCURVE",
"435 509 OFFCURVE",
"435 517 CURVE SMOOTH",
"435 641 LINE SMOOTH",
"435 649 OFFCURVE",
"430 655 OFFCURVE",
"422 655 CURVE SMOOTH",
"52 655 LINE SMOOTH",
"45 655 OFFCURVE",
"39 649 OFFCURVE",
"39 641 CURVE SMOOTH",
"39 14 LINE SMOOTH",
"39 6 OFFCURVE",
"45 0 OFFCURVE",
"52 0 CURVE SMOOTH"
);
}
);
width = 458;
}
);
leftKerningGroup = H;
leftMetricsKey = H;
rightKerningGroup = F;
unicode = 0046;
},
{
glyphname = G;
lastChange = "2022-10-27 03:26:45 +0000";
layers = (
{
anchors = (
{
name = bottom;
position = "{245, 0}";
},
{
name = top;
position = "{242, 655}";
},
{
name = topleft;
position = "{58, 655}";
}
);
layerId = "315A68D9-B8D0-4E7E-8516-8D4632F47100";
paths = (
{
closed = 1;
nodes = (
"300 -8 OFFCURVE",
"349 23 OFFCURVE",
"374 77 CURVE",
"375 77 LINE",
"376 46 OFFCURVE",
"378 25 OFFCURVE",
"380 8 CURVE SMOOTH",
"381 2 OFFCURVE",
"384 0 OFFCURVE",
"389 0 CURVE SMOOTH",
"435 0 LINE SMOOTH",
"440 0 OFFCURVE",
"443 4 OFFCURVE",
"442 10 CURVE SMOOTH",
"438 43 OFFCURVE",
"436 74 OFFCURVE",
"436 127 CURVE SMOOTH",
"436 322 LINE SMOOTH",
"436 328 OFFCURVE",
"433 332 OFFCURVE",
"428 332 CURVE SMOOTH",
"256 332 LINE SMOOTH",
"251 332 OFFCURVE",
"248 328 OFFCURVE",
"248 322 CURVE SMOOTH",
"248 274 LINE SMOOTH",
"248 268 OFFCURVE",
"251 265 OFFCURVE",
"256 265 CURVE SMOOTH",
"367 265 LINE",
"367 215 LINE SMOOTH",
"367 111 OFFCURVE",
"325 59 OFFCURVE",
"243 59 CURVE SMOOTH",
"162 59 OFFCURVE",
"126 103 OFFCURVE",
"126 202 CURVE SMOOTH",
"126 451 LINE SMOOTH",
"126 549 OFFCURVE",
"168 596 OFFCURVE",
"249 596 CURVE SMOOTH",
"327 596 OFFCURVE",
"368 544 OFFCURVE",
"360 453 CURVE SMOOTH",
"359 448 OFFCURVE",
"363 445 OFFCURVE",
"368 445 CURVE SMOOTH",
"424 445 LINE SMOOTH",
"429 445 OFFCURVE",
"432 448 OFFCURVE",
"432 453 CURVE SMOOTH",
"446 583 OFFCURVE",
"372 663 OFFCURVE",
"247 663 CURVE SMOOTH",
"124 663 OFFCURVE",
"54 587 OFFCURVE",
"54 453 CURVE SMOOTH",
"54 199 LINE SMOOTH",
"54 64 OFFCURVE",
"115 -8 OFFCURVE",
"230 -8 CURVE SMOOTH"
);
}
);
width = 501;
},
{
anchors = (
{
name = bottom;
position = "{248, 0}";
},
{
name = top;
position = "{246, 655}";
},
{
name = topleft;
position = "{58, 655}";
}
);
layerId = "87A71899-7C85-4E95-82CD-7392C73A0331";
paths = (
{
closed = 1;
nodes = (
"346 -8 OFFCURVE",
"386 55 OFFCURVE",
"402 129 CURVE",
"403 129 LINE",
"403 85 OFFCURVE",
"405 41 OFFCURVE",
"409 5 CURVE SMOOTH",
"409 1 OFFCURVE",
"410 0 OFFCURVE",
"412 0 CURVE SMOOTH",
"421 0 LINE SMOOTH",
"423 0 OFFCURVE",
"424 1 OFFCURVE",
"424 3 CURVE SMOOTH",
"419 45 OFFCURVE",
"417 88 OFFCURVE",
"417 140 CURVE SMOOTH",
"417 314 LINE SMOOTH",
"417 316 OFFCURVE",
"416 317 OFFCURVE",
"414 317 CURVE SMOOTH",
"261 317 LINE SMOOTH",
"259 317 OFFCURVE",
"258 316 OFFCURVE",
"258 314 CURVE SMOOTH",
"258 304 LINE SMOOTH",
"258 302 OFFCURVE",
"259 301 OFFCURVE",
"261 301 CURVE SMOOTH",
"401 301 LINE",
"401 249 LINE SMOOTH",
"401 83 OFFCURVE",
"348 8 OFFCURVE",
"244 8 CURVE SMOOTH",
"140 8 OFFCURVE",
"84 70 OFFCURVE",
"84 189 CURVE SMOOTH",
"84 466 LINE SMOOTH",
"84 586 OFFCURVE",
"141 647 OFFCURVE",
"244 647 CURVE SMOOTH",
"344 647 OFFCURVE",
"409 584 OFFCURVE",
"401 469 CURVE SMOOTH",
"401 467 OFFCURVE",
"402 466 OFFCURVE",
"404 466 CURVE SMOOTH",
"414 466 LINE SMOOTH",
"416 466 OFFCURVE",
"417 467 OFFCURVE",
"417 469 CURVE SMOOTH",
"426 593 OFFCURVE",
"356 663 OFFCURVE",
"244 663 CURVE SMOOTH",
"131 663 OFFCURVE",
"68 596 OFFCURVE",
"68 467 CURVE SMOOTH",
"68 188 LINE SMOOTH",
"68 60 OFFCURVE",
"130 -8 OFFCURVE",
"244 -8 CURVE SMOOTH"
);
}
);
width = 497;
},
{
anchors = (
{
name = bottom;
position = "{276, 0}";
},
{
name = top;
position = "{281, 655}";
},
{
name = topleft;
position = "{63, 655}";
}
);
layerId = "447BF32C-5B1D-49E6-885E-D276D7630B14";
paths = (
{
closed = 1;
nodes = (
"314 -8 OFFCURVE",
"353 26 OFFCURVE",
"379 73 CURVE",
"381 73 LINE",
"382 51 OFFCURVE",
"384 26 OFFCURVE",
"388 13 CURVE SMOOTH",
"390 4 OFFCURVE",
"393 0 OFFCURVE",
"401 0 CURVE SMOOTH",
"517 0 LINE SMOOTH",
"526 0 OFFCURVE",
"532 6 OFFCURVE",
"530 15 CURVE SMOOTH",
"523 54 OFFCURVE",
"521 111 OFFCURVE",
"521 175 CURVE SMOOTH",
"521 341 LINE SMOOTH",
"521 349 OFFCURVE",
"515 355 OFFCURVE",
"509 355 CURVE SMOOTH",
"284 355 LINE SMOOTH",
"276 355 OFFCURVE",
"271 349 OFFCURVE",
"271 341 CURVE SMOOTH",
"271 255 LINE SMOOTH",
"271 246 OFFCURVE",
"276 240 OFFCURVE",
"284 240 CURVE SMOOTH",
"352 240 LINE",
"352 216 LINE SMOOTH",
"352 170 OFFCURVE",
"327 145 OFFCURVE",
"281 145 CURVE SMOOTH",
"226 145 OFFCURVE",
"204 173 OFFCURVE",
"204 248 CURVE SMOOTH",
"204 406 LINE SMOOTH",
"204 480 OFFCURVE",
"227 510 OFFCURVE",
"281 510 CURVE SMOOTH",
"331 510 OFFCURVE",
"349 485 OFFCURVE",
"348 442 CURVE SMOOTH",
"348 432 OFFCURVE",
"351 426 OFFCURVE",
"360 426 CURVE SMOOTH",
"508 425 LINE SMOOTH",
"516 425 OFFCURVE",
"520 431 OFFCURVE",
"521 440 CURVE SMOOTH",
"531 571 OFFCURVE",
"446 663 OFFCURVE",
"279 663 CURVE SMOOTH",
"119 663 OFFCURVE",
"30 577 OFFCURVE",
"30 408 CURVE SMOOTH",
"30 236 LINE SMOOTH",
"30 72 OFFCURVE",
"113 -8 OFFCURVE",
"239 -8 CURVE SMOOTH"
);
}
);
width = 562;
}
);
leftKerningGroup = O;
leftMetricsKey = O;
rightKerningGroup = G;
unicode = 0047;
},
{
glyphname = H;
lastChange = "2022-10-27 03:26:45 +0000";
layers = (
{
anchors = (
{
name = bottom;
position = "{254, 0}";
},
{
name = center;
position = "{254, 343}";
},
{
name = top;
position = "{254, 655}";
},
{
name = topleft;
position = "{25, 655}";
}
);
layerId = "315A68D9-B8D0-4E7E-8516-8D4632F47100";
paths = (
{
closed = 1;
nodes = (
"129 0 LINE SMOOTH",
"134 0 OFFCURVE",
"137 4 OFFCURVE",
"137 9 CURVE SMOOTH",
"137 305 LINE",
"371 305 LINE",
"371 9 LINE SMOOTH",
"371 4 OFFCURVE",
"374 0 OFFCURVE",
"379 0 CURVE SMOOTH",
"435 0 LINE SMOOTH",
"440 0 OFFCURVE",
"443 4 OFFCURVE",
"443 9 CURVE SMOOTH",
"443 646 LINE SMOOTH",
"443 652 OFFCURVE",
"440 655 OFFCURVE",
"435 655 CURVE SMOOTH",
"379 655 LINE SMOOTH",
"374 655 OFFCURVE",
"371 652 OFFCURVE",
"371 646 CURVE SMOOTH",
"371 372 LINE",
"137 372 LINE",
"137 646 LINE SMOOTH",
"137 651 OFFCURVE",
"134 655 OFFCURVE",
"129 655 CURVE SMOOTH",
"73.003 655 LINE SMOOTH",
"68 655 OFFCURVE",
"65 651 OFFCURVE",
"65 646 CURVE SMOOTH",
"65 9 LINE SMOOTH",
"65 4 OFFCURVE",
"68 0 OFFCURVE",
"73.003 0 CURVE SMOOTH"
);
}
);
width = 508;
},
{
anchors = (
{
name = bottom;
position = "{250, 0}";
},
{
name = center;
position = "{254, 328}";
},
{
name = top;
position = "{250, 655}";
},
{
name = topleft;
position = "{48, 655}";
}
);
layerId = "87A71899-7C85-4E95-82CD-7392C73A0331";
paths = (
{
closed = 1;
nodes = (
"94 0 LINE SMOOTH",
"96 0 OFFCURVE",
"97 1 OFFCURVE",
"97 3 CURVE SMOOTH",
"97 331 LINE",
"406 331 LINE",
"406 3 LINE SMOOTH",
"406 1 OFFCURVE",
"407 0 OFFCURVE",
"409 0 CURVE SMOOTH",
"419 0 LINE SMOOTH",
"421 0 OFFCURVE",
"422 1 OFFCURVE",
"422 3 CURVE SMOOTH",
"422 652 LINE SMOOTH",
"422 654 OFFCURVE",
"421 655 OFFCURVE",
"419 655 CURVE SMOOTH",
"409 655 LINE SMOOTH",
"407 655 OFFCURVE",
"406 654 OFFCURVE",
"406 652 CURVE SMOOTH",
"406 347 LINE",
"97 347 LINE",
"97 652 LINE SMOOTH",
"97 654 OFFCURVE",
"96 655 OFFCURVE",
"94 655 CURVE SMOOTH",
"84 655 LINE SMOOTH",
"82 655 OFFCURVE",
"81 654 OFFCURVE",
"81 652 CURVE SMOOTH",
"81 3 LINE SMOOTH",
"81 1 OFFCURVE",
"82 0 OFFCURVE",
"84 0 CURVE SMOOTH"
);
}
);
width = 503;
},
{
anchors = (
{
name = bottom;
position = "{286, 351}";
},
{
name = center;
position = "{286, 327}";
},
{
name = top;
position = "{286, 655}";
},
{
name = topleft;
position = "{38.999, 655}";
}
);
layerId = "447BF32C-5B1D-49E6-885E-D276D7630B14";
paths = (
{
closed = 1;
nodes = (
"199 0 LINE SMOOTH",
"208 0 OFFCURVE",
"213 6 OFFCURVE",
"213 14 CURVE SMOOTH",
"213 252 LINE",
"357 252 LINE",
"357 14 LINE SMOOTH",
"357 6 OFFCURVE",
"363 0 OFFCURVE",
"371 0 CURVE SMOOTH",
"517 0 LINE SMOOTH",
"526 0 OFFCURVE",
"531 6 OFFCURVE",
"531 14 CURVE SMOOTH",
"531 641 LINE SMOOTH",
"531 649 OFFCURVE",
"526 655 OFFCURVE",
"517 655 CURVE SMOOTH",
"371 655 LINE SMOOTH",
"363 655 OFFCURVE",
"357 649 OFFCURVE",
"357 641 CURVE SMOOTH",
"357 404 LINE",
"213 404 LINE",
"213 641 LINE SMOOTH",
"213 649 OFFCURVE",
"208 655 OFFCURVE",
"199 655 CURVE SMOOTH",
"53 655 LINE SMOOTH",
"45 655 OFFCURVE",
"39 649 OFFCURVE",
"39 641 CURVE SMOOTH",
"39 14 LINE SMOOTH",
"39 6 OFFCURVE",
"45 0 OFFCURVE",
"53 0 CURVE SMOOTH"
);
}
);
width = 570;
}
);
leftKerningGroup = H;
rightKerningGroup = H;
unicode = 0048;
},
{
glyphname = Hbar;
lastChange = "2022-10-27 03:26:45 +0000";
layers = (
{
components = (
{
alignment = -1;
name = H;
}
);
layerId = "315A68D9-B8D0-4E7E-8516-8D4632F47100";
paths = (
{
closed = 1;
nodes = (
"65 520 LINE",
"443 520 LINE",
"484 520 LINE SMOOTH",
"489 520 OFFCURVE",
"493 523 OFFCURVE",
"493 529 CURVE SMOOTH",
"493 574 LINE SMOOTH",
"493 579 OFFCURVE",
"489 583 OFFCURVE",
"484 583 CURVE SMOOTH",
"24 583 LINE SMOOTH",
"19 583 OFFCURVE",
"16 579 OFFCURVE",
"16 574 CURVE SMOOTH",
"16 529 LINE SMOOTH",
"16 523 OFFCURVE",
"19 520 OFFCURVE",
"24 520 CURVE SMOOTH"
);
}
);
width = 508;
},
{
components = (
{
alignment = -1;
name = H;
}
);
layerId = "87A71899-7C85-4E95-82CD-7392C73A0331";
paths = (
{
closed = 1;
nodes = (
"81 545 LINE",
"422 545 LINE",
"493 545 LINE SMOOTH",
"495 545 OFFCURVE",
"496 546 OFFCURVE",
"496 548 CURVE SMOOTH",
"496 558 LINE SMOOTH",
"496 560 OFFCURVE",
"495 561 OFFCURVE",
"493 561 CURVE SMOOTH",
"10 561 LINE SMOOTH",
"8 561 OFFCURVE",
"7 560 OFFCURVE",
"7 558 CURVE SMOOTH",
"7 548 LINE SMOOTH",
"7 546 OFFCURVE",
"8 545 OFFCURVE",
"10 545 CURVE SMOOTH"
);
}
);
width = 503;
},
{
components = (
{
alignment = -1;
name = H;
}
);
layerId = "447BF32C-5B1D-49E6-885E-D276D7630B14";
paths = (
{
closed = 1;
nodes = (
"39 486 LINE",
"531 486 LINE",
"562 486 LINE SMOOTH",
"570 486 OFFCURVE",
"576 492 OFFCURVE",
"576 501 CURVE SMOOTH",
"576 580 LINE SMOOTH",
"576 589 OFFCURVE",
"570 594 OFFCURVE",
"562 594 CURVE SMOOTH",
"8 594 LINE SMOOTH",
"-1 594 OFFCURVE",
"-6 589 OFFCURVE",
"-6 580 CURVE SMOOTH",
"-6 501 LINE SMOOTH",
"-6 492 OFFCURVE",
"0 486 OFFCURVE",
"8 486 CURVE SMOOTH"
);
}
);
width = 570;
}
);
leftKerningGroup = H;
rightKerningGroup = H;
unicode = 0126;
},
{
glyphname = I;
lastChange = "2022-10-27 03:26:45 +0000";
layers = (
{
anchors = (
{
name = bottom;
position = "{102, 0}";
},
{
name = ogonek;
position = "{145, 10}";
},
{
name = top;
position = "{102, 655}";
},
{
name = topleft;
position = "{21, 655}";
}
);
layerId = "315A68D9-B8D0-4E7E-8516-8D4632F47100";
paths = (
{
closed = 1;
nodes = (
"129 0 LINE SMOOTH",
"134 0 OFFCURVE",
"137 4 OFFCURVE",
"137 9 CURVE SMOOTH",
"137 646 LINE SMOOTH",
"137 651 OFFCURVE",
"134 655 OFFCURVE",
"129 655 CURVE SMOOTH",
"73.003 655 LINE SMOOTH",
"68 655 OFFCURVE",
"65 651 OFFCURVE",
"65 646 CURVE SMOOTH",
"65 9 LINE SMOOTH",
"65 4 OFFCURVE",
"69 0 OFFCURVE",
"73.003 0 CURVE SMOOTH"
);
}
);
width = 202;
},
{
anchors = (
{
name = bottom;
position = "{89, 0}";
},
{
name = ogonek;
position = "{105, 10}";
},
{
name = top;
position = "{89, 655}";
},
{
name = topleft;
position = "{35, 655}";
}
);
layerId = "87A71899-7C85-4E95-82CD-7392C73A0331";
paths = (
{
closed = 1;
nodes = (
"94 0 LINE SMOOTH",
"96 0 OFFCURVE",
"97 1 OFFCURVE",
"97 3 CURVE SMOOTH",
"97 652 LINE SMOOTH",
"97 654 OFFCURVE",
"96 655 OFFCURVE",
"94 655 CURVE SMOOTH",
"84 655 LINE SMOOTH",
"82 655 OFFCURVE",
"81 654 OFFCURVE",
"81 652 CURVE SMOOTH",
"81 3 LINE SMOOTH",
"81 1 OFFCURVE",
"82 0 OFFCURVE",
"84 0 CURVE SMOOTH"
);
}
);
width = 178;
},
{
anchors = (
{
name = bottom;
position = "{126, 0}";
},
{
name = ogonek;
position = "{214, 10}";
},
{
name = top;
position = "{127.996, 655}";
},
{
name = topleft;
position = "{19, 655}";
}
);
layerId = "447BF32C-5B1D-49E6-885E-D276D7630B14";
paths = (
{
closed = 1;
nodes = (
"200 0 LINE SMOOTH",
"208 0 OFFCURVE",
"213 6 OFFCURVE",
"213 14 CURVE SMOOTH",
"213 641 LINE SMOOTH",
"213 649 OFFCURVE",
"208 655 OFFCURVE",
"200 655 CURVE SMOOTH",
"52 655 LINE SMOOTH",
"45 655 OFFCURVE",
"39 649 OFFCURVE",
"39 641 CURVE SMOOTH",
"39 14 LINE SMOOTH",
"39 6 OFFCURVE",
"45 0 OFFCURVE",
"52 0 CURVE SMOOTH"
);
}
);
width = 252;
}
);
leftKerningGroup = H;
leftMetricsKey = H;
rightKerningGroup = H;
rightMetricsKey = H;
unicode = 0049;
},
{
glyphname = J;
lastChange = "2022-10-27 03:26:45 +0000";
layers = (
{
anchors = (
{
name = bottom;
position = "{102, 0}";
},
{
name = top;
position = "{104, 655}";
}
);
layerId = "315A68D9-B8D0-4E7E-8516-8D4632F47100";
paths = (
{
closed = 1;
nodes = (
"101 -118 OFFCURVE",
"140 -60 OFFCURVE",
"140 77 CURVE SMOOTH",
"140 646 LINE SMOOTH",
"140 651 OFFCURVE",
"137 655 OFFCURVE",
"133 655 CURVE SMOOTH",
"76 655 LINE SMOOTH",
"71 655 OFFCURVE",
"68 651 OFFCURVE",
"68 646 CURVE SMOOTH",
"68 75 LINE SMOOTH",
"68 -16 OFFCURVE",
"47 -56 OFFCURVE",
"5 -68 CURVE SMOOTH",
"-5 -70 OFFCURVE",
"-7 -74 OFFCURVE",
"-5 -82 CURVE SMOOTH",
"10 -133 LINE SMOOTH",
"12 -140 OFFCURVE",
"16 -142 OFFCURVE",
"27 -138 CURVE SMOOTH"
);
}
);
width = 205;
},
{
anchors = (
{
name = bottom;
position = "{89, 0}";
},
{
name = top;
position = "{89, 655}";
}
);
layerId = "87A71899-7C85-4E95-82CD-7392C73A0331";
paths = (
{
closed = 1;
nodes = (
"75 -119 OFFCURVE",
"97 -69 OFFCURVE",
"97 66 CURVE SMOOTH",
"97 652 LINE SMOOTH",
"97 654 OFFCURVE",
"96 655 OFFCURVE",
"94 655 CURVE SMOOTH",
"84 655 LINE SMOOTH",
"82 655 OFFCURVE",
"81 654 OFFCURVE",
"81 652 CURVE SMOOTH",
"81 66 LINE SMOOTH",
"81 -63 OFFCURVE",
"60 -107 OFFCURVE",
"6 -124 CURVE SMOOTH",
"4 -125 OFFCURVE",
"3 -126 OFFCURVE",
"4 -128 CURVE SMOOTH",
"6 -138 LINE SMOOTH",
"7 -140 OFFCURVE",
"8 -140 OFFCURVE",
"10 -139 CURVE SMOOTH"
);
}
);
width = 178;
},
{
anchors = (
{
name = bottom;
position = "{132, 0}";
},
{
name = top;
position = "{132, 655}";
}
);
layerId = "447BF32C-5B1D-49E6-885E-D276D7630B14";
paths = (
{
closed = 1;
nodes = (
"155 -149 OFFCURVE",
"217 -61 OFFCURVE",
"217 105 CURVE SMOOTH",
"217 641 LINE SMOOTH",
"217 649 OFFCURVE",
"211 655 OFFCURVE",
"204 655 CURVE SMOOTH",
"56 655 LINE SMOOTH",
"48 655 OFFCURVE",
"43 649 OFFCURVE",
"43 641 CURVE SMOOTH",
"43 94 LINE SMOOTH",
"43 13 OFFCURVE",
"24 -14 OFFCURVE",
"-13 -26 CURVE SMOOTH",
"-19 -28 OFFCURVE",
"-24 -35 OFFCURVE",
"-21 -44 CURVE SMOOTH",
"16 -159 LINE SMOOTH",
"18 -167 OFFCURVE",
"24 -170 OFFCURVE",
"30 -169 CURVE SMOOTH"
);
}
);
width = 256;
}
);
leftKerningGroup = J;
rightKerningGroup = J;
rightMetricsKey = H;
unicode = 004A;
},
{
glyphname = K;
lastChange = "2022-10-27 03:26:45 +0000";
layers = (
{
anchors = (
{
name = bottom;
position = "{243, 0}";
},
{
name = top;
position = "{230, 655}";
}
);
layerId = "315A68D9-B8D0-4E7E-8516-8D4632F47100";
paths = (
{
closed = 1;
nodes = (
"129 0 LINE SMOOTH",
"134 0 OFFCURVE",
"137 4 OFFCURVE",
"137 9 CURVE SMOOTH",
"137 212 LINE",
"210 319 LINE",
"363 6 LINE",
"365 3 OFFCURVE",
"369 0 OFFCURVE",
"373 0 CURVE SMOOTH",
"441 0 LINE SMOOTH",
"447 0 OFFCURVE",
"449 5 OFFCURVE",
"446 11 CURVE",
"258 390 LINE",
"431 644 LINE",
"435 650 OFFCURVE",
"432 655 OFFCURVE",
"426 655 CURVE SMOOTH",
"358 655 LINE SMOOTH",
"354 655 OFFCURVE",
"350 654 OFFCURVE",
"349 651 CURVE",
"207 434 LINE SMOOTH",
"183 395 OFFCURVE",
"158 356 OFFCURVE",
"136 315 CURVE",
"134 315 LINE",
"136 358 OFFCURVE",
"137 400 OFFCURVE",
"137 442 CURVE SMOOTH",
"137 646 LINE SMOOTH",
"137 651 OFFCURVE",
"134 655 OFFCURVE",
"129 655 CURVE SMOOTH",
"73.003 655 LINE SMOOTH",
"68 655 OFFCURVE",
"65 651 OFFCURVE",
"65 646 CURVE SMOOTH",
"65 9 LINE SMOOTH",
"65 4 OFFCURVE",
"68 0 OFFCURVE",
"73.003 0 CURVE SMOOTH"
);
}
);
width = 455;
},
{
anchors = (
{
name = bottom;
position = "{224, 0}";
},
{
name = top;
position = "{218, 655}";
}
);
layerId = "87A71899-7C85-4E95-82CD-7392C73A0331";
paths = (
{
closed = 1;
nodes = (
"94 0 LINE SMOOTH",
"96 0 OFFCURVE",
"97 1 OFFCURVE",
"97 3 CURVE SMOOTH",
"97 210 LINE",
"203 366 LINE",
"397 2 LINE SMOOTH",
"398 0 OFFCURVE",
"399 0 OFFCURVE",
"401 0 CURVE SMOOTH",
"414 0 LINE SMOOTH",
"416 0 OFFCURVE",
"416 2 OFFCURVE",
"415 4 CURVE SMOOTH",
"213 381 LINE",
"396 651 LINE SMOOTH",
"397 653 OFFCURVE",
"397 655 OFFCURVE",
"395 655 CURVE SMOOTH",
"381 655 LINE SMOOTH",
"379 655 OFFCURVE",
"378 655 OFFCURVE",
"377 653 CURVE SMOOTH",
"189 371 LINE SMOOTH",
"158 327 OFFCURVE",
"128 282 OFFCURVE",
"97 238 CURVE",
"97 239 LINE",
"97 286 OFFCURVE",
"97 333 OFFCURVE",
"97 380 CURVE SMOOTH",
"97 652 LINE SMOOTH",
"97 654 OFFCURVE",
"96 655 OFFCURVE",
"94 655 CURVE SMOOTH",
"84 655 LINE SMOOTH",
"82 655 OFFCURVE",
"81 654 OFFCURVE",
"81 652 CURVE SMOOTH",
"81 3 LINE SMOOTH",
"81 1 OFFCURVE",
"82 0 OFFCURVE",
"84 0 CURVE SMOOTH"
);
}
);
width = 427;
},
{
anchors = (
{
name = bottom;
position = "{274, 0}";
},
{
name = top;
position = "{278, 655}";
}
);
layerId = "447BF32C-5B1D-49E6-885E-D276D7630B14";
paths = (
{
closed = 1;
nodes = (
"200 0 LINE SMOOTH",
"208 0 OFFCURVE",
"213 6 OFFCURVE",
"213 14 CURVE SMOOTH",
"213 181 LINE",
"255 241 LINE",
"346 10 LINE",
"349 2 OFFCURVE",
"354 0 OFFCURVE",
"361 0 CURVE SMOOTH",
"538 0 LINE SMOOTH",
"547 0 OFFCURVE",
"552 7 OFFCURVE",
"547 18 CURVE",
"379 380 LINE",
"524 637 LINE",
"529 647 OFFCURVE",
"526 655 OFFCURVE",
"516 655 CURVE SMOOTH",
"347 655 LINE SMOOTH",
"339 655 OFFCURVE",
"335 653 OFFCURVE",
"332 647 CURVE",
"267 538 LINE SMOOTH",
"239 482 OFFCURVE",
"223 430 OFFCURVE",
"209 391 CURVE",
"206 391 LINE",
"211 431 OFFCURVE",
"213 501 OFFCURVE",
"213 539 CURVE SMOOTH",
"213 641 LINE SMOOTH",
"213 649 OFFCURVE",
"208 655 OFFCURVE",
"200 655 CURVE SMOOTH",
"52 655 LINE SMOOTH",
"45 655 OFFCURVE",
"39 649 OFFCURVE",
"39 641 CURVE SMOOTH",
"39 14 LINE SMOOTH",
"39 6 OFFCURVE",
"45 0 OFFCURVE",
"52 0 CURVE SMOOTH"
);
}
);
width = 552;
}
);
leftKerningGroup = H;
leftMetricsKey = H;
rightKerningGroup = K;
unicode = 004B;
},
{
glyphname = L;
lastChange = "2022-10-27 03:26:45 +0000";
layers = (
{
anchors = (
{
name = bottom;
position = "{213, 0}";
},
{
name = center;
position = "{190, 343}";
},
{
name = top;
position = "{101, 655}";
},
{
name = topright;
position = "{356, 655}";
}
);
layerId = "315A68D9-B8D0-4E7E-8516-8D4632F47100";
paths = (
{
closed = 1;
nodes = (
"344 0 LINE SMOOTH",
"349 0 OFFCURVE",
"352 4 OFFCURVE",
"352 9 CURVE SMOOTH",
"352 58 LINE SMOOTH",
"352 64 OFFCURVE",
"349 68 OFFCURVE",
"344 68 CURVE SMOOTH",
"137 68 LINE",
"137 646 LINE SMOOTH",
"137 651 OFFCURVE",
"134 655 OFFCURVE",
"129 655 CURVE SMOOTH",
"73.003 655 LINE SMOOTH",
"67 655 OFFCURVE",
"65 651 OFFCURVE",
"65 646 CURVE SMOOTH",
"65 9 LINE SMOOTH",
"65 4 OFFCURVE",
"68 0 OFFCURVE",
"73.003 0 CURVE SMOOTH"
);
}
);
width = 370;
},
{
anchors = (
{
name = bottom;
position = "{216, 0}";
},
{
name = center;
position = "{202, 328}";
},
{
name = top;
position = "{89, 655}";
},
{
name = topright;
position = "{369, 655}";
}
);
layerId = "87A71899-7C85-4E95-82CD-7392C73A0331";
paths = (
{
closed = 1;
nodes = (
"341 0 LINE SMOOTH",
"343 0 OFFCURVE",
"344 1 OFFCURVE",
"344 3 CURVE SMOOTH",
"344 13 LINE SMOOTH",
"344 15 OFFCURVE",
"343 16 OFFCURVE",
"341 16 CURVE SMOOTH",
"97 16 LINE",
"97 652 LINE SMOOTH",
"97 654 OFFCURVE",
"96 655 OFFCURVE",
"94 655 CURVE SMOOTH",
"84 655 LINE SMOOTH",
"82 655 OFFCURVE",
"81 654 OFFCURVE",
"81 652 CURVE SMOOTH",
"81 3 LINE SMOOTH",
"81 1 OFFCURVE",
"82 0 OFFCURVE",
"84 0 CURVE SMOOTH"
);
}
);
width = 365;
},
{
anchors = (
{
name = bottom;
position = "{229, 0}";
},
{
name = center;
position = "{222, 327}";
},
{
name = top;
position = "{128, 655}";
},
{
name = topright;
position = "{426, 655}";
}
);
layerId = "447BF32C-5B1D-49E6-885E-D276D7630B14";
paths = (
{
closed = 1;
nodes = (
"403 0 LINE SMOOTH",
"412 0 OFFCURVE",
"416 6 OFFCURVE",
"416 14 CURVE SMOOTH",
"416 138 LINE SMOOTH",
"416 146 OFFCURVE",
"411 152 OFFCURVE",
"403 152 CURVE SMOOTH",
"213 152 LINE",
"213 641 LINE SMOOTH",
"213 648 OFFCURVE",
"208 655 OFFCURVE",
"200 655 CURVE SMOOTH",
"53 655 LINE SMOOTH",
"45 655 OFFCURVE",
"39 649 OFFCURVE",
"39 641 CURVE SMOOTH",
"39 14 LINE SMOOTH",
"39 6 OFFCURVE",
"45 0 OFFCURVE",
"53 0 CURVE SMOOTH"
);
}
);
width = 428;
}
);
leftKerningGroup = H;
leftMetricsKey = H;
rightKerningGroup = L;
unicode = 004C;
},
{
glyphname = Lslash;
lastChange = "2022-10-27 03:26:45 +0000";
layers = (
{
components = (
{
alignment = -1;
name = L;
}
);
layerId = "315A68D9-B8D0-4E7E-8516-8D4632F47100";
paths = (
{
closed = 1;
nodes = (
"239 395 LINE SMOOTH",
"243 397 OFFCURVE",
"245 401 OFFCURVE",
"245 405 CURVE SMOOTH",
"245 457 LINE SMOOTH",
"245 463 OFFCURVE",
"241 465 OFFCURVE",
"236 463 CURVE SMOOTH",
"-1 334 LINE SMOOTH",
"-5 332 OFFCURVE",
"-7 328 OFFCURVE",
"-7 323 CURVE SMOOTH",
"-7 271 LINE SMOOTH",
"-7 265 OFFCURVE",
"-4 263 OFFCURVE",
"2 266 CURVE SMOOTH"
);
}
);
width = 370;
},
{
components = (
{
alignment = -1;
name = L;
}
);
layerId = "87A71899-7C85-4E95-82CD-7392C73A0331";
paths = (
{
closed = 1;
nodes = (
"228 406 LINE SMOOTH",
"230 407 OFFCURVE",
"230 408 OFFCURVE",
"230 410 CURVE SMOOTH",
"230 421 LINE SMOOTH",
"230 423 OFFCURVE",
"229 424 OFFCURVE",
"227 423 CURVE SMOOTH",
"3 297 LINE SMOOTH",
"0 295 OFFCURVE",
"0 295 OFFCURVE",
"0 291 CURVE SMOOTH",
"0 282 LINE SMOOTH",
"0 279 OFFCURVE",
"2 279 OFFCURVE",
"4 280 CURVE SMOOTH"
);
}
);
width = 365;
},
{
components = (
{
alignment = -1;
name = L;
transform = "{1, 0, 0, 1, 5, 0}";
}
);
layerId = "447BF32C-5B1D-49E6-885E-D276D7630B14";
paths = (
{
closed = 1;
nodes = (
"301 337 LINE SMOOTH",
"309 339 OFFCURVE",
"312 343 OFFCURVE",
"312 352 CURVE SMOOTH",
"312 454 LINE SMOOTH",
"312 463 OFFCURVE",
"305 468 OFFCURVE",
"297 464 CURVE SMOOTH",
"11 364 LINE SMOOTH",
"4 362 OFFCURVE",
"1 358 OFFCURVE",
"1 350 CURVE SMOOTH",
"1 247 LINE SMOOTH",
"1 238 OFFCURVE",
"6 234 OFFCURVE",
"14 237 CURVE SMOOTH"
);
}
);
width = 433;
}
);
leftKerningGroup = Lslash;
rightKerningGroup = L;
rightMetricsKey = "=L";
unicode = 0141;
},
{
glyphname = M;
lastChange = "2022-10-27 03:26:45 +0000";
layers = (
{
anchors = (
{
name = bottom;
position = "{297, 0}";
},
{
name = top;
position = "{297, 655}";
}
);
layerId = "315A68D9-B8D0-4E7E-8516-8D4632F47100";
paths = (
{
closed = 1;
nodes = (
"117 0 LINE SMOOTH",
"122 0 OFFCURVE",
"125 3 OFFCURVE",
"125 9 CURVE SMOOTH",
"132 426 LINE SMOOTH",
"132 467 OFFCURVE",
"132 515 OFFCURVE",
"130 559 CURVE",
"132 559 LINE",
"144 517 OFFCURVE",
"156 474 OFFCURVE",
"171 432 CURVE SMOOTH",
"286 96 LINE SMOOTH",
"287 91 OFFCURVE",
"291 89 OFFCURVE",
"295 89 CURVE SMOOTH",
"299 89 LINE SMOOTH",
"303 89 OFFCURVE",
"307 91 OFFCURVE",
"308 96 CURVE SMOOTH",
"422 429 LINE SMOOTH",
"437 472 OFFCURVE",
"451 516 OFFCURVE",
"463 559 CURVE",
"465 559 LINE",
"463 514 OFFCURVE",
"463 466 OFFCURVE",
"463 424 CURVE SMOOTH",
"470 9 LINE SMOOTH",
"470 3 OFFCURVE",
"473 0 OFFCURVE",
"478 0 CURVE SMOOTH",
"533 0 LINE SMOOTH",
"537 0 OFFCURVE",
"541 4 OFFCURVE",
"541 9 CURVE SMOOTH",
"530 646 LINE SMOOTH",
"530 652 OFFCURVE",
"527 655 OFFCURVE",
"522 655 CURVE SMOOTH",
"434 655 LINE SMOOTH",
"429 655 OFFCURVE",
"426 653 OFFCURVE",
"424 648 CURVE SMOOTH",
"298 256 LINE",
"171 648 LINE SMOOTH",
"169 653 OFFCURVE",
"166 655 OFFCURVE",
"161 655 CURVE SMOOTH",
"73 655 LINE SMOOTH",
"68 655 OFFCURVE",
"65 652 OFFCURVE",
"65 646 CURVE SMOOTH",
"54 9 LINE SMOOTH",
"54 4 OFFCURVE",
"57 0 OFFCURVE",
"62 0 CURVE SMOOTH"
);
}
);
width = 594;
},
{
anchors = (
{
name = bottom;
position = "{291, 0}";
},
{
name = top;
position = "{291, 655}";
}
);
layerId = "87A71899-7C85-4E95-82CD-7392C73A0331";
paths = (
{
closed = 1;
nodes = (
"84 0 LINE SMOOTH",
"86 0 OFFCURVE",
"87 1 OFFCURVE",
"87 3 CURVE SMOOTH",
"96 523 LINE SMOOTH",
"97 559 OFFCURVE",
"97 596 OFFCURVE",
"98 632 CURVE",
"99 632 LINE",
"111 598 OFFCURVE",
"124 563 OFFCURVE",
"137 530 CURVE SMOOTH",
"291 131 LINE SMOOTH",
"292 128 OFFCURVE",
"293 128 OFFCURVE",
"294 128 CURVE SMOOTH",
"296 128 LINE SMOOTH",
"298 128 OFFCURVE",
"298 128 OFFCURVE",
"299 131 CURVE SMOOTH",
"453 526 LINE SMOOTH",
"466 560 OFFCURVE",
"479 597 OFFCURVE",
"492 632 CURVE",
"493 632 LINE",
"494 594 OFFCURVE",
"493 556 OFFCURVE",
"494 518 CURVE SMOOTH",
"504 3 LINE SMOOTH",
"504 1 OFFCURVE",
"505 0 OFFCURVE",
"507 0 CURVE SMOOTH",
"517 0 LINE SMOOTH",
"519 0 OFFCURVE",
"520 1 OFFCURVE",
"520 3 CURVE SMOOTH",
"507 652 LINE SMOOTH",
"507 654 OFFCURVE",
"506 655 OFFCURVE",
"504 655 CURVE SMOOTH",
"487 655 LINE SMOOTH",
"485 655 OFFCURVE",
"484 655 OFFCURVE",
"483 652 CURVE SMOOTH",
"295 165 LINE",
"108 653 LINE SMOOTH",
"107 655 OFFCURVE",
"106 655 OFFCURVE",
"105 655 CURVE SMOOTH",
"86 655 LINE SMOOTH",
"84 655 OFFCURVE",
"83 654 OFFCURVE",
"83 652 CURVE SMOOTH",
"70 3 LINE SMOOTH",
"70 1 OFFCURVE",
"71 0 OFFCURVE",
"73 0 CURVE SMOOTH"
);
}
);
width = 586;
},
{
anchors = (
{
name = bottom;
position = "{343, 0}";
},
{
name = top;
position = "{343, 655}";
}
);
layerId = "447BF32C-5B1D-49E6-885E-D276D7630B14";
paths = (
{
closed = 1;
nodes = (
"188 0 LINE SMOOTH",
"196 0 OFFCURVE",
"201 6 OFFCURVE",
"201 14 CURVE SMOOTH",
"204 187 LINE SMOOTH",
"205 267 OFFCURVE",
"200 329 OFFCURVE",
"196 381 CURVE",
"198 381 LINE",
"214 334 OFFCURVE",
"234 282 OFFCURVE",
"255 235 CURVE SMOOTH",
"329 73 LINE SMOOTH",
"332 65 OFFCURVE",
"336 63 OFFCURVE",
"341 63 CURVE SMOOTH",
"347 63 LINE SMOOTH",
"354 63 OFFCURVE",
"357 65 OFFCURVE",
"360 73 CURVE SMOOTH",
"434 235 LINE SMOOTH",
"455 282 OFFCURVE",
"475 334 OFFCURVE",
"491 381 CURVE",
"494 381 LINE",
"489 329 OFFCURVE",
"484 267 OFFCURVE",
"485 187 CURVE SMOOTH",
"488 14 LINE SMOOTH",
"488 6 OFFCURVE",
"493 0 OFFCURVE",
"501 0 CURVE SMOOTH",
"645 0 LINE SMOOTH",
"653 0 OFFCURVE",
"659 6 OFFCURVE",
"659 14 CURVE SMOOTH",
"648 641 LINE SMOOTH",
"648 649 OFFCURVE",
"643 655 OFFCURVE",
"635 655 CURVE SMOOTH",
"469 655 LINE SMOOTH",
"462 655 OFFCURVE",
"457 653 OFFCURVE",
"454 644 CURVE SMOOTH",
"345 351 LINE",
"235 644 LINE SMOOTH",
"232 653 OFFCURVE",
"227 655 OFFCURVE",
"219 655 CURVE SMOOTH",
"54 655 LINE SMOOTH",
"46 655 OFFCURVE",
"40 649 OFFCURVE",
"40 641 CURVE SMOOTH",
"30 14 LINE SMOOTH",
"30 6 OFFCURVE",
"35 0 OFFCURVE",
"44 0 CURVE SMOOTH"
);
}
);
width = 689;
}
);
leftKerningGroup = M;
rightKerningGroup = M;
unicode = 004D;
},
{
glyphname = N;
lastChange = "2022-10-27 03:26:45 +0000";
layers = (
{
anchors = (
{
name = bottom;
position = "{255, 0}";
},
{
name = top;
position = "{255, 655}";
}
);
layerId = "315A68D9-B8D0-4E7E-8516-8D4632F47100";
paths = (
{
closed = 1;
nodes = (
"128 0 LINE SMOOTH",
"133 0 OFFCURVE",
"135 4 OFFCURVE",
"135 9 CURVE SMOOTH",
"135 372 LINE SMOOTH",
"135 433 OFFCURVE",
"134 507 OFFCURVE",
"133 568 CURVE",
"135 568 LINE",
"153 510 OFFCURVE",
"173 446 OFFCURVE",
"198 378 CURVE SMOOTH",
"335 6 LINE SMOOTH",
"337 2 OFFCURVE",
"340 0 OFFCURVE",
"344 0 CURVE SMOOTH",
"437 0 LINE SMOOTH",
"442 0 OFFCURVE",
"445 4 OFFCURVE",
"445 9 CURVE SMOOTH",
"445 646 LINE SMOOTH",
"445 652 OFFCURVE",
"442 655 OFFCURVE",
"437 655 CURVE SMOOTH",
"382 655 LINE SMOOTH",
"377 655 OFFCURVE",
"374 652 OFFCURVE",
"374 646 CURVE SMOOTH",
"374 269 LINE SMOOTH",
"374 216 OFFCURVE",
"376 140 OFFCURVE",
"378 87 CURVE",
"376 87 LINE",
"361 137 OFFCURVE",
"340 206 OFFCURVE",
"316 265 CURVE SMOOTH",
"176 649 LINE SMOOTH",
"175 653 OFFCURVE",
"171 655 OFFCURVE",
"167 655 CURVE SMOOTH",
"73.003 655 LINE SMOOTH",
"68 655 OFFCURVE",
"65 651 OFFCURVE",
"65 646 CURVE SMOOTH",
"65 9 LINE SMOOTH",
"65 4 OFFCURVE",
"68 0 OFFCURVE",
"72 0 CURVE SMOOTH"
);
}
);
width = 510;
},
{
anchors = (
{
name = bottom;
position = "{253, 0}";
},
{
name = top;
position = "{254, 655}";
}
);
layerId = "87A71899-7C85-4E95-82CD-7392C73A0331";
paths = (
{
closed = 1;
nodes = (
"94 0 LINE SMOOTH",
"96 0 OFFCURVE",
"97 1 OFFCURVE",
"97 3 CURVE SMOOTH",
"97 373 LINE SMOOTH",
"97 460 OFFCURVE",
"97 547 OFFCURVE",
"97 634 CURVE",
"98 634 LINE",
"140 547 OFFCURVE",
"182 459 OFFCURVE",
"223 372 CURVE SMOOTH",
"401 2 LINE SMOOTH",
"402 0 OFFCURVE",
"403 0 OFFCURVE",
"405 0 CURVE SMOOTH",
"424 0 LINE SMOOTH",
"426 0 OFFCURVE",
"427 1 OFFCURVE",
"427 3 CURVE SMOOTH",
"427 652 LINE SMOOTH",
"427 654 OFFCURVE",
"426 655 OFFCURVE",
"424 655 CURVE SMOOTH",
"414 655 LINE SMOOTH",
"412 655 OFFCURVE",
"411 654 OFFCURVE",
"411 652 CURVE SMOOTH",
"411 268 LINE SMOOTH",
"411 186 OFFCURVE",
"411 104 OFFCURVE",
"411 21 CURVE",
"410 21 LINE",
"371 104 OFFCURVE",
"331 186 OFFCURVE",
"291 269 CURVE SMOOTH",
"107 653 LINE SMOOTH",
"106 655 OFFCURVE",
"105 655 OFFCURVE",
"103 655 CURVE SMOOTH",
"84 655 LINE SMOOTH",
"82 655 OFFCURVE",
"81 654 OFFCURVE",
"81 652 CURVE SMOOTH",
"81 3 LINE SMOOTH",
"81 1 OFFCURVE",
"82 0 OFFCURVE",
"84 0 CURVE SMOOTH"
);
}
);
width = 508;
},
{
anchors = (
{
name = bottom;
position = "{286, 0}";
},
{
name = top;
position = "{286, 655}";
}
);
layerId = "447BF32C-5B1D-49E6-885E-D276D7630B14";
paths = (
{
closed = 1;
nodes = (
"189 0 LINE SMOOTH",
"198 0 OFFCURVE",
"204 6 OFFCURVE",
"204 14 CURVE SMOOTH",
"204 190 LINE SMOOTH",
"204 246 OFFCURVE",
"198 351 OFFCURVE",
"193 406 CURVE",
"196 406 LINE",
"208 360 OFFCURVE",
"225 294 OFFCURVE",
"244 244 CURVE SMOOTH",
"328 10 LINE SMOOTH",
"331 3 OFFCURVE",
"336 0 OFFCURVE",
"343 0 CURVE SMOOTH",
"519 0 LINE SMOOTH",
"528 0 OFFCURVE",
"532 6 OFFCURVE",
"532 14 CURVE SMOOTH",
"532 641 LINE SMOOTH",
"532 649 OFFCURVE",
"528 655 OFFCURVE",
"519 655 CURVE SMOOTH",
"381 655 LINE SMOOTH",
"374 655 OFFCURVE",
"368 649 OFFCURVE",
"368 641 CURVE SMOOTH",
"368 455 LINE SMOOTH",
"368 403 OFFCURVE",
"374 293 OFFCURVE",
"381 241 CURVE",
"378 241 LINE",
"367 285 OFFCURVE",
"344 359 OFFCURVE",
"327 407 CURVE SMOOTH",
"244 645 LINE SMOOTH",
"241 652 OFFCURVE",
"237 655 OFFCURVE",
"229 655 CURVE SMOOTH",
"52 655 LINE SMOOTH",
"45 655 OFFCURVE",
"39 649 OFFCURVE",
"39 641 CURVE SMOOTH",
"39 14 LINE SMOOTH",
"39 6 OFFCURVE",
"45 0 OFFCURVE",
"53 0 CURVE SMOOTH"
);
}
);
width = 571;
}
);
leftKerningGroup = H;
leftMetricsKey = H;
rightKerningGroup = H;
rightMetricsKey = H;
unicode = 004E;
},
{
glyphname = Eng;
lastChange = "2022-10-27 03:26:45 +0000";
layers = (
{
layerId = "315A68D9-B8D0-4E7E-8516-8D4632F47100";
paths = (
{
closed = 1;
nodes = (
"347 -190 OFFCURVE",
"352 -189 OFFCURVE",
"359 -184 CURVE SMOOTH",
"419 -144 OFFCURVE",
"443 -71 OFFCURVE",
"445 40 CURVE SMOOTH",
"445 646 LINE SMOOTH",
"445 652 OFFCURVE",
"442 655 OFFCURVE",
"437 655 CURVE SMOOTH",
"382 655 LINE SMOOTH",
"377 655 OFFCURVE",
"374 652 OFFCURVE",
"374 646 CURVE SMOOTH",
"374 269 LINE SMOOTH",
"374 216 OFFCURVE",
"376 140 OFFCURVE",
"378 87 CURVE",
"376 87 LINE",
"361 137 OFFCURVE",
"340 206 OFFCURVE",
"316 265 CURVE SMOOTH",
"176 649 LINE",
"175 653 OFFCURVE",
"171 655 OFFCURVE",
"167 655 CURVE SMOOTH",
"73.003 655 LINE SMOOTH",
"68 655 OFFCURVE",
"65 651 OFFCURVE",
"65 646 CURVE SMOOTH",
"65 9 LINE SMOOTH",
"65 4 OFFCURVE",
"68 0 OFFCURVE",
"72 0 CURVE SMOOTH",
"128 0 LINE SMOOTH",
"133 0 OFFCURVE",
"135 4 OFFCURVE",
"135 9 CURVE SMOOTH",
"135 372 LINE SMOOTH",
"135 433 OFFCURVE",
"134 507 OFFCURVE",
"133 568 CURVE",
"135 568 LINE",
"153 510 OFFCURVE",
"173 446 OFFCURVE",
"198 378 CURVE SMOOTH",
"335 6 LINE",
"337 2 OFFCURVE",
"340 0 OFFCURVE",
"344 0 CURVE SMOOTH",
"370 0 LINE",
"365 -60 OFFCURVE",
"347 -102 OFFCURVE",
"314 -127 CURVE SMOOTH",
"308 -131 OFFCURVE",
"307 -136 OFFCURVE",
"311 -141 CURVE",
"343 -185 LINE"
);
}
);
width = 510;
},
{
layerId = "87A71899-7C85-4E95-82CD-7392C73A0331";
paths = (
{
closed = 1;
nodes = (
"353 -169 OFFCURVE",
"354 -169 OFFCURVE",
"355 -168 CURVE SMOOTH",
"411 -113 OFFCURVE",
"426 -65 OFFCURVE",
"427 16 CURVE SMOOTH",
"427 652 LINE SMOOTH",
"427 654 OFFCURVE",
"426 655 OFFCURVE",
"424 655 CURVE SMOOTH",
"414 655 LINE SMOOTH",
"412 655 OFFCURVE",
"411 654 OFFCURVE",
"411 652 CURVE SMOOTH",
"411 268 LINE SMOOTH",
"411 186 OFFCURVE",
"411 104 OFFCURVE",
"411 21 CURVE",
"410 21 LINE",
"371 104 OFFCURVE",
"331 186 OFFCURVE",
"291 269 CURVE SMOOTH",
"107 653 LINE",
"106 655 OFFCURVE",
"105 655 OFFCURVE",
"103 655 CURVE SMOOTH",
"84 655 LINE SMOOTH",
"82 655 OFFCURVE",
"81 654 OFFCURVE",
"81 652 CURVE SMOOTH",
"81 3 LINE SMOOTH",
"81 1 OFFCURVE",
"82 0 OFFCURVE",
"84 0 CURVE SMOOTH",
"94 0 LINE SMOOTH",
"96 0 OFFCURVE",
"97 1 OFFCURVE",
"97 3 CURVE SMOOTH",
"97 373 LINE SMOOTH",
"97 460 OFFCURVE",
"97 547 OFFCURVE",
"97 634 CURVE",
"98 634 LINE",
"140 547 OFFCURVE",
"182 459 OFFCURVE",
"223 372 CURVE SMOOTH",
"401 2 LINE",
"402 0 OFFCURVE",
"403 0 OFFCURVE",
"405 0 CURVE SMOOTH",
"410 0 LINE",
"407 -70 OFFCURVE",
"390 -109 OFFCURVE",
"344 -155 CURVE SMOOTH",
"343 -156 OFFCURVE",
"343 -158 OFFCURVE",
"344 -159 CURVE SMOOTH",
"352 -168 LINE SMOOTH"
);
}
);
width = 508;
},
{
layerId = "447BF32C-5B1D-49E6-885E-D276D7630B14";
paths = (
{
closed = 1;
nodes = (
"400 -191 OFFCURVE",
"406 -193 OFFCURVE",
"411 -189 CURVE SMOOTH",
"506 -124 OFFCURVE",
"533 -51 OFFCURVE",
"532 93 CURVE SMOOTH",
"532 641 LINE SMOOTH",
"532 649 OFFCURVE",
"528 655 OFFCURVE",
"519 655 CURVE SMOOTH",
"381 655 LINE SMOOTH",
"374 655 OFFCURVE",
"368 649 OFFCURVE",
"368 641 CURVE SMOOTH",
"368 455 LINE SMOOTH",
"368 403 OFFCURVE",
"374 293 OFFCURVE",
"381 241 CURVE",
"378 241 LINE",
"367 285 OFFCURVE",
"344 359 OFFCURVE",
"327 407 CURVE SMOOTH",
"244 645 LINE",
"241 652 OFFCURVE",
"237 655 OFFCURVE",
"229 655 CURVE SMOOTH",
"52 655 LINE SMOOTH",
"45 655 OFFCURVE",
"39 649 OFFCURVE",
"39 641 CURVE SMOOTH",
"39 14 LINE SMOOTH",
"39 6 OFFCURVE",
"45 0 OFFCURVE",
"53 0 CURVE SMOOTH",
"189 0 LINE SMOOTH",
"198 0 OFFCURVE",
"204 6 OFFCURVE",
"204 14 CURVE SMOOTH",
"204 190 LINE SMOOTH",
"204 246 OFFCURVE",
"198 351 OFFCURVE",
"193 406 CURVE",
"196 406 LINE",
"208 360 OFFCURVE",
"225 294 OFFCURVE",
"244 244 CURVE SMOOTH",
"328 10 LINE",
"331 3 OFFCURVE",
"336 0 OFFCURVE",
"343 0 CURVE SMOOTH",
"357 0 LINE",
"349 -31 OFFCURVE",
"335 -54 OFFCURVE",
"313 -73 CURVE SMOOTH",
"306 -79 OFFCURVE",
"307 -87 OFFCURVE",
"313 -93 CURVE",
"396 -186 LINE"
);
}
);
width = 571;
}
);
leftKerningGroup = H;
leftMetricsKey = H;
rightKerningGroup = H;
rightMetricsKey = H;
unicode = 014A;
},
{
glyphname = O;
lastChange = "2022-10-27 03:26:45 +0000";
layers = (
{
anchors = (
{
name = bottom;
position = "{246, -15}";
},
{
name = center;
position = "{246, 343}";
},
{
name = ogonek;
position = "{442, 10}";
},
{
name = top;
position = "{246, 655}";
},
{
name = topleft;
position = "{46, 655}";
},
{
name = topright;
position = "{475, 655}";
}
);
layerId = "315A68D9-B8D0-4E7E-8516-8D4632F47100";
paths = (
{
closed = 1;
nodes = (
"372 -8 OFFCURVE",
"439 62 OFFCURVE",
"439 196 CURVE SMOOTH",
"439 458 LINE SMOOTH",
"439 593 OFFCURVE",
"372 663 OFFCURVE",
"246 663 CURVE SMOOTH",
"121 663 OFFCURVE",
"54 593 OFFCURVE",
"54 458 CURVE SMOOTH",
"54 196 LINE SMOOTH",
"54 62 OFFCURVE",
"121 -8 OFFCURVE",
"246 -8 CURVE SMOOTH"
);
},
{
closed = 1;
nodes = (
"169 59 OFFCURVE",
"126 104 OFFCURVE",
"126 199 CURVE SMOOTH",
"126 455 LINE SMOOTH",
"126 551 OFFCURVE",
"169 596 OFFCURVE",
"246 596 CURVE SMOOTH",
"324 596 OFFCURVE",
"367 551 OFFCURVE",
"367 455 CURVE SMOOTH",
"367 199 LINE SMOOTH",
"367 104 OFFCURVE",
"324 59 OFFCURVE",
"246 59 CURVE SMOOTH"
);
}
);
width = 493;
},
{
anchors = (
{
name = bottom;
position = "{245, 0}";
},
{
name = center;
position = "{245, 328}";
},
{
name = ogonek;
position = "{441, 10}";
},
{
name = top;
position = "{244, 655}";
},
{
name = topleft;
position = "{20, 655}";
},
{
name = topright;
position = "{469, 655}";
}
);
layerId = "87A71899-7C85-4E95-82CD-7392C73A0331";
paths = (
{
closed = 1;
nodes = (
"358 -8 OFFCURVE",
"421 58 OFFCURVE",
"421 183 CURVE SMOOTH",
"421 472 LINE SMOOTH",
"421 597 OFFCURVE",
"358 663 OFFCURVE",
"244 663 CURVE SMOOTH",
"131 663 OFFCURVE",
"68 597 OFFCURVE",
"68 472 CURVE SMOOTH",
"68 183 LINE SMOOTH",
"68 58 OFFCURVE",
"131 -8 OFFCURVE",
"244 -8 CURVE SMOOTH"
);
},
{
closed = 1;
nodes = (
"141 8 OFFCURVE",
"84 68 OFFCURVE",
"84 184 CURVE SMOOTH",
"84 471 LINE SMOOTH",
"84 587 OFFCURVE",
"141 647 OFFCURVE",
"244 647 CURVE SMOOTH",
"348 647 OFFCURVE",
"405 587 OFFCURVE",
"405 471 CURVE SMOOTH",
"405 184 LINE SMOOTH",
"405 68 OFFCURVE",
"348 8 OFFCURVE",
"244 8 CURVE SMOOTH"
);
}
);
width = 488;
},
{
anchors = (
{
name = bottom;
position = "{280, 352}";
},
{
name = center;
position = "{280, -24}";
},
{
name = ogonek;
position = "{503, 10}";
},
{
name = top;
position = "{280, 655}";
},
{
name = topleft;
position = "{14, 655}";
},
{
name = topright;
position = "{542, 655}";
}
);
layerId = "447BF32C-5B1D-49E6-885E-D276D7630B14";
paths = (
{
closed = 1;
nodes = (
"444 -8 OFFCURVE",
"531 79 OFFCURVE",
"531 244 CURVE SMOOTH",
"531 410 LINE SMOOTH",
"531 576 OFFCURVE",
"444 663 OFFCURVE",
"280 663 CURVE SMOOTH",
"116 663 OFFCURVE",
"30 576 OFFCURVE",
"30 410 CURVE SMOOTH",
"30 244 LINE SMOOTH",
"30 79 OFFCURVE",
"116 -8 OFFCURVE",
"280 -8 CURVE SMOOTH"
);
},
{
closed = 1;
nodes = (
"226 145 OFFCURVE",
"204 177 OFFCURVE",
"204 252 CURVE SMOOTH",
"204 402 LINE SMOOTH",
"204 478 OFFCURVE",
"226 510 OFFCURVE",
"280 510 CURVE SMOOTH",
"335 510 OFFCURVE",
"357 478 OFFCURVE",
"357 402 CURVE SMOOTH",
"357 252 LINE SMOOTH",
"357 177 OFFCURVE",
"335 145 OFFCURVE",
"280 145 CURVE SMOOTH"
);
}
);
width = 561;
}
);
leftKerningGroup = O;
rightKerningGroup = O;
unicode = 004F;
},
{
glyphname = Oslash;
lastChange = "2022-10-27 03:26:45 +0000";
layers = (
{
anchors = (
{
name = top;
position = "{246, 655}";
}
);
components = (
{
alignment = -1;
name = O;
}
);
layerId = "315A68D9-B8D0-4E7E-8516-8D4632F47100";
paths = (
{
closed = 1;
nodes = (
"98 -50 LINE SMOOTH",
"102 -50 OFFCURVE",
"106 -48 OFFCURVE",
"107 -44 CURVE",
"145 34 LINE",
"159 67 LINE",
"373 523 LINE",
"395 575 LINE",
"452 695 LINE",
"454 701 OFFCURVE",
"453 705 OFFCURVE",
"447 705 CURVE SMOOTH",
"395 705 LINE SMOOTH",
"390 705 OFFCURVE",
"388 704 OFFCURVE",
"386 699 CURVE",
"348 620 LINE",
"336 590 LINE",
"121 131 LINE",
"98 81 LINE",
"41 -40 LINE",
"38 -46 OFFCURVE",
"40 -50 OFFCURVE",
"45 -50 CURVE SMOOTH"
);
}
);
width = 493;
},
{
anchors = (
{
name = top;
position = "{244, 655}";
}
);
components = (
{
alignment = -1;
name = O;
}
);
layerId = "87A71899-7C85-4E95-82CD-7392C73A0331";
paths = (
{
closed = 1;
nodes = (
"67 -48 LINE SMOOTH",
"68 -48 OFFCURVE",
"69 -48 OFFCURVE",
"70 -46 CURVE SMOOTH",
"117 46 LINE",
"120 53 LINE",
"380 591 LINE",
"383 597 LINE",
"433 699 LINE SMOOTH",
"434 702 OFFCURVE",
"434 703 OFFCURVE",
"432 703 CURVE SMOOTH",
"420 703 LINE SMOOTH",
"419 703 OFFCURVE",
"418 703 OFFCURVE",
"417 701 CURVE SMOOTH",
"371 607 LINE",
"368 601 LINE",
"109 67 LINE",
"105 60 LINE",
"55 -44 LINE SMOOTH",
"54 -47 OFFCURVE",
"55 -48 OFFCURVE",
"57 -48 CURVE SMOOTH"
);
}
);
width = 488;
},
{
anchors = (
{
name = top;
position = "{277, 655}";
}
);
components = (
{
alignment = -1;
name = O;
}
);
layerId = "447BF32C-5B1D-49E6-885E-D276D7630B14";
paths = (
{
closed = 1;
nodes = (
"175 -50 LINE SMOOTH",
"181 -50 OFFCURVE",
"186 -49 OFFCURVE",
"189 -41 CURVE",
"219 30 LINE",
"245 125 LINE",
"387 458 LINE",
"454 569 LINE",
"505 688 LINE",
"508 698 OFFCURVE",
"506 705 OFFCURVE",
"496 705 CURVE SMOOTH",
"389 705 LINE SMOOTH",
"381 705 OFFCURVE",
"377 703 OFFCURVE",
"373 695 CURVE",
"346 628 LINE",
"321 534 LINE",
"180 211 LINE",
"110 90 LINE",
"57 -32 LINE",
"52 -43 OFFCURVE",
"58 -50 OFFCURVE",
"68 -50 CURVE SMOOTH"
);
}
);
width = 561;
}
);
leftKerningGroup = O;
rightKerningGroup = O;
unicode = 00D8;
},
{
glyphname = OE;
lastChange = "2022-10-27 03:26:45 +0000";
layers = (
{
layerId = "315A68D9-B8D0-4E7E-8516-8D4632F47100";
paths = (
{
closed = 1;
nodes = (
"273 -8 OFFCURVE",
"303 -5 OFFCURVE",
"323 0 CURVE",
"606 0 LINE SMOOTH",
"611 0 OFFCURVE",
"614 4 OFFCURVE",
"614 9 CURVE SMOOTH",
"614 58 LINE SMOOTH",
"614 64 OFFCURVE",
"611 68 OFFCURVE",
"606 68 CURVE SMOOTH",
"393 68 LINE",
"393 301 LINE",
"588 301 LINE SMOOTH",
"593 301 OFFCURVE",
"596 305 OFFCURVE",
"596 310 CURVE SMOOTH",
"596 357 LINE SMOOTH",
"596 362 OFFCURVE",
"593 366 OFFCURVE",
"588 366 CURVE SMOOTH",
"393 366 LINE",
"393 587 LINE",
"606 587 LINE SMOOTH",
"611 587 OFFCURVE",
"614 591 OFFCURVE",
"614 597 CURVE SMOOTH",
"614 646 LINE SMOOTH",
"614 651 OFFCURVE",
"611 655 OFFCURVE",
"606 655 CURVE SMOOTH",
"323 655 LINE",
"302 660 OFFCURVE",
"273 663 OFFCURVE",
"246 663 CURVE SMOOTH",
"121 663 OFFCURVE",
"54 593 OFFCURVE",
"54 458 CURVE SMOOTH",
"54 196 LINE SMOOTH",
"54 62 OFFCURVE",
"121 -8 OFFCURVE",
"246 -8 CURVE SMOOTH"
);
},
{
closed = 1;
nodes = (
"169 59 OFFCURVE",
"126 105 OFFCURVE",
"126 198 CURVE SMOOTH",
"126 456 LINE SMOOTH",
"126 550 OFFCURVE",
"169 596 OFFCURVE",
"246 596 CURVE SMOOTH",
"275 596 OFFCURVE",
"300 594 OFFCURVE",
"321 590 CURVE",
"321 67 LINE",
"302 62 OFFCURVE",
"275 59 OFFCURVE",
"246 59 CURVE SMOOTH"
);
}
);
width = 668;
},
{
layerId = "87A71899-7C85-4E95-82CD-7392C73A0331";
paths = (
{
closed = 1;
nodes = (
"277 -8 OFFCURVE",
"306 -4 OFFCURVE",
"329 0 CURVE",
"593 0 LINE SMOOTH",
"594 0 OFFCURVE",
"595 1 OFFCURVE",
"595 3 CURVE SMOOTH",
"595 13 LINE SMOOTH",
"595 15 OFFCURVE",
"594 16 OFFCURVE",
"593 16 CURVE SMOOTH",
"344 16 LINE",
"344 328 LINE",
"576 328 LINE SMOOTH",
"578 328 OFFCURVE",
"579 329 OFFCURVE",
"579 331 CURVE SMOOTH",
"579 341 LINE SMOOTH",
"579 343 OFFCURVE",
"578 344 OFFCURVE",
"576 344 CURVE SMOOTH",
"344 344 LINE",
"344 639 LINE",
"593 639 LINE SMOOTH",
"594 639 OFFCURVE",
"595 640 OFFCURVE",
"595 642 CURVE SMOOTH",
"595 652 LINE SMOOTH",
"595 654 OFFCURVE",
"594 655 OFFCURVE",
"593 655 CURVE SMOOTH",
"328 655 LINE",
"303 660 OFFCURVE",
"277 663 OFFCURVE",
"244 663 CURVE SMOOTH",
"131 663 OFFCURVE",
"68 597 OFFCURVE",
"68 472 CURVE SMOOTH",
"68 183 LINE SMOOTH",
"68 58 OFFCURVE",
"131 -8 OFFCURVE",
"244 -8 CURVE SMOOTH"
);
},
{
closed = 1;
nodes = (
"141 8 OFFCURVE",
"84 68 OFFCURVE",
"84 184 CURVE SMOOTH",
"84 471 LINE SMOOTH",
"84 587 OFFCURVE",
"141 647 OFFCURVE",
"244 647 CURVE SMOOTH",
"276 647 OFFCURVE",
"305 644 OFFCURVE",
"328 639 CURVE",
"328 16 LINE",
"305 11 OFFCURVE",
"275 8 OFFCURVE",
"244 8 CURVE SMOOTH"
);
}
);
width = 659;
},
{
layerId = "447BF32C-5B1D-49E6-885E-D276D7630B14";
paths = (
{
closed = 1;
nodes = (
"306 -8 OFFCURVE",
"335 -5 OFFCURVE",
"358 0 CURVE",
"713 0 LINE SMOOTH",
"720 0 OFFCURVE",
"725 6 OFFCURVE",
"725 14 CURVE SMOOTH",
"725 138 LINE SMOOTH",
"725 146 OFFCURVE",
"720 152 OFFCURVE",
"713 152 CURVE SMOOTH",
"503 152 LINE",
"503 257 LINE",
"693 257 LINE SMOOTH",
"700 257 OFFCURVE",
"706 263 OFFCURVE",
"706 272 CURVE SMOOTH",
"706 387 LINE SMOOTH",
"706 395 OFFCURVE",
"700 401 OFFCURVE",
"693 401 CURVE SMOOTH",
"503 401 LINE",
"503 503 LINE",
"713 503 LINE SMOOTH",
"720 503 OFFCURVE",
"725 509 OFFCURVE",
"725 517 CURVE SMOOTH",
"725 641 LINE SMOOTH",
"725 649 OFFCURVE",
"720 655 OFFCURVE",
"713 655 CURVE SMOOTH",
"357 655 LINE",
"335 660 OFFCURVE",
"305 663 OFFCURVE",
"280 663 CURVE SMOOTH",
"115 663 OFFCURVE",
"30 576 OFFCURVE",
"30 410 CURVE SMOOTH",
"30 244 LINE SMOOTH",
"30 79 OFFCURVE",
"114 -8 OFFCURVE",
"279 -8 CURVE SMOOTH"
);
},
{
closed = 1;
nodes = (
"226 145 OFFCURVE",
"204 176 OFFCURVE",
"204 251 CURVE SMOOTH",
"204 403 LINE SMOOTH",
"204 479 OFFCURVE",
"226 510 OFFCURVE",
"281 510 CURVE SMOOTH",
"300 510 OFFCURVE",
"318 507 OFFCURVE",
"329 499 CURVE",
"329 155 LINE",
"317 148 OFFCURVE",
"302 145 OFFCURVE",
"281 145 CURVE SMOOTH"
);
}
);
width = 757;
}
);
leftKerningGroup = O;
leftMetricsKey = O;
rightKerningGroup = E;
rightMetricsKey = E;
unicode = 0152;
},
{
glyphname = P;
lastChange = "2022-10-27 03:26:45 +0000";
layers = (
{
anchors = (
{
name = bottom;
position = "{211, 0}";
},
{
name = top;
position = "{211, 655}";
}
);
layerId = "315A68D9-B8D0-4E7E-8516-8D4632F47100";
paths = (
{
closed = 1;
nodes = (
"129 0 LINE SMOOTH",
"134 0 OFFCURVE",
"137 4 OFFCURVE",
"137 9 CURVE SMOOTH",
"137 251 LINE",
"200 251 LINE SMOOTH",
"326 251 OFFCURVE",
"391 322 OFFCURVE",
"391 453 CURVE SMOOTH",
"391 589 OFFCURVE",
"328 655 OFFCURVE",
"197 655 CURVE SMOOTH",
"73.003 655 LINE SMOOTH",
"68 655 OFFCURVE",
"65 651 OFFCURVE",
"65 646 CURVE SMOOTH",
"65 9 LINE SMOOTH",
"65 4 OFFCURVE",
"68 0 OFFCURVE",
"73.003 0 CURVE SMOOTH"
);
},
{
closed = 1;
nodes = (
"137 590 LINE",
"198 590 LINE SMOOTH",
"280 590 OFFCURVE",
"319 549 OFFCURVE",
"319 450 CURVE SMOOTH",
"319 359 OFFCURVE",
"282 317 OFFCURVE",
"196 317 CURVE SMOOTH",
"137 317 LINE"
);
}
);
width = 422;
},
{
anchors = (
{
name = bottom;
position = "{210, 0}";
},
{
name = top;
position = "{210, 655}";
}
);
layerId = "87A71899-7C85-4E95-82CD-7392C73A0331";
paths = (
{
closed = 1;
nodes = (
"94 0 LINE SMOOTH",
"96 0 OFFCURVE",
"97 1 OFFCURVE",
"97 3 CURVE SMOOTH",
"97 277 LINE",
"187 277 LINE SMOOTH",
"319 277 OFFCURVE",
"372 341 OFFCURVE",
"372 465 CURVE SMOOTH",
"372 601 OFFCURVE",
"306 655 OFFCURVE",
"188 655 CURVE SMOOTH",
"84 655 LINE SMOOTH",
"82 655 OFFCURVE",
"81 654 OFFCURVE",
"81 652 CURVE SMOOTH",
"81 3 LINE SMOOTH",
"81 1 OFFCURVE",
"82 0 OFFCURVE",
"84 0 CURVE SMOOTH"
);
},
{
closed = 1;
nodes = (
"97 639 LINE",
"190 639 LINE SMOOTH",
"297 639 OFFCURVE",
"356 588 OFFCURVE",
"356 465 CURVE SMOOTH",
"356 355 OFFCURVE",
"313 293 OFFCURVE",
"187 293 CURVE SMOOTH",
"97 293 LINE"
);
}
);
width = 414;
},
{
anchors = (
{
name = bottom;
position = "{241, 0}";
},
{
name = top;
position = "{241, 655}";
}
);
layerId = "447BF32C-5B1D-49E6-885E-D276D7630B14";
paths = (
{
closed = 1;
nodes = (
"200 0 LINE SMOOTH",
"208 0 OFFCURVE",
"213 6 OFFCURVE",
"213 14 CURVE SMOOTH",
"213 202 LINE",
"241 202 LINE SMOOTH",
"395 202 OFFCURVE",
"475 282 OFFCURVE",
"475 427 CURVE SMOOTH",
"475 579 OFFCURVE",
"403 655 OFFCURVE",
"239 655 CURVE SMOOTH",
"52 655 LINE SMOOTH",
"45 655 OFFCURVE",
"39 649 OFFCURVE",
"39 641 CURVE SMOOTH",
"39 14 LINE SMOOTH",
"39 6 OFFCURVE",
"45 0 OFFCURVE",
"52 0 CURVE SMOOTH"
);
},
{
closed = 1;
nodes = (
"213 503 LINE",
"239 503 LINE SMOOTH",
"282 503 OFFCURVE",
"301 481 OFFCURVE",
"301 427 CURVE SMOOTH",
"301 376 OFFCURVE",
"279 353 OFFCURVE",
"239 353 CURVE SMOOTH",
"213 353 LINE"
);
}
);
width = 497;
}
);
leftKerningGroup = H;
leftMetricsKey = H;
rightKerningGroup = P;
unicode = 0050;
},
{
glyphname = Thorn;
lastChange = "2022-10-27 03:26:45 +0000";
layers = (
{
layerId = "315A68D9-B8D0-4E7E-8516-8D4632F47100";
paths = (
{
closed = 1;
nodes = (
"129 0 LINE SMOOTH",
"134 0 OFFCURVE",
"137 4 OFFCURVE",
"137 9 CURVE SMOOTH",
"137 138 LINE",
"200 138 LINE SMOOTH",
"326 138 OFFCURVE",
"391 208 OFFCURVE",
"391 340 CURVE SMOOTH",
"391 476 OFFCURVE",
"328 542 OFFCURVE",
"197 542 CURVE SMOOTH",
"137 542 LINE",
"137 646 LINE SMOOTH",
"137 651 OFFCURVE",
"134 655 OFFCURVE",
"129 655 CURVE SMOOTH",
"73.003 655 LINE SMOOTH",
"68 655 OFFCURVE",
"65 651 OFFCURVE",
"65 646 CURVE SMOOTH",
"65 9 LINE SMOOTH",
"65 4 OFFCURVE",
"69 0 OFFCURVE",
"73.003 0 CURVE SMOOTH"
);
},
{
closed = 1;
nodes = (
"137 476 LINE",
"198 476 LINE SMOOTH",
"280 476 OFFCURVE",
"319 436 OFFCURVE",
"319 337 CURVE SMOOTH",
"319 246 OFFCURVE",
"282 204 OFFCURVE",
"196 204 CURVE SMOOTH",
"137 204 LINE"
);
}
);
width = 422;
},
{
layerId = "87A71899-7C85-4E95-82CD-7392C73A0331";
paths = (
{
closed = 1;
nodes = (
"94 0 LINE SMOOTH",
"96 0 OFFCURVE",
"97 1 OFFCURVE",
"97 3 CURVE SMOOTH",
"97 150 LINE",
"187 150 LINE SMOOTH",
"319 150 OFFCURVE",
"372 214 OFFCURVE",
"372 338 CURVE SMOOTH",
"372 474 OFFCURVE",
"306 528 OFFCURVE",
"188 528 CURVE SMOOTH",
"97 528 LINE",
"97 652 LINE SMOOTH",
"97 654 OFFCURVE",
"96 655 OFFCURVE",
"94 655 CURVE SMOOTH",
"84 655 LINE SMOOTH",
"82 655 OFFCURVE",
"81 654 OFFCURVE",
"81 652 CURVE SMOOTH",
"81 3 LINE SMOOTH",
"81 1 OFFCURVE",
"82 0 OFFCURVE",
"84 0 CURVE SMOOTH"
);
},
{
closed = 1;
nodes = (
"97 512 LINE",
"190 512 LINE SMOOTH",
"297 512 OFFCURVE",
"356 461 OFFCURVE",
"356 338 CURVE SMOOTH",
"356 228 OFFCURVE",
"313 166 OFFCURVE",
"187 166 CURVE SMOOTH",
"97 166 LINE"
);
}
);
width = 414;
},
{
layerId = "447BF32C-5B1D-49E6-885E-D276D7630B14";
paths = (
{
closed = 1;
nodes = (
"200 0 LINE SMOOTH",
"208 0 OFFCURVE",
"213 6 OFFCURVE",
"213 14 CURVE SMOOTH",
"213 112 LINE",
"241 112 LINE SMOOTH",
"395 112 OFFCURVE",
"475 192 OFFCURVE",
"475 337 CURVE SMOOTH",
"475 489 OFFCURVE",
"403 565 OFFCURVE",
"239 565 CURVE SMOOTH",
"213 565 LINE",
"213 641 LINE SMOOTH",
"213 649 OFFCURVE",
"208 655 OFFCURVE",
"200 655 CURVE SMOOTH",
"52 655 LINE SMOOTH",
"45 655 OFFCURVE",
"39 649 OFFCURVE",
"39 641 CURVE SMOOTH",
"39 14 LINE SMOOTH",
"39 6 OFFCURVE",
"45 0 OFFCURVE",
"52 0 CURVE SMOOTH"
);
},
{
closed = 1;
nodes = (
"213 413 LINE",
"239 413 LINE SMOOTH",
"282 413 OFFCURVE",
"301 391 OFFCURVE",
"301 337 CURVE SMOOTH",
"301 286 OFFCURVE",
"279 263 OFFCURVE",
"239 263 CURVE SMOOTH",
"213 263 LINE"
);
}
);
width = 497;
}
);
leftKerningGroup = H;
leftMetricsKey = H;
rightKerningGroup = Thorn;
rightMetricsKey = P;
unicode = 00DE;
},
{
glyphname = Q;
lastChange = "2022-10-27 03:26:45 +0000";
layers = (
{
anchors = (
{
name = bottom;
position = "{243, 0}";
},
{
name = top;
position = "{243, 655}";
}
);
components = (
{
alignment = -1;
name = O;
}
);
layerId = "315A68D9-B8D0-4E7E-8516-8D4632F47100";
paths = (
{
closed = 1;
nodes = (
"354 -181 OFFCURVE",
"368 -178 OFFCURVE",
"377 -175 CURVE SMOOTH",
"384 -172 OFFCURVE",
"385 -168 OFFCURVE",
"385 -163 CURVE SMOOTH",
"385 -116 LINE SMOOTH",
"385 -110 OFFCURVE",
"383 -107 OFFCURVE",
"377 -108 CURVE SMOOTH",
"369 -110 OFFCURVE",
"361 -112 OFFCURVE",
"352 -112 CURVE SMOOTH",
"319 -112 OFFCURVE",
"303 -83 OFFCURVE",
"305 25 CURVE SMOOTH",
"305 31 OFFCURVE",
"302 35 OFFCURVE",
"298 35 CURVE SMOOTH",
"243 34 LINE SMOOTH",
"239 34 OFFCURVE",
"234 31 OFFCURVE",
"234 26 CURVE SMOOTH",
"231 -127 OFFCURVE",
"271 -181 OFFCURVE",
"339 -181 CURVE SMOOTH"
);
}
);
width = 493;
},
{
anchors = (
{
name = bottom;
position = "{241, 0}";
},
{
name = top;
position = "{241, 655}";
}
);
components = (
{
alignment = -1;
name = O;
}
);
layerId = "87A71899-7C85-4E95-82CD-7392C73A0331";
paths = (
{
closed = 1;
nodes = (
"347 -172 OFFCURVE",
"358 -170 OFFCURVE",
"367 -166 CURVE SMOOTH",
"369 -165 OFFCURVE",
"370 -164 OFFCURVE",
"370 -162 CURVE SMOOTH",
"370 -152 LINE SMOOTH",
"370 -149 OFFCURVE",
"369 -148 OFFCURVE",
"367 -149 CURVE SMOOTH",
"358 -154 OFFCURVE",
"349 -156 OFFCURVE",
"336 -156 CURVE SMOOTH",
"294 -156 OFFCURVE",
"272 -92 OFFCURVE",
"276 -3 CURVE SMOOTH",
"276 -1 OFFCURVE",
"276 0 OFFCURVE",
"274 0 CURVE SMOOTH",
"263 0 LINE SMOOTH",
"262 0 OFFCURVE",
"261 -1 OFFCURVE",
"261 -3 CURVE SMOOTH",
"258 -102 OFFCURVE",
"279 -172 OFFCURVE",
"336 -172 CURVE SMOOTH"
);
}
);
width = 488;
},
{
anchors = (
{
name = bottom;
position = "{277, 0}";
},
{
name = top;
position = "{277, 655}";
}
);
components = (
{
alignment = -1;
name = O;
}
);
layerId = "447BF32C-5B1D-49E6-885E-D276D7630B14";
paths = (
{
closed = 1;
nodes = (
"434 -185 OFFCURVE",
"458 -177 OFFCURVE",
"473 -170 CURVE SMOOTH",
"480 -165 OFFCURVE",
"481 -160 OFFCURVE",
"481 -151 CURVE SMOOTH",
"481 -65 LINE SMOOTH",
"481 -56 OFFCURVE",
"477 -50 OFFCURVE",
"467 -53 CURVE SMOOTH",
"458 -56 OFFCURVE",
"448 -59 OFFCURVE",
"433 -59 CURVE SMOOTH",
"403 -59 OFFCURVE",
"392 -34 OFFCURVE",
"391 44 CURVE SMOOTH",
"391 54 OFFCURVE",
"385 59 OFFCURVE",
"378 59 CURVE SMOOTH",
"265 58 LINE SMOOTH",
"257 58 OFFCURVE",
"252 53 OFFCURVE",
"252 44 CURVE SMOOTH",
"250 -113 OFFCURVE",
"298 -185 OFFCURVE",
"398 -185 CURVE SMOOTH"
);
}
);
width = 561;
}
);
leftKerningGroup = O;
leftMetricsKey = O;
rightKerningGroup = O;
rightMetricsKey = O;
unicode = 0051;
},
{
glyphname = R;
lastChange = "2022-10-27 03:26:45 +0000";
layers = (
{
anchors = (
{
name = bottom;
position = "{235, 0}";
},
{
name = top;
position = "{210, 655}";
}
);
layerId = "315A68D9-B8D0-4E7E-8516-8D4632F47100";
paths = (
{
closed = 1;
nodes = (
"129 0 LINE SMOOTH",
"134 0 OFFCURVE",
"137 4 OFFCURVE",
"137 9 CURVE SMOOTH",
"137 283 LINE",
"229 283 LINE",
"352 6 LINE",
"354 2 OFFCURVE",
"357 0 OFFCURVE",
"361 0 CURVE SMOOTH",
"424 0 LINE SMOOTH",
"431 0 OFFCURVE",
"433 5 OFFCURVE",
"430 11 CURVE",
"303 295 LINE",
"303 296 LINE",
"366 318 OFFCURVE",
"404 378 OFFCURVE",
"404 476 CURVE SMOOTH",
"404 596 OFFCURVE",
"343 655 OFFCURVE",
"215 655 CURVE SMOOTH",
"73.003 655 LINE SMOOTH",
"68 655 OFFCURVE",
"65 651 OFFCURVE",
"65 646 CURVE SMOOTH",
"65 9 LINE SMOOTH",
"65 4 OFFCURVE",
"68 0 OFFCURVE",
"73.003 0 CURVE SMOOTH"
);
},
{
closed = 1;
nodes = (
"137 589 LINE",
"214 589 LINE SMOOTH",
"296 589 OFFCURVE",
"332 557 OFFCURVE",
"332 471 CURVE SMOOTH",
"332 385 OFFCURVE",
"297 346 OFFCURVE",
"213 346 CURVE SMOOTH",
"137 346 LINE"
);
}
);
width = 462;
},
{
anchors = (
{
name = bottom;
position = "{227, 0}";
},
{
name = top;
position = "{207, 655}";
}
);
layerId = "87A71899-7C85-4E95-82CD-7392C73A0331";
paths = (
{
closed = 1;
nodes = (
"94 0 LINE SMOOTH",
"96 0 OFFCURVE",
"97 1 OFFCURVE",
"97 3 CURVE SMOOTH",
"97 303 LINE",
"244 303 LINE",
"386 2 LINE SMOOTH",
"387 0 OFFCURVE",
"388 0 OFFCURVE",
"389 0 CURVE SMOOTH",
"402 0 LINE SMOOTH",
"404 0 OFFCURVE",
"405 2 OFFCURVE",
"404 4 CURVE SMOOTH",
"262 306 LINE",
"262 307 LINE",
"340 322 OFFCURVE",
"382 384 OFFCURVE",
"382 479 CURVE SMOOTH",
"382 602 OFFCURVE",
"321 655 OFFCURVE",
"215 655 CURVE SMOOTH",
"84 655 LINE SMOOTH",
"82 655 OFFCURVE",
"81 654 OFFCURVE",
"81 652 CURVE SMOOTH",
"81 3 LINE SMOOTH",
"81 1 OFFCURVE",
"82 0 OFFCURVE",
"84 0 CURVE SMOOTH"
);
},
{
closed = 1;
nodes = (
"97 639 LINE",
"216 639 LINE SMOOTH",
"312 639 OFFCURVE",
"366 589 OFFCURVE",
"366 479 CURVE SMOOTH",
"366 380 OFFCURVE",
"321 319 OFFCURVE",
"218 319 CURVE SMOOTH",
"97 319 LINE"
);
}
);
width = 448;
},
{
anchors = (
{
name = bottom;
position = "{277, 0}";
},
{
name = top;
position = "{239, 655}";
}
);
layerId = "447BF32C-5B1D-49E6-885E-D276D7630B14";
paths = (
{
closed = 1;
nodes = (
"200 0 LINE SMOOTH",
"208 0 OFFCURVE",
"213 6 OFFCURVE",
"213 14 CURVE SMOOTH",
"213 235 LINE",
"239 235 LINE",
"338 10 LINE",
"341 3 OFFCURVE",
"347 0 OFFCURVE",
"354 0 CURVE SMOOTH",
"517 0 LINE SMOOTH",
"527 0 OFFCURVE",
"530 7 OFFCURVE",
"526 18 CURVE",
"403 263 LINE",
"403 265 LINE",
"468 293 OFFCURVE",
"495 354 OFFCURVE",
"495 445 CURVE SMOOTH",
"495 588 OFFCURVE",
"422 655 OFFCURVE",
"254 655 CURVE SMOOTH",
"52 655 LINE SMOOTH",
"45 655 OFFCURVE",
"39 649 OFFCURVE",
"39 641 CURVE SMOOTH",
"39 14 LINE SMOOTH",
"39 6 OFFCURVE",
"45 0 OFFCURVE",
"52 0 CURVE SMOOTH"
);
},
{
closed = 1;
nodes = (
"213 504 LINE",
"256 504 LINE SMOOTH",
"301 504 OFFCURVE",
"321 484 OFFCURVE",
"321 440 CURVE SMOOTH",
"321 395 OFFCURVE",
"299 375 OFFCURVE",
"254 375 CURVE SMOOTH",
"213 375 LINE"
);
}
);
width = 535;
}
);
leftKerningGroup = H;
leftMetricsKey = H;
rightKerningGroup = R;
unicode = 0052;
},
{
glyphname = S;
lastChange = "2022-10-27 03:26:45 +0000";
layers = (
{
anchors = (
{
name = bottom;
position = "{217, 0}";
},
{
name = top;
position = "{214, 655}";
}
);
layerId = "315A68D9-B8D0-4E7E-8516-8D4632F47100";
paths = (
{
closed = 1;
nodes = (
"334 -8 OFFCURVE",
"390 55 OFFCURVE",
"390 160 CURVE SMOOTH",
"390 245 OFFCURVE",
"362 292 OFFCURVE",
"291 334 CURVE SMOOTH",
"188 395 LINE SMOOTH",
"136 426 OFFCURVE",
"116 456 OFFCURVE",
"117 509 CURVE SMOOTH",
"118 568 OFFCURVE",
"151 596 OFFCURVE",
"210 596 CURVE SMOOTH",
"278 596 OFFCURVE",
"315 556 OFFCURVE",
"308 483 CURVE SMOOTH",
"307 473 OFFCURVE",
"310 469 OFFCURVE",
"315 469 CURVE SMOOTH",
"371 469 LINE SMOOTH",
"376 469 OFFCURVE",
"378 474 OFFCURVE",
"379 483 CURVE SMOOTH",
"390 596 OFFCURVE",
"326 663 OFFCURVE",
"210 663 CURVE SMOOTH",
"105 663 OFFCURVE",
"46 607 OFFCURVE",
"45 506 CURVE SMOOTH",
"44 429 OFFCURVE",
"74 379 OFFCURVE",
"143 337 CURVE SMOOTH",
"249 275 LINE SMOOTH",
"300 245 OFFCURVE",
"318 214 OFFCURVE",
"318 158 CURVE SMOOTH",
"318 90 OFFCURVE",
"284 58 OFFCURVE",
"214 58 CURVE SMOOTH",
"140 58 OFFCURVE",
"104 95 OFFCURVE",
"110 177 CURVE SMOOTH",
"110 185 OFFCURVE",
"108 190 OFFCURVE",
"101 190 CURVE SMOOTH",
"47 190 LINE SMOOTH",
"41 190 OFFCURVE",
"39 187 OFFCURVE",
"38 177 CURVE SMOOTH",
"29 69 OFFCURVE",
"81 -8 OFFCURVE",
"210 -8 CURVE SMOOTH"
);
}
);
width = 428;
},
{
anchors = (
{
name = bottom;
position = "{205, 0}";
},
{
name = top;
position = "{207, 655}";
}
);
layerId = "87A71899-7C85-4E95-82CD-7392C73A0331";
paths = (
{
closed = 1;
nodes = (
"319 -8 OFFCURVE",
"366 38 OFFCURVE",
"366 142 CURVE SMOOTH",
"366 236 OFFCURVE",
"338 273 OFFCURVE",
"252 325 CURVE SMOOTH",
"165 377 LINE SMOOTH",
"98 417 OFFCURVE",
"73 452 OFFCURVE",
"73 527 CURVE SMOOTH",
"73 606 OFFCURVE",
"124 647 OFFCURVE",
"207 647 CURVE SMOOTH",
"301 647 OFFCURVE",
"345 594 OFFCURVE",
"343 492 CURVE SMOOTH",
"343 490 OFFCURVE",
"343 489 OFFCURVE",
"345 489 CURVE SMOOTH",
"357 489 LINE SMOOTH",
"358 489 OFFCURVE",
"359 490 OFFCURVE",
"359 492 CURVE SMOOTH",
"362 605 OFFCURVE",
"313 663 OFFCURVE",
"206 663 CURVE SMOOTH",
"114 663 OFFCURVE",
"57 615 OFFCURVE",
"57 527 CURVE SMOOTH",
"57 445 OFFCURVE",
"84 406 OFFCURVE",
"157 363 CURVE SMOOTH",
"242 312 LINE SMOOTH",
"321 266 OFFCURVE",
"350 230 OFFCURVE",
"350 142 CURVE SMOOTH",
"350 47 OFFCURVE",
"309 8 OFFCURVE",
"205 8 CURVE SMOOTH",
"102 8 OFFCURVE",
"60 58 OFFCURVE",
"63 167 CURVE SMOOTH",
"63 169 OFFCURVE",
"62 170 OFFCURVE",
"60 170 CURVE SMOOTH",
"50 170 LINE SMOOTH",
"48 170 OFFCURVE",
"47 169 OFFCURVE",
"47 167 CURVE SMOOTH",
"45 47 OFFCURVE",
"92 -8 OFFCURVE",
"205 -8 CURVE SMOOTH"
);
}
);
width = 418;
},
{
anchors = (
{
name = bottom;
position = "{248, 0}";
},
{
name = top;
position = "{238, 655}";
}
);
layerId = "447BF32C-5B1D-49E6-885E-D276D7630B14";
paths = (
{
closed = 1;
nodes = (
"395 -8 OFFCURVE",
"462 54 OFFCURVE",
"462 175 CURVE SMOOTH",
"463 266 OFFCURVE",
"435 311 OFFCURVE",
"349 364 CURVE SMOOTH",
"240 428 LINE SMOOTH",
"213 443 OFFCURVE",
"198 457 OFFCURVE",
"198 482 CURVE SMOOTH",
"198 507 OFFCURVE",
"211 518 OFFCURVE",
"239 518 CURVE SMOOTH",
"270 518 OFFCURVE",
"283 490 OFFCURVE",
"280 463 CURVE SMOOTH",
"279 452 OFFCURVE",
"284 445 OFFCURVE",
"292 445 CURVE SMOOTH",
"438 445 LINE SMOOTH",
"446 445 OFFCURVE",
"451 451 OFFCURVE",
"452 463 CURVE SMOOTH",
"463 594 OFFCURVE",
"389 663 OFFCURVE",
"232 663 CURVE SMOOTH",
"92 663 OFFCURVE",
"25 600 OFFCURVE",
"24 486 CURVE SMOOTH",
"23 399 OFFCURVE",
"55 349 OFFCURVE",
"139 298 CURVE SMOOTH",
"248 232 LINE SMOOTH",
"277 216 OFFCURVE",
"289 198 OFFCURVE",
"289 178 CURVE SMOOTH",
"289 150 OFFCURVE",
"274 138 OFFCURVE",
"240 138 CURVE SMOOTH",
"205 138 OFFCURVE",
"190 164 OFFCURVE",
"192 200 CURVE SMOOTH",
"193 210 OFFCURVE",
"189 215 OFFCURVE",
"181 215 CURVE SMOOTH",
"37 215 LINE SMOOTH",
"29 215 OFFCURVE",
"24 210 OFFCURVE",
"23 199 CURVE SMOOTH",
"10 62 OFFCURVE",
"77 -8 OFFCURVE",
"237 -8 CURVE SMOOTH"
);
}
);
width = 487;
}
);
leftKerningGroup = S;
rightKerningGroup = S;
unicode = 0053;
},
{
glyphname = Germandbls;
lastChange = "2022-10-27 03:26:45 +0000";
layers = (
{
layerId = "315A68D9-B8D0-4E7E-8516-8D4632F47100";
paths = (
{
closed = 1;
nodes = (
"417 -8 OFFCURVE",
"468 58 OFFCURVE",
"468 196 CURVE SMOOTH",
"468 321 OFFCURVE",
"420 383 OFFCURVE",
"321 391 CURVE",
"431 633 LINE SMOOTH",
"436 644 OFFCURVE",
"434 655 OFFCURVE",
"426 655 CURVE SMOOTH",
"72 655 LINE SMOOTH",
"68 655 OFFCURVE",
"65 651 OFFCURVE",
"65 646 CURVE SMOOTH",
"65 9 LINE SMOOTH",
"65 4 OFFCURVE",
"68 0 OFFCURVE",
"72 0 CURVE SMOOTH",
"129 0 LINE SMOOTH",
"134 0 OFFCURVE",
"137 4 OFFCURVE",
"137 9 CURVE SMOOTH",
"137 587 LINE",
"330 587 LINE",
"242 386 LINE",
"240 380 OFFCURVE",
"239 377 OFFCURVE",
"239 373 CURVE SMOOTH",
"239 340 LINE SMOOTH",
"239 334 OFFCURVE",
"242 332 OFFCURVE",
"247 332 CURVE SMOOTH",
"279 332 LINE SMOOTH",
"362 332 OFFCURVE",
"396 292 OFFCURVE",
"396 194 CURVE SMOOTH",
"396 97 OFFCURVE",
"371 58 OFFCURVE",
"314 58 CURVE SMOOTH",
"270 58 OFFCURVE",
"249 81 OFFCURVE",
"251 127 CURVE SMOOTH",
"251 136 OFFCURVE",
"248 139 OFFCURVE",
"242 139 CURVE SMOOTH",
"190 139 LINE SMOOTH",
"184 139 OFFCURVE",
"182 137 OFFCURVE",
"181 127 CURVE SMOOTH",
"176 42 OFFCURVE",
"224 -8 OFFCURVE",
"313 -8 CURVE SMOOTH"
);
}
);
width = 500;
},
{
layerId = "87A71899-7C85-4E95-82CD-7392C73A0331";
paths = (
{
closed = 1;
nodes = (
"399 -8 OFFCURVE",
"446 62 OFFCURVE",
"446 186 CURVE SMOOTH",
"446 322 OFFCURVE",
"391 375 OFFCURVE",
"262 375 CURVE",
"393 648 LINE SMOOTH",
"395 652 OFFCURVE",
"394 655 OFFCURVE",
"391 655 CURVE SMOOTH",
"83 655 LINE SMOOTH",
"82 655 OFFCURVE",
"81 654 OFFCURVE",
"81 652 CURVE SMOOTH",
"81 3 LINE SMOOTH",
"81 1 OFFCURVE",
"82 0 OFFCURVE",
"83 0 CURVE SMOOTH",
"95 0 LINE SMOOTH",
"97 0 OFFCURVE",
"97 1 OFFCURVE",
"97 3 CURVE SMOOTH",
"97 639 LINE",
"370 639 LINE",
"242 369 LINE SMOOTH",
"241 367 OFFCURVE",
"241 366 OFFCURVE",
"241 364 CURVE SMOOTH",
"241 362 LINE SMOOTH",
"241 360 OFFCURVE",
"242 359 OFFCURVE",
"244 359 CURVE SMOOTH",
"268 359 LINE SMOOTH",
"382 359 OFFCURVE",
"430 308 OFFCURVE",
"430 187 CURVE SMOOTH",
"430 73 OFFCURVE",
"390 8 OFFCURVE",
"306 8 CURVE SMOOTH",
"237 8 OFFCURVE",
"200 46 OFFCURVE",
"200 122 CURVE SMOOTH",
"200 124 OFFCURVE",
"199 125 OFFCURVE",
"198 125 CURVE SMOOTH",
"187 125 LINE SMOOTH",
"185 125 OFFCURVE",
"184 124 OFFCURVE",
"184 122 CURVE SMOOTH",
"184 37 OFFCURVE",
"226 -8 OFFCURVE",
"306 -8 CURVE SMOOTH"
);
}
);
width = 494;
},
{
layerId = "447BF32C-5B1D-49E6-885E-D276D7630B14";
paths = (
{
closed = 1;
nodes = (
"530 -8 OFFCURVE",
"595 54 OFFCURVE",
"596 196 CURVE SMOOTH",
"597 301 OFFCURVE",
"554 363 OFFCURVE",
"464 388 CURVE",
"552 630 LINE SMOOTH",
"557 644 OFFCURVE",
"551 655 OFFCURVE",
"539 655 CURVE SMOOTH",
"53 655 LINE SMOOTH",
"45 655 OFFCURVE",
"39 649 OFFCURVE",
"39 641 CURVE SMOOTH",
"39 14 LINE SMOOTH",
"39 6 OFFCURVE",
"45 0 OFFCURVE",
"53 0 CURVE SMOOTH",
"199 0 LINE SMOOTH",
"208 0 OFFCURVE",
"213 6 OFFCURVE",
"213 14 CURVE SMOOTH",
"213 502 LINE",
"337 502 LINE",
"286 356 LINE",
"284 349 OFFCURVE",
"283 342 OFFCURVE",
"283 335 CURVE SMOOTH",
"283 286 LINE SMOOTH",
"283 276 OFFCURVE",
"288 271 OFFCURVE",
"297 271 CURVE SMOOTH",
"350 271 LINE SMOOTH",
"401 271 OFFCURVE",
"422 252 OFFCURVE",
"422 200 CURVE SMOOTH",
"422 152 OFFCURVE",
"415 139 OFFCURVE",
"399 139 CURVE SMOOTH",
"384 139 OFFCURVE",
"379 148 OFFCURVE",
"381 168 CURVE SMOOTH",
"382 178 OFFCURVE",
"379 183 OFFCURVE",
"370 183 CURVE SMOOTH",
"253 186 LINE SMOOTH",
"245 186 OFFCURVE",
"240 181 OFFCURVE",
"239 170 CURVE SMOOTH",
"228 50 OFFCURVE",
"270 -8 OFFCURVE",
"404 -8 CURVE SMOOTH"
);
}
);
width = 611;
}
);
leftKerningGroup = H;
leftMetricsKey = H;
rightKerningGroup = S;
unicode = 1E9E;
},
{
glyphname = T;
lastChange = "2022-10-27 03:26:45 +0000";
layers = (
{
anchors = (
{
name = bottom;
position = "{204, 0}";
},
{
name = center;
position = "{205, 328}";
},
{
name = top;
position = "{205, 655}";
}
);
layerId = "315A68D9-B8D0-4E7E-8516-8D4632F47100";
paths = (
{
closed = 1;
nodes = (
"231 0 LINE SMOOTH",
"236 0 OFFCURVE",
"239 4 OFFCURVE",
"239 9 CURVE SMOOTH",
"239 587 LINE",
"374 587 LINE SMOOTH",
"379 587 OFFCURVE",
"382 591 OFFCURVE",
"382 597 CURVE SMOOTH",
"382 646 LINE SMOOTH",
"382 651 OFFCURVE",
"379 655 OFFCURVE",
"374 655 CURVE SMOOTH",
"32 655 LINE SMOOTH",
"27 655 OFFCURVE",
"24 651 OFFCURVE",
"24 646 CURVE SMOOTH",
"24 597 LINE SMOOTH",
"24 591 OFFCURVE",
"27 587 OFFCURVE",
"32 587 CURVE SMOOTH",
"167 587 LINE",
"167 9 LINE SMOOTH",
"167 4 OFFCURVE",
"170 0 OFFCURVE",
"175 0 CURVE SMOOTH"
);
}
);
width = 406;
},
{
anchors = (
{
name = bottom;
position = "{205, 0}";
},
{
name = center;
position = "{204, 328}";
},
{
name = top;
position = "{204, 655}";
}
);
layerId = "87A71899-7C85-4E95-82CD-7392C73A0331";
paths = (
{
closed = 1;
nodes = (
"209 0 LINE SMOOTH",
"211 0 OFFCURVE",
"212 1 OFFCURVE",
"212 3 CURVE SMOOTH",
"212 639 LINE",
"372 639 LINE SMOOTH",
"374 639 OFFCURVE",
"375 640 OFFCURVE",
"375 642 CURVE SMOOTH",
"375 652 LINE SMOOTH",
"375 654 OFFCURVE",
"374 655 OFFCURVE",
"372 655 CURVE SMOOTH",
"35 655 LINE SMOOTH",
"33 655 OFFCURVE",
"32 654 OFFCURVE",
"32 652 CURVE SMOOTH",
"32 642 LINE SMOOTH",
"32 640 OFFCURVE",
"33 639 OFFCURVE",
"35 639 CURVE SMOOTH",
"196 639 LINE",
"196 3 LINE SMOOTH",
"196 1 OFFCURVE",
"197 0 OFFCURVE",
"199 0 CURVE SMOOTH"
);
}
);
width = 407;
},
{
anchors = (
{
name = bottom;
position = "{240, 0}";
},
{
name = center;
position = "{243, 328}";
},
{
name = top;
position = "{243, 655}";
}
);
layerId = "447BF32C-5B1D-49E6-885E-D276D7630B14";
paths = (
{
closed = 1;
nodes = (
"314 0 LINE SMOOTH",
"322 0 OFFCURVE",
"327 6 OFFCURVE",
"327 14 CURVE SMOOTH",
"327 503 LINE",
"452 503 LINE SMOOTH",
"460 503 OFFCURVE",
"465 509 OFFCURVE",
"465 517 CURVE SMOOTH",
"465 641 LINE SMOOTH",
"465 649 OFFCURVE",
"460 655 OFFCURVE",
"452 655 CURVE SMOOTH",
"27 655 LINE SMOOTH",
"19 655 OFFCURVE",
"14 649 OFFCURVE",
"14 641 CURVE SMOOTH",
"14 517 LINE SMOOTH",
"14 509 OFFCURVE",
"19 503 OFFCURVE",
"27 503 CURVE SMOOTH",
"153 503 LINE",
"153 14 LINE SMOOTH",
"153 6 OFFCURVE",
"158 0 OFFCURVE",
"166 0 CURVE SMOOTH"
);
}
);
width = 479;
}
);
leftKerningGroup = T;
rightKerningGroup = T;
unicode = 0054;
},
{
glyphname = Tbar;
lastChange = "2022-10-27 03:26:45 +0000";
layers = (
{
components = (
{
alignment = -1;
name = T;
}
);
layerId = "315A68D9-B8D0-4E7E-8516-8D4632F47100";
paths = (
{
closed = 1;
nodes = (
"167 307 LINE",
"239 307 LINE",
"314 307 LINE SMOOTH",
"319 307 OFFCURVE",
"322 310 OFFCURVE",
"322 316 CURVE SMOOTH",
"322 356 LINE SMOOTH",
"322 362 OFFCURVE",
"319 365 OFFCURVE",
"314 365 CURVE SMOOTH",
"92 365 LINE SMOOTH",
"87 365 OFFCURVE",
"84 362 OFFCURVE",
"84 356 CURVE SMOOTH",
"84 316 LINE SMOOTH",
"84 310 OFFCURVE",
"87 307 OFFCURVE",
"92 307 CURVE SMOOTH"
);
}
);
width = 406;
},
{
components = (
{
alignment = -1;
name = T;
}
);
layerId = "87A71899-7C85-4E95-82CD-7392C73A0331";
paths = (
{
closed = 1;
nodes = (
"196 328 LINE",
"212 328 LINE",
"315 328 LINE SMOOTH",
"317 328 OFFCURVE",
"318 329 OFFCURVE",
"318 331 CURVE SMOOTH",
"318 341 LINE SMOOTH",
"318 343 OFFCURVE",
"317 344 OFFCURVE",
"315 344 CURVE SMOOTH",
"92 344 LINE SMOOTH",
"90 344 OFFCURVE",
"89 343 OFFCURVE",
"89 341 CURVE SMOOTH",
"89 331 LINE SMOOTH",
"89 329 OFFCURVE",
"90 328 OFFCURVE",
"92 328 CURVE SMOOTH"
);
}
);
width = 407;
},
{
components = (
{
alignment = -1;
name = T;
}
);
layerId = "447BF32C-5B1D-49E6-885E-D276D7630B14";
paths = (
{
closed = 1;
nodes = (
"150 254 LINE",
"324 254 LINE",
"382 254 LINE SMOOTH",
"389 254 OFFCURVE",
"395 260 OFFCURVE",
"395 268 CURVE SMOOTH",
"395 364 LINE SMOOTH",
"395 373 OFFCURVE",
"390 378 OFFCURVE",
"382 378 CURVE SMOOTH",
"93 378 LINE SMOOTH",
"84 378 OFFCURVE",
"80 373 OFFCURVE",
"80 364 CURVE SMOOTH",
"80 268 LINE SMOOTH",
"80 260 OFFCURVE",
"85 254 OFFCURVE",
"93 254 CURVE SMOOTH"
);
}
);
width = 479;
}
);
leftKerningGroup = T;
leftMetricsKey = "=T";
rightKerningGroup = T;
rightMetricsKey = "=T";
unicode = 0166;
},
{
glyphname = U;
lastChange = "2022-10-27 03:26:45 +0000";
layers = (
{
anchors = (
{
name = bottom;
position = "{248, 0}";
},
{
name = ogonek;
position = "{328, 10}";
},
{
name = top;
position = "{248, 655}";
},
{
name = topleft;
position = "{58, 655}";
},
{
name = topright;
position = "{476, 655}";
}
);
layerId = "315A68D9-B8D0-4E7E-8516-8D4632F47100";
paths = (
{
closed = 1;
nodes = (
"370 -8 OFFCURVE",
"435 67 OFFCURVE",
"435 209 CURVE SMOOTH",
"435 646 LINE SMOOTH",
"435 652 OFFCURVE",
"431 655 OFFCURVE",
"426 655 CURVE SMOOTH",
"371 655 LINE SMOOTH",
"365 655 OFFCURVE",
"363 652 OFFCURVE",
"363 646 CURVE SMOOTH",
"363 209 LINE SMOOTH",
"363 107 OFFCURVE",
"325 59 OFFCURVE",
"248 59 CURVE SMOOTH",
"170 59 OFFCURVE",
"132 108 OFFCURVE",
"132 209 CURVE SMOOTH",
"132 646 LINE SMOOTH",
"132 652 OFFCURVE",
"129 655 OFFCURVE",
"124 655 CURVE SMOOTH",
"69 655 LINE SMOOTH",
"63 655 OFFCURVE",
"60 652 OFFCURVE",
"60 646 CURVE SMOOTH",
"60 210 LINE SMOOTH",
"60 65 OFFCURVE",
"123 -8 OFFCURVE",
"248 -8 CURVE SMOOTH"
);
}
);
width = 495;
},
{
anchors = (
{
name = bottom;
position = "{246, 0}";
},
{
name = ogonek;
position = "{316, 10}";
},
{
name = top;
position = "{246, 655}";
},
{
name = topleft;
position = "{57, 655}";
},
{
name = topright;
position = "{474, 655}";
}
);
layerId = "87A71899-7C85-4E95-82CD-7392C73A0331";
paths = (
{
closed = 1;
nodes = (
"362 -8 OFFCURVE",
"415 62 OFFCURVE",
"415 209 CURVE SMOOTH",
"415 652 LINE SMOOTH",
"415 654 OFFCURVE",
"414 655 OFFCURVE",
"412 655 CURVE SMOOTH",
"402 655 LINE SMOOTH",
"400 655 OFFCURVE",
"399 654 OFFCURVE",
"399 652 CURVE SMOOTH",
"399 209 LINE SMOOTH",
"399 72 OFFCURVE",
"352 8 OFFCURVE",
"246 8 CURVE SMOOTH",
"140 8 OFFCURVE",
"93 72 OFFCURVE",
"93 209 CURVE SMOOTH",
"93 652 LINE SMOOTH",
"93 654 OFFCURVE",
"92 655 OFFCURVE",
"90 655 CURVE SMOOTH",
"80 655 LINE SMOOTH",
"78 655 OFFCURVE",
"77 654 OFFCURVE",
"77 652 CURVE SMOOTH",
"77 209 LINE SMOOTH",
"77 62 OFFCURVE",
"130 -8 OFFCURVE",
"246 -8 CURVE SMOOTH"
);
}
);
width = 492;
},
{
anchors = (
{
name = bottom;
position = "{280, 0}";
},
{
name = ogonek;
position = "{398, 10}";
},
{
name = top;
position = "{280, 655}";
},
{
name = topleft;
position = "{63, 655}";
},
{
name = topright;
position = "{537, 655}";
}
);
layerId = "447BF32C-5B1D-49E6-885E-D276D7630B14";
paths = (
{
closed = 1;
nodes = (
"441 -8 OFFCURVE",
"524 72 OFFCURVE",
"524 242 CURVE SMOOTH",
"524 641 LINE SMOOTH",
"524 649 OFFCURVE",
"518 655 OFFCURVE",
"511 655 CURVE SMOOTH",
"363 655 LINE SMOOTH",
"355 655 OFFCURVE",
"350 649 OFFCURVE",
"350 641 CURVE SMOOTH",
"350 249 LINE SMOOTH",
"350 172 OFFCURVE",
"330 145 OFFCURVE",
"280 145 CURVE SMOOTH",
"230 145 OFFCURVE",
"210 173 OFFCURVE",
"210 249 CURVE SMOOTH",
"210 641 LINE SMOOTH",
"210 649 OFFCURVE",
"204 655 OFFCURVE",
"198 655 CURVE SMOOTH",
"49 655 LINE SMOOTH",
"41 655 OFFCURVE",
"36 649 OFFCURVE",
"36 641 CURVE SMOOTH",
"36 242 LINE SMOOTH",
"36 72 OFFCURVE",
"119 -8 OFFCURVE",
"280 -8 CURVE SMOOTH"
);
}
);
width = 560;
}
);
leftKerningGroup = U;
rightKerningGroup = U;
unicode = 0055;
},
{
glyphname = V;
lastChange = "2022-10-27 03:26:45 +0000";
layers = (
{
anchors = (
{
name = bottom;
position = "{225, 0}";
},
{
name = top;
position = "{225, 655}";
}
);
layerId = "315A68D9-B8D0-4E7E-8516-8D4632F47100";
paths = (
{
closed = 1;
nodes = (
"265 0 LINE SMOOTH",
"270 0 OFFCURVE",
"273 3 OFFCURVE",
"274 7 CURVE SMOOTH",
"436 645 LINE SMOOTH",
"438 652 OFFCURVE",
"435 655 OFFCURVE",
"430 655 CURVE SMOOTH",
"370 655 LINE SMOOTH",
"366 655 OFFCURVE",
"362 652 OFFCURVE",
"361 648 CURVE SMOOTH",
"255 216 LINE SMOOTH",
"244 170 OFFCURVE",
"233 124 OFFCURVE",
"224 79 CURVE",
"222 79 LINE",
"213 125 OFFCURVE",
"203 171 OFFCURVE",
"193 217 CURVE SMOOTH",
"89 648 LINE SMOOTH",
"88 652 OFFCURVE",
"84 655 OFFCURVE",
"80 655 CURVE SMOOTH",
"19 655 LINE SMOOTH",
"14 655 OFFCURVE",
"12 651 OFFCURVE",
"13 645 CURVE SMOOTH",
"173 7 LINE SMOOTH",
"175 3 OFFCURVE",
"178 0 OFFCURVE",
"182 0 CURVE SMOOTH"
);
}
);
width = 450;
},
{
anchors = (
{
name = bottom;
position = "{212, 0}";
},
{
name = top;
position = "{212, 655}";
}
);
layerId = "87A71899-7C85-4E95-82CD-7392C73A0331";
paths = (
{
closed = 1;
nodes = (
"223 0 LINE SMOOTH",
"225 0 OFFCURVE",
"226 1 OFFCURVE",
"227 3 CURVE SMOOTH",
"407 651 LINE SMOOTH",
"408 655 OFFCURVE",
"406 655 OFFCURVE",
"404 655 CURVE SMOOTH",
"394 655 LINE SMOOTH",
"392 655 OFFCURVE",
"391 655 OFFCURVE",
"390 652 CURVE SMOOTH",
"245 140 LINE SMOOTH",
"234 99 OFFCURVE",
"225 58 OFFCURVE",
"214 17 CURVE",
"213 17 LINE",
"203 59 OFFCURVE",
"194 100 OFFCURVE",
"182 141 CURVE SMOOTH",
"35 652 LINE SMOOTH",
"34 655 OFFCURVE",
"33 655 OFFCURVE",
"31 655 CURVE SMOOTH",
"22 655 LINE SMOOTH",
"20 655 OFFCURVE",
"18 655 OFFCURVE",
"19 652 CURVE SMOOTH",
"201 3 LINE SMOOTH",
"202 1 OFFCURVE",
"203 0 OFFCURVE",
"205 0 CURVE SMOOTH"
);
}
);
width = 426;
},
{
anchors = (
{
name = bottom;
position = "{275, 0}";
},
{
name = top;
position = "{275, 655}";
}
);
layerId = "447BF32C-5B1D-49E6-885E-D276D7630B14";
paths = (
{
closed = 1;
nodes = (
"373 0 LINE SMOOTH",
"381 0 OFFCURVE",
"386 3 OFFCURVE",
"388 11 CURVE SMOOTH",
"546 639 LINE SMOOTH",
"549 648 OFFCURVE",
"545 655 OFFCURVE",
"535 655 CURVE SMOOTH",
"374 655 LINE SMOOTH",
"365 655 OFFCURVE",
"359 651 OFFCURVE",
"358 643 CURVE SMOOTH",
"299 301 LINE SMOOTH",
"291 254 OFFCURVE",
"283 206 OFFCURVE",
"278 153 CURVE",
"276 153 LINE",
"270 206 OFFCURVE",
"263 253 OFFCURVE",
"255 300 CURVE SMOOTH",
"193 644 LINE SMOOTH",
"192 650 OFFCURVE",
"185.993 655 OFFCURVE",
"178 655 CURVE SMOOTH",
"16 655 LINE SMOOTH",
"6 655 OFFCURVE",
"2 648 OFFCURVE",
"5 638 CURVE SMOOTH",
"165 12 LINE SMOOTH",
"167 3 OFFCURVE",
"173 0 OFFCURVE",
"179 0 CURVE SMOOTH"
);
}
);
width = 551;
}
);
leftKerningGroup = V;
rightKerningGroup = V;
unicode = 0056;
},
{
glyphname = W;
lastChange = "2022-10-27 03:26:45 +0000";
layers = (
{
anchors = (
{
name = bottom;
position = "{327, 0}";
},
{
name = top;
position = "{326, 655}";
}
);
layerId = "315A68D9-B8D0-4E7E-8516-8D4632F47100";
paths = (
{
closed = 1;
nodes = (
"236 0 LINE SMOOTH",
"240 0 OFFCURVE",
"243 3 OFFCURVE",
"244 8 CURVE SMOOTH",
"302 263 LINE SMOOTH",
"312 304 OFFCURVE",
"321 345 OFFCURVE",
"329 386 CURVE",
"331 386 LINE",
"338 345 OFFCURVE",
"346 304 OFFCURVE",
"355 262 CURVE SMOOTH",
"407 8 LINE SMOOTH",
"408 3 OFFCURVE",
"411 0 OFFCURVE",
"415 0 CURVE SMOOTH",
"493 0 LINE SMOOTH",
"497 0 OFFCURVE",
"500 3 OFFCURVE",
"501 8 CURVE SMOOTH",
"634 645 LINE SMOOTH",
"635 651 OFFCURVE",
"633 655 OFFCURVE",
"627 655 CURVE SMOOTH",
"568 655 LINE SMOOTH",
"564 655 OFFCURVE",
"560 652 OFFCURVE",
"559 648 CURVE SMOOTH",
"478 243 LINE SMOOTH",
"468 186 OFFCURVE",
"460 130 OFFCURVE",
"453 85 CURVE",
"452 85 LINE",
"444 129 OFFCURVE",
"436 173 OFFCURVE",
"427 218 CURVE SMOOTH",
"342 637 LINE SMOOTH",
"341 642 OFFCURVE",
"338 645 OFFCURVE",
"333 645 CURVE SMOOTH",
"276 645 LINE SMOOTH",
"270 645 OFFCURVE",
"267 642 OFFCURVE",
"268 635 CURVE SMOOTH",
"295 508 LINE",
"231 220 LINE SMOOTH",
"221 175 OFFCURVE",
"211 130 OFFCURVE",
"202 85 CURVE",
"200 85 LINE",
"193 130 OFFCURVE",
"184 193 OFFCURVE",
"174 244 CURVE SMOOTH",
"90 648 LINE SMOOTH",
"89 652 OFFCURVE",
"86 655 OFFCURVE",
"82 655 CURVE SMOOTH",
"24 655 LINE SMOOTH",
"19 655 OFFCURVE",
"16 651 OFFCURVE",
"17 645 CURVE SMOOTH",
"154 7 LINE SMOOTH",
"155 2 OFFCURVE",
"158 0 OFFCURVE",
"162 0 CURVE SMOOTH"
);
}
);
width = 651;
},
{
anchors = (
{
name = bottom;
position = "{330, 0}";
},
{
name = top;
position = "{318, 655}";
}
);
layerId = "87A71899-7C85-4E95-82CD-7392C73A0331";
paths = (
{
closed = 1;
nodes = (
"203 0 LINE SMOOTH",
"205 0 OFFCURVE",
"207 0 OFFCURVE",
"208 4 CURVE SMOOTH",
"289 337 LINE SMOOTH",
"300 383 OFFCURVE",
"311 430 OFFCURVE",
"322 476 CURVE",
"323 476 LINE",
"334 430 OFFCURVE",
"344 383 OFFCURVE",
"354 337 CURVE SMOOTH",
"428 4 LINE SMOOTH",
"429 0 OFFCURVE",
"430 0 OFFCURVE",
"433 0 CURVE SMOOTH",
"450 0 LINE SMOOTH",
"452 0 OFFCURVE",
"454 0 OFFCURVE",
"455 4 CURVE SMOOTH",
"609 652 LINE SMOOTH",
"610 655 OFFCURVE",
"608 655 OFFCURVE",
"606 655 CURVE SMOOTH",
"596 655 LINE SMOOTH",
"595 655 OFFCURVE",
"593 655 OFFCURVE",
"592 652 CURVE SMOOTH",
"476 156 LINE SMOOTH",
"464 110 OFFCURVE",
"453 63 OFFCURVE",
"442 16 CURVE",
"441 16 LINE",
"431 62 OFFCURVE",
"420 108 OFFCURVE",
"409 154 CURVE SMOOTH",
"302 642 LINE SMOOTH",
"301 645 OFFCURVE",
"300 645 OFFCURVE",
"298 645 CURVE SMOOTH",
"289 645 LINE SMOOTH",
"287 645 OFFCURVE",
"285 645 OFFCURVE",
"286 641 CURVE SMOOTH",
"315 508 LINE",
"229 150 LINE SMOOTH",
"217 105 OFFCURVE",
"207 61 OFFCURVE",
"195 16 CURVE",
"194 16 LINE",
"183 61 OFFCURVE",
"172 105 OFFCURVE",
"161 150 CURVE SMOOTH",
"43 652 LINE SMOOTH",
"42 655 OFFCURVE",
"41 655 OFFCURVE",
"39 655 CURVE SMOOTH",
"29 655 LINE SMOOTH",
"27 655 OFFCURVE",
"25 655 OFFCURVE",
"26 652 CURVE SMOOTH",
"181 3 LINE SMOOTH",
"182 0 OFFCURVE",
"184 0 OFFCURVE",
"186 0 CURVE SMOOTH"
);
}
);
width = 635;
},
{
anchors = (
{
name = bottom;
position = "{385, 0}";
},
{
name = top;
position = "{385, 655}";
}
);
layerId = "447BF32C-5B1D-49E6-885E-D276D7630B14";
paths = (
{
closed = 1;
nodes = (
"305 0 LINE SMOOTH",
"312 0 OFFCURVE",
"319 3 OFFCURVE",
"320 11 CURVE SMOOTH",
"356 175 LINE SMOOTH",
"368 224 OFFCURVE",
"376 269 OFFCURVE",
"385 315 CURVE",
"388 315 LINE",
"396 270 OFFCURVE",
"404 223 OFFCURVE",
"414 175 CURVE SMOOTH",
"446 12 LINE SMOOTH",
"447 5 OFFCURVE",
"453 0 OFFCURVE",
"461 0 CURVE SMOOTH",
"620 0 LINE SMOOTH",
"628 0 OFFCURVE",
"632 5 OFFCURVE",
"634 12 CURVE SMOOTH",
"764 638 LINE SMOOTH",
"767 649 OFFCURVE",
"762 655 OFFCURVE",
"753 655 CURVE SMOOTH",
"607 655 LINE SMOOTH",
"599 655 OFFCURVE",
"593 651 OFFCURVE",
"592 643 CURVE SMOOTH",
"558 463 LINE SMOOTH",
"543 367 OFFCURVE",
"539 280 OFFCURVE",
"535 176 CURVE",
"533 176 LINE",
"529 227 OFFCURVE",
"521 277 OFFCURVE",
"512 327 CURVE SMOOTH",
"454 626 LINE SMOOTH",
"453 633 OFFCURVE",
"448 638 OFFCURVE",
"441 638 CURVE SMOOTH",
"299 638 LINE SMOOTH",
"291 638 OFFCURVE",
"285 631 OFFCURVE",
"288 619 CURVE SMOOTH",
"317 511 LINE",
"269 319 LINE SMOOTH",
"257 272 OFFCURVE",
"248 224 OFFCURVE",
"241 176 CURVE",
"239 176 LINE",
"236 278 OFFCURVE",
"231 360 OFFCURVE",
"216 453 CURVE SMOOTH",
"180 643 LINE SMOOTH",
"179 651 OFFCURVE",
"173 655 OFFCURVE",
"165 655 CURVE SMOOTH",
"18 655 LINE SMOOTH",
"9 655 OFFCURVE",
"4 649 OFFCURVE",
"6 638 CURVE SMOOTH",
"135 12 LINE SMOOTH",
"136 5 OFFCURVE",
"141 0 OFFCURVE",
"149 0 CURVE SMOOTH"
);
}
);
width = 771;
}
);
leftKerningGroup = W;
rightKerningGroup = W;
unicode = 0057;
},
{
glyphname = X;
lastChange = "2022-10-27 03:26:45 +0000";
layers = (
{
anchors = (
{
name = bottom;
position = "{211, 0}";
},
{
name = top;
position = "{211, 655}";
}
);
layerId = "315A68D9-B8D0-4E7E-8516-8D4632F47100";
paths = (
{
closed = 1;
nodes = (
"76 0 LINE SMOOTH",
"79.991 0 OFFCURVE",
"83 3 OFFCURVE",
"85 7 CURVE",
"166 175 LINE SMOOTH",
"181 208 OFFCURVE",
"196 244 OFFCURVE",
"210 278 CURVE",
"211 278 LINE",
"224 244 OFFCURVE",
"239 208 OFFCURVE",
"255 174 CURVE SMOOTH",
"335 6 LINE",
"337 2 OFFCURVE",
"340 0 OFFCURVE",
"344 0 CURVE SMOOTH",
"413 0 LINE SMOOTH",
"419 0 OFFCURVE",
"421 5 OFFCURVE",
"418 11 CURVE",
"258 336 LINE",
"409 644 LINE",
"412 650 OFFCURVE",
"410 655 OFFCURVE",
"404 655 CURVE SMOOTH",
"339 655 LINE SMOOTH",
"335 655 OFFCURVE",
"332 653 OFFCURVE",
"330 649 CURVE",
"256 494 LINE SMOOTH",
"241 461 OFFCURVE",
"227 428 OFFCURVE",
"213 395 CURVE",
"212 395 LINE",
"199 427 OFFCURVE",
"185 460 OFFCURVE",
"171 492 CURVE SMOOTH",
"95 650 LINE",
"94 653 OFFCURVE",
"91 655 OFFCURVE",
"87 655 CURVE SMOOTH",
"19 655 LINE SMOOTH",
"13 655 OFFCURVE",
"11 650 OFFCURVE",
"14 644 CURVE",
"166 338 LINE",
"4 11 LINE",
"1 5 OFFCURVE",
"3 0 OFFCURVE",
"8.991 0 CURVE SMOOTH"
);
}
);
width = 422;
},
{
anchors = (
{
name = bottom;
position = "{202, 0}";
},
{
name = top;
position = "{202, 655}";
}
);
layerId = "87A71899-7C85-4E95-82CD-7392C73A0331";
paths = (
{
closed = 1;
nodes = (
"24 0 LINE SMOOTH",
"27 0 OFFCURVE",
"28 1 OFFCURVE",
"29 3 CURVE SMOOTH",
"139 209 LINE SMOOTH",
"159 246 OFFCURVE",
"181 284 OFFCURVE",
"201 322 CURVE",
"202 322 LINE",
"224 283 OFFCURVE",
"244 245 OFFCURVE",
"266 206 CURVE SMOOTH",
"375 3 LINE SMOOTH",
"376 1 OFFCURVE",
"377 0 OFFCURVE",
"379 0 CURVE SMOOTH",
"391 0 LINE SMOOTH",
"393 0 OFFCURVE",
"394 1 OFFCURVE",
"393 3 CURVE SMOOTH",
"213 337 LINE",
"383 651 LINE SMOOTH",
"384 653 OFFCURVE",
"384 655 OFFCURVE",
"382 655 CURVE SMOOTH",
"369 655 LINE SMOOTH",
"367 655 OFFCURVE",
"366 655 OFFCURVE",
"365 653 CURVE SMOOTH",
"253 445 LINE SMOOTH",
"236 413 OFFCURVE",
"219 382 OFFCURVE",
"202 350 CURVE",
"201 350 LINE",
"184 382 OFFCURVE",
"167 413 OFFCURVE",
"150 444 CURVE SMOOTH",
"37 653 LINE SMOOTH",
"36 655 OFFCURVE",
"35 655 OFFCURVE",
"33 655 CURVE SMOOTH",
"21 655 LINE SMOOTH",
"19 655 OFFCURVE",
"18 653 OFFCURVE",
"19 651 CURVE SMOOTH",
"191 336 LINE",
"11 4 LINE SMOOTH",
"9 2 OFFCURVE",
"10 0 OFFCURVE",
"12 0 CURVE SMOOTH"
);
}
);
width = 403;
},
{
anchors = (
{
name = bottom;
position = "{266, 0}";
},
{
name = top;
position = "{266, 655}";
}
);
layerId = "447BF32C-5B1D-49E6-885E-D276D7630B14";
paths = (
{
closed = 1;
nodes = (
"181 0 LINE SMOOTH",
"188 0 OFFCURVE",
"193 2 OFFCURVE",
"196 10 CURVE",
"237 114 LINE SMOOTH",
"246 139 OFFCURVE",
"256 172 OFFCURVE",
"264 201 CURVE",
"267 201 LINE",
"275 171 OFFCURVE",
"286 140 OFFCURVE",
"295 113 CURVE SMOOTH",
"333 9 LINE",
"336 2 OFFCURVE",
"340 0 OFFCURVE",
"348 0 CURVE SMOOTH",
"520 0 LINE SMOOTH",
"531 0 OFFCURVE",
"534 8 OFFCURVE",
"530 18 CURVE",
"364 335 LINE",
"521 637 LINE",
"525 647 OFFCURVE",
"523 655 OFFCURVE",
"513 655 CURVE SMOOTH",
"341 655 LINE SMOOTH",
"335 655 OFFCURVE",
"329 653 OFFCURVE",
"327 646 CURVE",
"297 556 LINE SMOOTH",
"288 530 OFFCURVE",
"277 496 OFFCURVE",
"270 468 CURVE",
"267 468 LINE",
"259 496 OFFCURVE",
"251 527 OFFCURVE",
"241 555 CURVE SMOOTH",
"207 646 LINE",
"204 653 OFFCURVE",
"199 655 OFFCURVE",
"193 655 CURVE SMOOTH",
"21 655 LINE SMOOTH",
"10 655 OFFCURVE",
"7 647 OFFCURVE",
"12 637 CURVE",
"169 335 LINE",
"3 18 LINE",
"-3 6 OFFCURVE",
"1 0 OFFCURVE",
"12 0 CURVE SMOOTH"
);
}
);
width = 532;
}
);
leftKerningGroup = X;
rightKerningGroup = X;
unicode = 0058;
},
{
glyphname = Y;
lastChange = "2022-10-27 03:26:45 +0000";
layers = (
{
anchors = (
{
name = bottom;
position = "{209, 0}";
},
{
name = top;
position = "{209, 655}";
},
{
name = topleft;
position = "{16, 655}";
}
);
layerId = "315A68D9-B8D0-4E7E-8516-8D4632F47100";
paths = (
{
closed = 1;
nodes = (
"237 0 LINE SMOOTH",
"242 0 OFFCURVE",
"245 4 OFFCURVE",
"245 9 CURVE SMOOTH",
"245 225 LINE",
"407 644 LINE SMOOTH",
"409 650 OFFCURVE",
"407 655 OFFCURVE",
"401 655 CURVE SMOOTH",
"338 655 LINE SMOOTH",
"334 655 OFFCURVE",
"330 653 OFFCURVE",
"329 649 CURVE SMOOTH",
"249 425 LINE SMOOTH",
"236 386 OFFCURVE",
"222 348 OFFCURVE",
"210 310 CURVE",
"209 310 LINE",
"196 347 OFFCURVE",
"183 386 OFFCURVE",
"170 423 CURVE SMOOTH",
"89 648 LINE SMOOTH",
"88 653 OFFCURVE",
"85 655 OFFCURVE",
"80 655 CURVE SMOOTH",
"15 655 LINE SMOOTH",
"10 655 OFFCURVE",
"8 650 OFFCURVE",
"10 644 CURVE SMOOTH",
"173 224 LINE",
"173 9 LINE SMOOTH",
"173 4 OFFCURVE",
"176 0 OFFCURVE",
"180 0 CURVE SMOOTH"
);
}
);
width = 417;
},
{
anchors = (
{
name = bottom;
position = "{196, 0}";
},
{
name = top;
position = "{196, 655}";
},
{
name = topleft;
position = "{18, 655}";
}
);
layerId = "87A71899-7C85-4E95-82CD-7392C73A0331";
paths = (
{
closed = 1;
nodes = (
"202 0 LINE SMOOTH",
"203 0 OFFCURVE",
"204 1 OFFCURVE",
"204 3 CURVE SMOOTH",
"204 225 LINE",
"376 651 LINE SMOOTH",
"377 654 OFFCURVE",
"376 655 OFFCURVE",
"374 655 CURVE SMOOTH",
"363 655 LINE SMOOTH",
"361 655 OFFCURVE",
"360 655 OFFCURVE",
"359 653 CURVE SMOOTH",
"240 354 LINE SMOOTH",
"225 318 OFFCURVE",
"211 282 OFFCURVE",
"197 246 CURVE",
"196 246 LINE",
"182 282 OFFCURVE",
"167 319 OFFCURVE",
"152 355 CURVE SMOOTH",
"34 652 LINE SMOOTH",
"33 655 OFFCURVE",
"32 655 OFFCURVE",
"30 655 CURVE SMOOTH",
"18 655 LINE SMOOTH",
"16 655 OFFCURVE",
"15 654 OFFCURVE",
"16 651 CURVE SMOOTH",
"188 225 LINE",
"188 3 LINE SMOOTH",
"188 1 OFFCURVE",
"189 0 OFFCURVE",
"190 0 CURVE SMOOTH"
);
}
);
width = 392;
},
{
anchors = (
{
name = bottom;
position = "{264, 0}";
},
{
name = top;
position = "{264, 655}";
},
{
name = topleft;
position = "{9, 655}";
}
);
layerId = "447BF32C-5B1D-49E6-885E-D276D7630B14";
paths = (
{
closed = 1;
nodes = (
"338 0 LINE SMOOTH",
"345 0 OFFCURVE",
"351 6 OFFCURVE",
"351 14 CURVE SMOOTH",
"351 227 LINE",
"525 637 LINE SMOOTH",
"529 647 OFFCURVE",
"525 655 OFFCURVE",
"515 655 CURVE SMOOTH",
"353 655 LINE SMOOTH",
"346 655 OFFCURVE",
"341 652 OFFCURVE",
"339 645 CURVE SMOOTH",
"299 502 LINE SMOOTH",
"286 460 OFFCURVE",
"275 420 OFFCURVE",
"266 378 CURVE",
"264 378 LINE",
"254 419 OFFCURVE",
"243 461 OFFCURVE",
"231 503 CURVE SMOOTH",
"190 645 LINE SMOOTH",
"189 652 OFFCURVE",
"183 655 OFFCURVE",
"176 655 CURVE SMOOTH",
"12 655 LINE SMOOTH",
"2 655 OFFCURVE",
"-2 647 OFFCURVE",
"2 637 CURVE SMOOTH",
"177 227 LINE",
"177 14 LINE SMOOTH",
"177 6 OFFCURVE",
"182 0 OFFCURVE",
"190 0 CURVE SMOOTH"
);
}
);
width = 527;
}
);
leftKerningGroup = Y;
rightKerningGroup = Y;
unicode = 0059;
},
{
glyphname = Z;
lastChange = "2022-10-27 03:26:45 +0000";
layers = (
{
anchors = (
{
name = bottom;
position = "{207, 0}";
},
{
name = top;
position = "{209, 655}";
}
);
layerId = "315A68D9-B8D0-4E7E-8516-8D4632F47100";
paths = (
{
closed = 1;
nodes = (
"372 0 LINE SMOOTH",
"377 0 OFFCURVE",
"380 4 OFFCURVE",
"380 9 CURVE SMOOTH",
"380 58 LINE SMOOTH",
"380 64 OFFCURVE",
"377 68 OFFCURVE",
"372 68 CURVE SMOOTH",
"213 68 LINE SMOOTH",
"181 68 OFFCURVE",
"154 68 OFFCURVE",
"118 67 CURVE",
"118 68 LINE",
"134 100 OFFCURVE",
"149 131 OFFCURVE",
"166 162 CURVE SMOOTH",
"395 633 LINE SMOOTH",
"397 637 OFFCURVE",
"398 641 OFFCURVE",
"398 645 CURVE SMOOTH",
"398 647 LINE SMOOTH",
"398 652 OFFCURVE",
"396 655 OFFCURVE",
"390 655 CURVE SMOOTH",
"47 655 LINE SMOOTH",
"42 655 OFFCURVE",
"39 651 OFFCURVE",
"39 646 CURVE SMOOTH",
"39 597 LINE SMOOTH",
"39 591 OFFCURVE",
"42 587 OFFCURVE",
"47 587 CURVE SMOOTH",
"203 587 LINE SMOOTH",
"233 587 OFFCURVE",
"263 587 OFFCURVE",
"293 588 CURVE",
"293 587 LINE",
"276 552 OFFCURVE",
"259 519 OFFCURVE",
"243 484 CURVE SMOOTH",
"18 22 LINE SMOOTH",
"16 18 OFFCURVE",
"15 14 OFFCURVE",
"15 10 CURVE SMOOTH",
"15 8 LINE SMOOTH",
"15 3 OFFCURVE",
"18 0 OFFCURVE",
"22 0 CURVE SMOOTH"
);
}
);
width = 415;
},
{
anchors = (
{
name = bottom;
position = "{196, 0}";
},
{
name = top;
position = "{205, 655}";
}
);
layerId = "87A71899-7C85-4E95-82CD-7392C73A0331";
paths = (
{
closed = 1;
nodes = (
"351 0 LINE SMOOTH",
"353 0 OFFCURVE",
"354 1 OFFCURVE",
"354 3 CURVE SMOOTH",
"354 13 LINE SMOOTH",
"354 15 OFFCURVE",
"353 16 OFFCURVE",
"351 16 CURVE SMOOTH",
"123 16 LINE SMOOTH",
"96 16 OFFCURVE",
"69 16 OFFCURVE",
"42 16 CURVE",
"42 17 LINE",
"59 51 OFFCURVE",
"78 87 OFFCURVE",
"95 121 CURVE SMOOTH",
"366 642 LINE SMOOTH",
"367 645 OFFCURVE",
"368 647 OFFCURVE",
"368 649 CURVE SMOOTH",
"368 651 LINE SMOOTH",
"368 653 OFFCURVE",
"368 655 OFFCURVE",
"365 655 CURVE SMOOTH",
"48 655 LINE SMOOTH",
"46 655 OFFCURVE",
"45 654 OFFCURVE",
"45 652 CURVE SMOOTH",
"45 642 LINE SMOOTH",
"45 640 OFFCURVE",
"46 639 OFFCURVE",
"48 639 CURVE SMOOTH",
"258 639 LINE SMOOTH",
"286 639 OFFCURVE",
"318 639 OFFCURVE",
"346 639 CURVE",
"346 638 LINE",
"329 606 OFFCURVE",
"312 575 OFFCURVE",
"296 542 CURVE SMOOTH",
"21 12 LINE SMOOTH",
"20 9 OFFCURVE",
"20 8 OFFCURVE",
"20 6 CURVE SMOOTH",
"20 4 LINE SMOOTH",
"20 1 OFFCURVE",
"21 0 OFFCURVE",
"24 0 CURVE SMOOTH"
);
}
);
width = 392;
},
{
anchors = (
{
name = bottom;
position = "{239, 0}";
},
{
name = top;
position = "{252, 655}";
}
);
layerId = "447BF32C-5B1D-49E6-885E-D276D7630B14";
paths = (
{
closed = 1;
nodes = (
"441 0 LINE SMOOTH",
"449 0 OFFCURVE",
"454 6 OFFCURVE",
"454 14 CURVE SMOOTH",
"454 138 LINE SMOOTH",
"454 146 OFFCURVE",
"449 152 OFFCURVE",
"441 152 CURVE SMOOTH",
"333 152 LINE SMOOTH",
"302 152 OFFCURVE",
"268 151 OFFCURVE",
"239 150 CURVE",
"239 152 LINE",
"258 183 OFFCURVE",
"279 222 OFFCURVE",
"297 260 CURVE SMOOTH",
"470 616 LINE SMOOTH",
"472 621 OFFCURVE",
"474 627 OFFCURVE",
"474 633 CURVE SMOOTH",
"474 641 LINE SMOOTH",
"474 649 OFFCURVE",
"469 655 OFFCURVE",
"461 655 CURVE SMOOTH",
"42 655 LINE SMOOTH",
"34 655 OFFCURVE",
"29 649 OFFCURVE",
"29 641 CURVE SMOOTH",
"29 517 LINE SMOOTH",
"29 509 OFFCURVE",
"34 503 OFFCURVE",
"42 503 CURVE SMOOTH",
"142 503 LINE SMOOTH",
"172 503 OFFCURVE",
"207 504 OFFCURVE",
"237 505 CURVE",
"237 502 LINE",
"220 473 OFFCURVE",
"199 433 OFFCURVE",
"182 397 CURVE SMOOTH",
"11 39 LINE SMOOTH",
"8 34 OFFCURVE",
"7 28 OFFCURVE",
"7 22 CURVE SMOOTH",
"7 14 LINE SMOOTH",
"7 6 OFFCURVE",
"13 0 OFFCURVE",
"20 0 CURVE SMOOTH"
);
}
);
width = 484;
}
);
leftKerningGroup = Z;
rightKerningGroup = Z;
unicode = 005A;
},
{
glyphname = a;
lastChange = "2022-10-27 03:26:45 +0000";
layers = (
{
anchors = (
{
name = bottom;
position = "{194, 0}";
},
{
name = ogonek;
position = "{340, 10}";
},
{
name = top;
position = "{192, 487}";
}
);
layerId = "315A68D9-B8D0-4E7E-8516-8D4632F47100";
paths = (
{
closed = 1;
nodes = (
"325 0 LINE SMOOTH",
"331 0 OFFCURVE",
"333 4 OFFCURVE",
"332 11 CURVE",
"330 32 OFFCURVE",
"328 68 OFFCURVE",
"328 120 CURVE SMOOTH",
"328 350 LINE SMOOTH",
"328 454 OFFCURVE",
"287 495 OFFCURVE",
"193 495 CURVE SMOOTH",
"100 495 OFFCURVE",
"49 447 OFFCURVE",
"56 369 CURVE SMOOTH",
"57 358 OFFCURVE",
"60 354 OFFCURVE",
"67 354 CURVE SMOOTH",
"119 354 LINE SMOOTH",
"124 354 OFFCURVE",
"127 358 OFFCURVE",
"127 364 CURVE SMOOTH",
"125 408 OFFCURVE",
"145 428 OFFCURVE",
"191 428 CURVE SMOOTH",
"241 428 OFFCURVE",
"256 408 OFFCURVE",
"256 348 CURVE SMOOTH",
"256 117 LINE",
"260 100 LINE SMOOTH",
"260 73 OFFCURVE",
"264 30 OFFCURVE",
"266 11 CURVE",
"268 3 OFFCURVE",
"270 0 OFFCURVE",
"275 0 CURVE SMOOTH"
);
},
{
closed = 1;
nodes = (
"184 -8 OFFCURVE",
"220 16 OFFCURVE",
"271 75 CURVE",
"269 139 LINE",
"217 78 OFFCURVE",
"188 59 OFFCURVE",
"156 59 CURVE SMOOTH",
"127 59 OFFCURVE",
"112 84 OFFCURVE",
"112 129 CURVE SMOOTH",
"112 190 OFFCURVE",
"137 218 OFFCURVE",
"201 225 CURVE SMOOTH",
"267 232 LINE",
"267 290 LINE",
"197 283 LINE SMOOTH",
"83 271 OFFCURVE",
"40 219 OFFCURVE",
"40 124 CURVE SMOOTH",
"40 39 OFFCURVE",
"74 -8 OFFCURVE",
"136 -8 CURVE SMOOTH"
);
}
);
width = 385;
},
{
anchors = (
{
name = bottom;
position = "{181, 0}";
},
{
name = ogonek;
position = "{306, 10}";
},
{
name = top;
position = "{184, 478}";
}
);
layerId = "87A71899-7C85-4E95-82CD-7392C73A0331";
paths = (
{
closed = 1;
nodes = (
"296 0 LINE SMOOTH",
"298 0 OFFCURVE",
"299 1 OFFCURVE",
"299 3 CURVE SMOOTH",
"297 37 OFFCURVE",
"295 74 OFFCURVE",
"295 110 CURVE SMOOTH",
"295 354 LINE SMOOTH",
"295 449 OFFCURVE",
"263 487 OFFCURVE",
"185 486 CURVE SMOOTH",
"106 485 OFFCURVE",
"68 442 OFFCURVE",
"72 366 CURVE SMOOTH",
"72 364 OFFCURVE",
"73 363 OFFCURVE",
"75 363 CURVE SMOOTH",
"85 363 LINE SMOOTH",
"87 363 OFFCURVE",
"88 364 OFFCURVE",
"88 366 CURVE SMOOTH",
"84 435 OFFCURVE",
"117 470 OFFCURVE",
"185 470 CURVE SMOOTH",
"255 470 OFFCURVE",
"279 438 OFFCURVE",
"279 353 CURVE SMOOTH",
"279 103 LINE",
"279 99 LINE SMOOTH",
"279 74 OFFCURVE",
"281 40 OFFCURVE",
"284 3 CURVE SMOOTH",
"284 1 OFFCURVE",
"285 0 OFFCURVE",
"287 0 CURVE SMOOTH"
);
},
{
closed = 1;
nodes = (
"184 -8 OFFCURVE",
"223 16 OFFCURVE",
"285 91 CURVE",
"285 114 LINE",
"227 37 OFFCURVE",
"181 7 OFFCURVE",
"139 7 CURVE SMOOTH",
"90 7 OFFCURVE",
"66 46 OFFCURVE",
"66 111 CURVE SMOOTH",
"66 186 OFFCURVE",
"99 232 OFFCURVE",
"183 243 CURVE SMOOTH",
"283 256 LINE",
"283 271 LINE",
"183 259 LINE SMOOTH",
"89 246 OFFCURVE",
"50 195 OFFCURVE",
"50 111 CURVE SMOOTH",
"50 38 OFFCURVE",
"79 -8 OFFCURVE",
"138 -8 CURVE SMOOTH"
);
}
);
width = 369;
},
{
anchors = (
{
name = bottom;
position = "{231, 0}";
},
{
name = ogonek;
position = "{415, 10}";
},
{
name = top;
position = "{225, 500}";
}
);
layerId = "447BF32C-5B1D-49E6-885E-D276D7630B14";
paths = (
{
closed = 1;
nodes = (
"407 0 LINE SMOOTH",
"416 0 OFFCURVE",
"420 6 OFFCURVE",
"419 15 CURVE",
"416 45 OFFCURVE",
"415 77 OFFCURVE",
"415 132 CURVE SMOOTH",
"415 343 LINE SMOOTH",
"415 457 OFFCURVE",
"356 509 OFFCURVE",
"223 509 CURVE SMOOTH",
"92 509 OFFCURVE",
"27 452 OFFCURVE",
"35 343 CURVE SMOOTH",
"36 334 OFFCURVE",
"41 328 OFFCURVE",
"49 328 CURVE SMOOTH",
"173 328 LINE SMOOTH",
"182 328 OFFCURVE",
"188 334 OFFCURVE",
"187 342 CURVE SMOOTH",
"183 373 OFFCURVE",
"193 388 OFFCURVE",
"217 388 CURVE SMOOTH",
"240 388 OFFCURVE",
"247 379 OFFCURVE",
"247 349 CURVE SMOOTH",
"247 123 LINE",
"264 91 LINE SMOOTH",
"266 63 OFFCURVE",
"270 29 OFFCURVE",
"273 12 CURVE",
"275 3 OFFCURVE",
"279 0 OFFCURVE",
"288 0 CURVE SMOOTH"
);
},
{
closed = 1;
nodes = (
"191 -8 OFFCURVE",
"232 23 OFFCURVE",
"281 81 CURVE",
"267 162 LINE",
"244 129 OFFCURVE",
"223 113 OFFCURVE",
"202 113 CURVE SMOOTH",
"182 113 OFFCURVE",
"174 126 OFFCURVE",
"174 156 CURVE SMOOTH",
"174 189 OFFCURVE",
"186 205 OFFCURVE",
"222 210 CURVE SMOOTH",
"257 214 LINE",
"258 299 LINE",
"185 289 LINE SMOOTH",
"60 275 OFFCURVE",
"16 229 OFFCURVE",
"16 130 CURVE SMOOTH",
"16 43 OFFCURVE",
"57 -8 OFFCURVE",
"127 -8 CURVE SMOOTH"
);
}
);
width = 446;
}
);
leftKerningGroup = a;
rightKerningGroup = a;
rightMetricsKey = u;
unicode = 0061;
},
{
glyphname = ae;
lastChange = "2022-10-27 03:26:45 +0000";
layers = (
{
layerId = "315A68D9-B8D0-4E7E-8516-8D4632F47100";
paths = (
{
closed = 1;
nodes = (
"184 -8 OFFCURVE",
"224 20 OFFCURVE",
"271 74 CURVE",
"293 19 OFFCURVE",
"337 -8 OFFCURVE",
"405 -8 CURVE SMOOTH",
"495 -8 OFFCURVE",
"548 40 OFFCURVE",
"548 121 CURVE SMOOTH",
"548 129 OFFCURVE",
"545 134 OFFCURVE",
"540 134 CURVE SMOOTH",
"486 134 LINE SMOOTH",
"480 134 OFFCURVE",
"478 129 OFFCURVE",
"478 121 CURVE SMOOTH",
"478 81 OFFCURVE",
"454 59 OFFCURVE",
"408 59 CURVE SMOOTH",
"351 59 OFFCURVE",
"327 93 OFFCURVE",
"327 176 CURVE SMOOTH",
"327 228 LINE",
"547 228 LINE SMOOTH",
"551 228 OFFCURVE",
"554 231 OFFCURVE",
"554 237 CURVE SMOOTH",
"554 325 LINE SMOOTH",
"554 435 OFFCURVE",
"502 495 OFFCURVE",
"410 495 CURVE SMOOTH",
"363 495 OFFCURVE",
"323 477 OFFCURVE",
"298 442 CURVE",
"276 479 OFFCURVE",
"244 495 OFFCURVE",
"189 495 CURVE SMOOTH",
"100 495 OFFCURVE",
"49 446 OFFCURVE",
"56 369 CURVE",
"57 358 OFFCURVE",
"60 354 OFFCURVE",
"67 354 CURVE SMOOTH",
"119 354 LINE SMOOTH",
"124 354 OFFCURVE",
"127 358 OFFCURVE",
"127 364 CURVE",
"126 408 OFFCURVE",
"145 428 OFFCURVE",
"191 428 CURVE SMOOTH",
"241 428 OFFCURVE",
"256 408 OFFCURVE",
"256 348 CURVE SMOOTH",
"256 292 LINE",
"197 285 LINE SMOOTH",
"84 272 OFFCURVE",
"40 219 OFFCURVE",
"40 124 CURVE SMOOTH",
"40 39 OFFCURVE",
"74 -8 OFFCURVE",
"135 -8 CURVE SMOOTH"
);
},
{
closed = 1;
nodes = (
"127 59 OFFCURVE",
"112 84 OFFCURVE",
"112 129 CURVE SMOOTH",
"112 190 OFFCURVE",
"137 218 OFFCURVE",
"202 225 CURVE SMOOTH",
"256 231 LINE",
"256 175 LINE SMOOTH",
"256 158 OFFCURVE",
"257 142 OFFCURVE",
"259 128 CURVE",
"212 77 OFFCURVE",
"186 59 OFFCURVE",
"156 59 CURVE SMOOTH"
);
},
{
closed = 1;
nodes = (
"327 319 LINE SMOOTH",
"327 394 OFFCURVE",
"353 428 OFFCURVE",
"407 428 CURVE SMOOTH",
"459 428 OFFCURVE",
"482 396 OFFCURVE",
"482 320 CURVE SMOOTH",
"482 292 LINE",
"327 292 LINE"
);
}
);
width = 600;
},
{
layerId = "87A71899-7C85-4E95-82CD-7392C73A0331";
paths = (
{
closed = 1;
nodes = (
"183 -8 OFFCURVE",
"226 17 OFFCURVE",
"286 90 CURVE",
"301 24 OFFCURVE",
"345 -9 OFFCURVE",
"413 -8 CURVE SMOOTH",
"489 -8 OFFCURVE",
"530 36 OFFCURVE",
"530 119 CURVE SMOOTH",
"530 121 OFFCURVE",
"529 122 OFFCURVE",
"528 122 CURVE SMOOTH",
"516 122 LINE SMOOTH",
"515 122 OFFCURVE",
"514 121 OFFCURVE",
"514 119 CURVE SMOOTH",
"514 47 OFFCURVE",
"480 8 OFFCURVE",
"413 8 CURVE SMOOTH",
"337 8 OFFCURVE",
"295 57 OFFCURVE",
"295 150 CURVE SMOOTH",
"295 250 LINE",
"534 250 LINE SMOOTH",
"536 250 OFFCURVE",
"537 251 OFFCURVE",
"537 254 CURVE SMOOTH",
"537 328 LINE SMOOTH",
"537 433 OFFCURVE",
"490 486 OFFCURVE",
"410 486 CURVE SMOOTH",
"352 486 OFFCURVE",
"309 458 OFFCURVE",
"291 400 CURVE",
"283 461 OFFCURVE",
"247 487 OFFCURVE",
"185 486 CURVE SMOOTH",
"106 485 OFFCURVE",
"70 442 OFFCURVE",
"72 366 CURVE SMOOTH",
"72 364 OFFCURVE",
"73 363 OFFCURVE",
"75 363 CURVE SMOOTH",
"85 363 LINE SMOOTH",
"87 363 OFFCURVE",
"88 364 OFFCURVE",
"88 366 CURVE SMOOTH",
"86 435 OFFCURVE",
"117 470 OFFCURVE",
"185 470 CURVE SMOOTH",
"255 470 OFFCURVE",
"279 434 OFFCURVE",
"279 352 CURVE SMOOTH",
"279 266 LINE",
"185 256 LINE SMOOTH",
"91 245 OFFCURVE",
"50 195 OFFCURVE",
"50 111 CURVE SMOOTH",
"50 38 OFFCURVE",
"79 -8 OFFCURVE",
"138 -8 CURVE SMOOTH"
);
},
{
closed = 1;
nodes = (
"90 7 OFFCURVE",
"66 46 OFFCURVE",
"66 111 CURVE SMOOTH",
"66 186 OFFCURVE",
"101 231 OFFCURVE",
"185 240 CURVE SMOOTH",
"279 250 LINE",
"279 150 LINE SMOOTH",
"279 135 OFFCURVE",
"280 121 OFFCURVE",
"282 109 CURVE",
"225 36 OFFCURVE",
"181 7 OFFCURVE",
"139 7 CURVE SMOOTH"
);
},
{
closed = 1;
nodes = (
"295 327 LINE SMOOTH",
"295 421 OFFCURVE",
"339 470 OFFCURVE",
"410 470 CURVE SMOOTH",
"480 470 OFFCURVE",
"521 419 OFFCURVE",
"521 327 CURVE SMOOTH",
"521 266 LINE",
"295 266 LINE"
);
}
);
width = 593;
},
{
layerId = "447BF32C-5B1D-49E6-885E-D276D7630B14";
paths = (
{
closed = 1;
nodes = (
"183 -8 OFFCURVE",
"225 14 OFFCURVE",
"275 69 CURVE",
"305 17 OFFCURVE",
"363 -8 OFFCURVE",
"454 -8 CURVE SMOOTH",
"589 -8 OFFCURVE",
"651 41 OFFCURVE",
"651 151 CURVE SMOOTH",
"651 161 OFFCURVE",
"647 166 OFFCURVE",
"637 166 CURVE SMOOTH",
"503 166 LINE SMOOTH",
"495 166 OFFCURVE",
"491 161 OFFCURVE",
"491 153 CURVE SMOOTH",
"491 127 OFFCURVE",
"478 116 OFFCURVE",
"452 116 CURVE SMOOTH",
"425 116 OFFCURVE",
"414 129 OFFCURVE",
"414 164 CURVE SMOOTH",
"414 212 LINE",
"645 212 LINE SMOOTH",
"654 212 OFFCURVE",
"660 218 OFFCURVE",
"660 227 CURVE SMOOTH",
"660 308 LINE SMOOTH",
"660 435 OFFCURVE",
"591 509 OFFCURVE",
"472 509 CURVE SMOOTH",
"419 509 OFFCURVE",
"375 493 OFFCURVE",
"344 462 CURVE",
"317 494 OFFCURVE",
"277 509 OFFCURVE",
"216 509 CURVE SMOOTH",
"91 509 OFFCURVE",
"27 450 OFFCURVE",
"35 343 CURVE",
"36 334 OFFCURVE",
"42 328 OFFCURVE",
"49 328 CURVE SMOOTH",
"173 328 LINE SMOOTH",
"182 328 OFFCURVE",
"188 334 OFFCURVE",
"187 342 CURVE",
"183 373 OFFCURVE",
"193 388 OFFCURVE",
"217 388 CURVE SMOOTH",
"241 388 OFFCURVE",
"250 378 OFFCURVE",
"250 349 CURVE SMOOTH",
"250 298 LINE",
"185 290 LINE SMOOTH",
"62 276 OFFCURVE",
"16 232 OFFCURVE",
"16 130 CURVE SMOOTH",
"16 43 OFFCURVE",
"56 -8 OFFCURVE",
"127 -8 CURVE SMOOTH"
);
},
{
closed = 1;
nodes = (
"182 113 OFFCURVE",
"174 126 OFFCURVE",
"174 156 CURVE SMOOTH",
"174 190 OFFCURVE",
"187 205 OFFCURVE",
"222 209 CURVE SMOOTH",
"250 213 LINE",
"250 179 LINE SMOOTH",
"250 168 OFFCURVE",
"250 155 OFFCURVE",
"251 141 CURVE",
"235 123 OFFCURVE",
"219 113 OFFCURVE",
"203 113 CURVE SMOOTH"
);
},
{
closed = 1;
nodes = (
"414 335 LINE SMOOTH",
"414 370 OFFCURVE",
"427 385 OFFCURVE",
"455 385 CURVE SMOOTH",
"483 385 OFFCURVE",
"496 369 OFFCURVE",
"496 335 CURVE SMOOTH",
"496 303 LINE",
"414 303 LINE"
);
}
);
width = 686;
}
);
leftKerningGroup = a;
leftMetricsKey = a;
rightKerningGroup = e;
rightMetricsKey = e;
unicode = 00E6;
},
{
glyphname = b;
lastChange = "2022-10-27 03:26:45 +0000";
layers = (
{
layerId = "315A68D9-B8D0-4E7E-8516-8D4632F47100";
paths = (
{
closed = 1;
nodes = (
"316 -8 OFFCURVE",
"365 46 OFFCURVE",
"365 173 CURVE SMOOTH",
"365 350 LINE SMOOTH",
"365 448 OFFCURVE",
"329 495 OFFCURVE",
"256 495 CURVE SMOOTH",
"206 495 OFFCURVE",
"160 469 OFFCURVE",
"113 416 CURVE",
"115 349 LINE",
"162 402 OFFCURVE",
"199 428 OFFCURVE",
"235 428 CURVE SMOOTH",
"275 428 OFFCURVE",
"293 403 OFFCURVE",
"293 346 CURVE SMOOTH",
"293 178 LINE SMOOTH",
"293 92 OFFCURVE",
"265 59 OFFCURVE",
"203 59 CURVE SMOOTH",
"180 59 OFFCURVE",
"152 63 OFFCURVE",
"129 68 CURVE",
"129 674 LINE SMOOTH",
"129 679 OFFCURVE",
"126 683 OFFCURVE",
"121 683 CURVE SMOOTH",
"65 683 LINE SMOOTH",
"60 683 OFFCURVE",
"57 679 OFFCURVE",
"57 674 CURVE SMOOTH",
"57 11 LINE",
"118 6 OFFCURVE",
"158 -8 OFFCURVE",
"211 -8 CURVE SMOOTH"
);
}
);
width = 415;
},
{
layerId = "87A71899-7C85-4E95-82CD-7392C73A0331";
paths = (
{
closed = 1;
nodes = (
"294 -8 OFFCURVE",
"351 34 OFFCURVE",
"351 145 CURVE SMOOTH",
"351 346 LINE SMOOTH",
"351 444 OFFCURVE",
"316 486 OFFCURVE",
"247 486 CURVE SMOOTH",
"190 486 OFFCURVE",
"138 448 OFFCURVE",
"85 387 CURVE",
"85 366 LINE",
"139 429 OFFCURVE",
"191 470 OFFCURVE",
"246 470 CURVE SMOOTH",
"307 470 OFFCURVE",
"335 431 OFFCURVE",
"335 344 CURVE SMOOTH",
"335 144 LINE SMOOTH",
"335 46 OFFCURVE",
"285 8 OFFCURVE",
"211 8 CURVE SMOOTH",
"168 8 OFFCURVE",
"131 19 OFFCURVE",
"90 28 CURVE",
"90 680 LINE SMOOTH",
"90 682 OFFCURVE",
"89 683 OFFCURVE",
"87 683 CURVE SMOOTH",
"77 683 LINE SMOOTH",
"75 683 OFFCURVE",
"74 682 OFFCURVE",
"74 680 CURVE SMOOTH",
"74 16 LINE",
"124 6 OFFCURVE",
"167 -8 OFFCURVE",
"211 -8 CURVE SMOOTH"
);
}
);
width = 410;
},
{
layerId = "447BF32C-5B1D-49E6-885E-D276D7630B14";
paths = (
{
closed = 1;
nodes = (
"375 -8 OFFCURVE",
"436 48 OFFCURVE",
"436 164 CURVE SMOOTH",
"436 369 LINE SMOOTH",
"436 466 OFFCURVE",
"401 509 OFFCURVE",
"322 509 CURVE SMOOTH",
"278 509 OFFCURVE",
"238 491 OFFCURVE",
"184 446 CURVE",
"187 342 LINE",
"204 354 OFFCURVE",
"223 365 OFFCURVE",
"241 365 CURVE SMOOTH",
"260 365 OFFCURVE",
"268 355 OFFCURVE",
"268 331 CURVE SMOOTH",
"268 171 LINE SMOOTH",
"268 142 OFFCURVE",
"256 126 OFFCURVE",
"232 126 CURVE SMOOTH",
"220 126 OFFCURVE",
"209 127 OFFCURVE",
"199 130 CURVE",
"199 669 LINE SMOOTH",
"199 677 OFFCURVE",
"194 683 OFFCURVE",
"186 683 CURVE SMOOTH",
"45 683 LINE SMOOTH",
"37 683 OFFCURVE",
"31 677 OFFCURVE",
"31 669 CURVE SMOOTH",
"31 13 LINE",
"99 7 OFFCURVE",
"162 -8 OFFCURVE",
"246 -8 CURVE SMOOTH"
);
}
);
width = 463;
}
);
leftKerningGroup = h;
leftMetricsKey = h;
rightKerningGroup = o;
rightMetricsKey = "=o+2";
unicode = 0062;
},
{
glyphname = c;
lastChange = "2022-10-27 03:26:45 +0000";
layers = (
{
anchors = (
{
name = bottom;
position = "{210, 0}";
},
{
name = ogonek;
position = "{255, 10}";
},
{
name = top;
position = "{204, 487}";
}
);
layerId = "315A68D9-B8D0-4E7E-8516-8D4632F47100";
paths = (
{
closed = 1;
nodes = (
"303 -8 OFFCURVE",
"353 45 OFFCURVE",
"353 141 CURVE SMOOTH",
"353 148 OFFCURVE",
"350 151 OFFCURVE",
"345 151 CURVE SMOOTH",
"291 151 LINE SMOOTH",
"285 151 OFFCURVE",
"283 147 OFFCURVE",
"283 138 CURVE SMOOTH",
"284 87 OFFCURVE",
"258 59 OFFCURVE",
"207 59 CURVE SMOOTH",
"147 59 OFFCURVE",
"119 93 OFFCURVE",
"119 172 CURVE SMOOTH",
"119 314 LINE SMOOTH",
"119 395 OFFCURVE",
"147 428 OFFCURVE",
"207 428 CURVE SMOOTH",
"257 428 OFFCURVE",
"287 398 OFFCURVE",
"284 348 CURVE SMOOTH",
"284 340 OFFCURVE",
"286 336 OFFCURVE",
"292 336 CURVE SMOOTH",
"345 336 LINE SMOOTH",
"351 336 OFFCURVE",
"354 340 OFFCURVE",
"354 352 CURVE SMOOTH",
"358 441 OFFCURVE",
"303 495 OFFCURVE",
"207 495 CURVE SMOOTH",
"101 495 OFFCURVE",
"47 435 OFFCURVE",
"47 318 CURVE SMOOTH",
"47 168 LINE SMOOTH",
"47 51 OFFCURVE",
"100 -8 OFFCURVE",
"207 -8 CURVE SMOOTH"
);
}
);
width = 400;
},
{
anchors = (
{
name = bottom;
position = "{192, 0}";
},
{
name = ogonek;
position = "{256, 10}";
},
{
name = top;
position = "{192, 478}";
}
);
layerId = "87A71899-7C85-4E95-82CD-7392C73A0331";
paths = (
{
closed = 1;
nodes = (
"287 -7 OFFCURVE",
"327 44 OFFCURVE",
"326 139 CURVE SMOOTH",
"326 141 OFFCURVE",
"325 142 OFFCURVE",
"323 142 CURVE SMOOTH",
"313 142 LINE SMOOTH",
"311 142 OFFCURVE",
"310 141 OFFCURVE",
"310 139 CURVE SMOOTH",
"311 52 OFFCURVE",
"276 8 OFFCURVE",
"198 8 CURVE SMOOTH",
"115 8 OFFCURVE",
"73 53 OFFCURVE",
"73 146 CURVE SMOOTH",
"73 330 LINE SMOOTH",
"73 424 OFFCURVE",
"114 470 OFFCURVE",
"195 470 CURVE SMOOTH",
"270 470 OFFCURVE",
"311 423 OFFCURVE",
"310 348 CURVE SMOOTH",
"310 346 OFFCURVE",
"311 345 OFFCURVE",
"313 345 CURVE SMOOTH",
"323 345 LINE SMOOTH",
"325 345 OFFCURVE",
"326 346 OFFCURVE",
"326 349 CURVE SMOOTH",
"329 433 OFFCURVE",
"280 486 OFFCURVE",
"195 486 CURVE SMOOTH",
"105 486 OFFCURVE",
"57 435 OFFCURVE",
"57 330 CURVE SMOOTH",
"57 145 LINE SMOOTH",
"57 42 OFFCURVE",
"106 -9 OFFCURVE",
"198 -8 CURVE SMOOTH"
);
}
);
width = 381;
},
{
anchors = (
{
name = bottom;
position = "{240, 0}";
},
{
name = ogonek;
position = "{304, 10}";
},
{
name = top;
position = "{228, 500}";
}
);
layerId = "447BF32C-5B1D-49E6-885E-D276D7630B14";
paths = (
{
closed = 1;
nodes = (
"369 -8 OFFCURVE",
"433 62 OFFCURVE",
"428 193 CURVE SMOOTH",
"428 202 OFFCURVE",
"422 208 OFFCURVE",
"414 208 CURVE SMOOTH",
"289 208 LINE SMOOTH",
"282 208 OFFCURVE",
"276 201 OFFCURVE",
"276 193 CURVE SMOOTH",
"276 152 OFFCURVE",
"265 135 OFFCURVE",
"235 135 CURVE SMOOTH",
"205 135 OFFCURVE",
"193 150 OFFCURVE",
"193 196 CURVE SMOOTH",
"193 309 LINE SMOOTH",
"193 351 OFFCURVE",
"206 366 OFFCURVE",
"236 366 CURVE SMOOTH",
"265 366 OFFCURVE",
"277 352 OFFCURVE",
"276 308 CURVE SMOOTH",
"276 300 OFFCURVE",
"282 293 OFFCURVE",
"290 293 CURVE SMOOTH",
"413 293 LINE SMOOTH",
"422 293 OFFCURVE",
"427 300 OFFCURVE",
"428 311 CURVE SMOOTH",
"441 423 OFFCURVE",
"365 509 OFFCURVE",
"233 509 CURVE SMOOTH",
"101 509 OFFCURVE",
"25 441 OFFCURVE",
"25 316 CURVE SMOOTH",
"25 190 LINE SMOOTH",
"25 60 OFFCURVE",
"99 -8 OFFCURVE",
"234 -8 CURVE SMOOTH"
);
}
);
width = 455;
}
);
leftKerningGroup = o;
leftMetricsKey = o;
rightKerningGroup = c;
unicode = 0063;
},
{
glyphname = d;
lastChange = "2022-10-27 03:26:45 +0000";
layers = (
{
anchors = (
{
name = bottom;
position = "{208, 0}";
},
{
name = center;
position = "{208, 243}";
},
{
name = top;
position = "{208, 487}";
},
{
name = topright;
position = "{397, 487}";
}
);
layerId = "315A68D9-B8D0-4E7E-8516-8D4632F47100";
paths = (
{
closed = 1;
nodes = (
"213 -8 OFFCURVE",
"253 19 OFFCURVE",
"302 75 CURVE",
"301 141 LINE",
"251 83 OFFCURVE",
"217 59 OFFCURVE",
"180 59 CURVE SMOOTH",
"140 59 OFFCURVE",
"121 83 OFFCURVE",
"121 139 CURVE SMOOTH",
"121 321 LINE SMOOTH",
"121 394 OFFCURVE",
"148 428 OFFCURVE",
"201 428 CURVE SMOOTH",
"228 428 OFFCURVE",
"264 419 OFFCURVE",
"300 399 CURVE",
"298 465 LINE",
"272 481 OFFCURVE",
"229 495 OFFCURVE",
"186 495 CURVE SMOOTH",
"100 495 OFFCURVE",
"49 437 OFFCURVE",
"49 331 CURVE SMOOTH",
"49 141 LINE SMOOTH",
"49 42 OFFCURVE",
"87 -8 OFFCURVE",
"159 -8 CURVE SMOOTH"
);
},
{
closed = 1;
nodes = (
"356 0 LINE SMOOTH",
"362 0 OFFCURVE",
"365 4 OFFCURVE",
"364 12 CURVE",
"361 31 OFFCURVE",
"360 71 OFFCURVE",
"360 118 CURVE SMOOTH",
"360 674 LINE SMOOTH",
"360 679 OFFCURVE",
"356 683 OFFCURVE",
"351 683 CURVE SMOOTH",
"296 683 LINE SMOOTH",
"291 683 OFFCURVE",
"288 679 OFFCURVE",
"288 674 CURVE SMOOTH",
"288 116 LINE",
"292 97 LINE SMOOTH",
"292 77 OFFCURVE",
"295 35 OFFCURVE",
"298 10 CURVE",
"299 3 OFFCURVE",
"302 0 OFFCURVE",
"308 0 CURVE SMOOTH"
);
}
);
width = 417;
},
{
anchors = (
{
name = bottom;
position = "{203, 0}";
},
{
name = center;
position = "{203, 239}";
},
{
name = top;
position = "{203, 478}";
},
{
name = topright;
position = "{390, 478}";
}
);
layerId = "87A71899-7C85-4E95-82CD-7392C73A0331";
paths = (
{
closed = 1;
nodes = (
"223 -8 OFFCURVE",
"269 30 OFFCURVE",
"322 93 CURVE",
"322 115 LINE",
"273 53 OFFCURVE",
"222 8 OFFCURVE",
"165 8 CURVE SMOOTH",
"106 8 OFFCURVE",
"75 41 OFFCURVE",
"75 130 CURVE SMOOTH",
"75 331 LINE SMOOTH",
"75 432 OFFCURVE",
"124 470 OFFCURVE",
"192 470 CURVE SMOOTH",
"237 470 OFFCURVE",
"279 453 OFFCURVE",
"327 421 CURVE",
"327 440 LINE",
"282 469 OFFCURVE",
"239 486 OFFCURVE",
"192 486 CURVE SMOOTH",
"112 486 OFFCURVE",
"59 441 OFFCURVE",
"59 331 CURVE SMOOTH",
"59 128 LINE SMOOTH",
"59 29 OFFCURVE",
"96 -8 OFFCURVE",
"164 -8 CURVE SMOOTH"
);
},
{
closed = 1;
nodes = (
"335 0 LINE SMOOTH",
"337 0 OFFCURVE",
"338 1 OFFCURVE",
"338 3 CURVE SMOOTH",
"336 38 OFFCURVE",
"334 74 OFFCURVE",
"334 110 CURVE SMOOTH",
"334 680 LINE SMOOTH",
"334 682 OFFCURVE",
"333 683 OFFCURVE",
"331 683 CURVE SMOOTH",
"321 683 LINE SMOOTH",
"319 683 OFFCURVE",
"318 682 OFFCURVE",
"318 680 CURVE SMOOTH",
"318 104 LINE",
"318 99 LINE",
"318 72 OFFCURVE",
"320 37 OFFCURVE",
"323 3 CURVE SMOOTH",
"323 1 OFFCURVE",
"324 0 OFFCURVE",
"326 0 CURVE SMOOTH"
);
}
);
width = 408;
},
{
anchors = (
{
name = bottom;
position = "{234, 0}";
},
{
name = center;
position = "{234, 250}";
},
{
name = top;
position = "{234, 500}";
},
{
name = topright;
position = "{447, 500}";
}
);
layerId = "447BF32C-5B1D-49E6-885E-D276D7630B14";
paths = (
{
closed = 1;
nodes = (
"210 -8 OFFCURVE",
"267 37 OFFCURVE",
"300 86 CURVE",
"277 164 LINE",
"262 147 OFFCURVE",
"244 135 OFFCURVE",
"223 135 CURVE SMOOTH",
"203 135 OFFCURVE",
"195 146 OFFCURVE",
"195 168 CURVE SMOOTH",
"195 330 LINE SMOOTH",
"195 358 OFFCURVE",
"206 374 OFFCURVE",
"229 374 CURVE SMOOTH",
"243 374 OFFCURVE",
"262 371 OFFCURVE",
"281 362 CURVE",
"280 480 LINE",
"247 499 OFFCURVE",
"199 509 OFFCURVE",
"160 509 CURVE SMOOTH",
"73 509 OFFCURVE",
"27 457 OFFCURVE",
"27 340 CURVE SMOOTH",
"27 136 LINE SMOOTH",
"27 34 OFFCURVE",
"63 -8 OFFCURVE",
"142 -8 CURVE SMOOTH"
);
},
{
closed = 1;
nodes = (
"426 0 LINE SMOOTH",
"434 0 OFFCURVE",
"439 5 OFFCURVE",
"438 16 CURVE",
"435 49 OFFCURVE",
"434 90 OFFCURVE",
"434 132 CURVE SMOOTH",
"434 669 LINE SMOOTH",
"434 677 OFFCURVE",
"428 683 OFFCURVE",
"421 683 CURVE SMOOTH",
"280 683 LINE SMOOTH",
"271 683 OFFCURVE",
"266 677 OFFCURVE",
"266 669 CURVE SMOOTH",
"266 134 LINE",
"284 91 LINE SMOOTH",
"285 65 OFFCURVE",
"287 31 OFFCURVE",
"292 12 CURVE",
"294 2 OFFCURVE",
"297 0 OFFCURVE",
"306 0 CURVE SMOOTH"
);
}
);
width = 465;
}
);
leftKerningGroup = o;
leftMetricsKey = "=o+2";
rightKerningGroup = d;
rightMetricsKey = u;
unicode = 0064;
},
{
glyphname = eth;
lastChange = "2022-10-27 03:26:45 +0000";
layers = (
{
layerId = "315A68D9-B8D0-4E7E-8516-8D4632F47100";
paths = (
{
closed = 1;
nodes = (
"313 -8 OFFCURVE",
"366 52 OFFCURVE",
"366 170 CURVE SMOOTH",
"366 361 LINE SMOOTH",
"366 530 OFFCURVE",
"293 651 OFFCURVE",
"171 690 CURVE SMOOTH",
"162 692 OFFCURVE",
"159 692 OFFCURVE",
"154 685 CURVE SMOOTH",
"131 650 LINE SMOOTH",
"127 643 OFFCURVE",
"127 639 OFFCURVE",
"138 635 CURVE SMOOTH",
"245 597 OFFCURVE",
"302 497 OFFCURVE",
"295 345 CURVE SMOOTH",
"295 172 LINE SMOOTH",
"295 94 OFFCURVE",
"267 58 OFFCURVE",
"207 58 CURVE SMOOTH",
"146 58 OFFCURVE",
"119 89 OFFCURVE",
"119 167 CURVE SMOOTH",
"119 297 LINE SMOOTH",
"119 365 OFFCURVE",
"145 395 OFFCURVE",
"188 395 CURVE SMOOTH",
"232 395 OFFCURVE",
"274 364 OFFCURVE",
"302 321 CURVE",
"303 394 LINE",
"272 435 OFFCURVE",
"225 463 OFFCURVE",
"170 463 CURVE SMOOTH",
"97 463 OFFCURVE",
"47 410 OFFCURVE",
"47 304 CURVE SMOOTH",
"47 163 LINE SMOOTH",
"47 47 OFFCURVE",
"100 -8 OFFCURVE",
"207 -8 CURVE SMOOTH"
);
},
{
closed = 1;
nodes = (
"352 636 LINE",
"356 639 OFFCURVE",
"359 643 OFFCURVE",
"356 647 CURVE SMOOTH",
"338 680 LINE SMOOTH",
"335 685 OFFCURVE",
"332 686 OFFCURVE",
"327 683 CURVE",
"130 567 LINE",
"126 564 OFFCURVE",
"123 561 OFFCURVE",
"126 556 CURVE SMOOTH",
"146 522 LINE SMOOTH",
"149 517 OFFCURVE",
"152 516 OFFCURVE",
"156 519 CURVE"
);
}
);
width = 414;
},
{
layerId = "87A71899-7C85-4E95-82CD-7392C73A0331";
paths = (
{
closed = 1;
nodes = (
"288 -8 OFFCURVE",
"340 47 OFFCURVE",
"340 144 CURVE SMOOTH",
"340 363 LINE SMOOTH",
"340 523 OFFCURVE",
"287 636 OFFCURVE",
"161 690 CURVE SMOOTH",
"159 691 OFFCURVE",
"158 691 OFFCURVE",
"157 689 CURVE SMOOTH",
"152 680 LINE SMOOTH",
"151 679 OFFCURVE",
"151 677 OFFCURVE",
"153 676 CURVE SMOOTH",
"269 628 OFFCURVE",
"324 522 OFFCURVE",
"324 363 CURVE SMOOTH",
"324 146 LINE SMOOTH",
"324 57 OFFCURVE",
"279 8 OFFCURVE",
"199 8 CURVE SMOOTH",
"118 8 OFFCURVE",
"73 57 OFFCURVE",
"73 146 CURVE SMOOTH",
"73 297 LINE SMOOTH",
"73 377 OFFCURVE",
"108 419 OFFCURVE",
"170 419 CURVE SMOOTH",
"229 419 OFFCURVE",
"281 375 OFFCURVE",
"329 326 CURVE",
"329 349 LINE",
"286 391 OFFCURVE",
"234 435 OFFCURVE",
"170 435 CURVE SMOOTH",
"101 435 OFFCURVE",
"57 387 OFFCURVE",
"57 300 CURVE SMOOTH",
"57 144 LINE SMOOTH",
"57 47 OFFCURVE",
"109 -8 OFFCURVE",
"199 -8 CURVE SMOOTH"
);
},
{
closed = 1;
nodes = (
"337 651 LINE SMOOTH",
"339 652 OFFCURVE",
"339 653 OFFCURVE",
"338 655 CURVE SMOOTH",
"333 665 LINE SMOOTH",
"332 666 OFFCURVE",
"331 666 OFFCURVE",
"329 665 CURVE SMOOTH",
"137 548 LINE SMOOTH",
"136 547 OFFCURVE",
"135 546 OFFCURVE",
"136 544 CURVE SMOOTH",
"141 534 LINE SMOOTH",
"142 532 OFFCURVE",
"143 532 OFFCURVE",
"145 533 CURVE SMOOTH"
);
}
);
width = 397;
},
{
layerId = "447BF32C-5B1D-49E6-885E-D276D7630B14";
paths = (
{
closed = 1;
nodes = (
"356 -8 OFFCURVE",
"435 63 OFFCURVE",
"435 186 CURVE SMOOTH",
"435 372 LINE SMOOTH",
"435 539 OFFCURVE",
"367 651 OFFCURVE",
"204 690 CURVE SMOOTH",
"194 692 OFFCURVE",
"189 692 OFFCURVE",
"182 683 CURVE SMOOTH",
"122 601 LINE SMOOTH",
"117 592 OFFCURVE",
"119 584 OFFCURVE",
"128 582 CURVE SMOOTH",
"267 545 OFFCURVE",
"279 474 OFFCURVE",
"268 333 CURVE SMOOTH",
"268 193 LINE SMOOTH",
"268 150 OFFCURVE",
"256 135 OFFCURVE",
"229 135 CURVE SMOOTH",
"203 135 OFFCURVE",
"193 149 OFFCURVE",
"193 182 CURVE SMOOTH",
"193 269 LINE SMOOTH",
"193 307 OFFCURVE",
"204 324 OFFCURVE",
"228 324 CURVE SMOOTH",
"247 324 OFFCURVE",
"264 317 OFFCURVE",
"282 300 CURVE",
"282 419 LINE",
"250 447 OFFCURVE",
"206 460 OFFCURVE",
"166 460 CURVE SMOOTH",
"72 460 OFFCURVE",
"25 401 OFFCURVE",
"25 279 CURVE SMOOTH",
"25 185 LINE SMOOTH",
"25 62 OFFCURVE",
"96 -8 OFFCURVE",
"227 -8 CURVE SMOOTH"
);
},
{
closed = 1;
nodes = (
"388 636 LINE",
"392 639 OFFCURVE",
"394 641 OFFCURVE",
"391 646 CURVE SMOOTH",
"369 683 LINE SMOOTH",
"366 689 OFFCURVE",
"363 690 OFFCURVE",
"358 687 CURVE",
"142 537 LINE",
"137 534 OFFCURVE",
"135 531 OFFCURVE",
"138 526 CURVE SMOOTH",
"161 490 LINE SMOOTH",
"165 485 OFFCURVE",
"167 483 OFFCURVE",
"172 487 CURVE"
);
}
);
width = 460;
}
);
leftKerningGroup = o;
leftMetricsKey = o;
rightKerningGroup = o;
rightMetricsKey = o;
unicode = 00F0;
},
{
glyphname = dcroat;
lastChange = "2022-10-27 03:26:45 +0000";
layers = (
{
components = (
{
alignment = -1;
name = d;
}
);
layerId = "315A68D9-B8D0-4E7E-8516-8D4632F47100";
paths = (
{
closed = 1;
nodes = (
"360 556 LINE",
"412 556 LINE SMOOTH",
"417 556 OFFCURVE",
"420 560 OFFCURVE",
"420 566 CURVE SMOOTH",
"420 610 LINE SMOOTH",
"420 616 OFFCURVE",
"417 619 OFFCURVE",
"412 619 CURVE SMOOTH",
"210 619 LINE SMOOTH",
"205 619 OFFCURVE",
"201 616 OFFCURVE",
"201 610 CURVE SMOOTH",
"201 566 LINE SMOOTH",
"201 560 OFFCURVE",
"205 556 OFFCURVE",
"210 556 CURVE SMOOTH"
);
}
);
width = 417;
},
{
components = (
{
alignment = -1;
name = d;
}
);
layerId = "87A71899-7C85-4E95-82CD-7392C73A0331";
paths = (
{
closed = 1;
nodes = (
"334 584 LINE",
"406 584 LINE SMOOTH",
"408 584 OFFCURVE",
"409 585 OFFCURVE",
"409 587 CURVE SMOOTH",
"409 597 LINE SMOOTH",
"409 599 OFFCURVE",
"408 600 OFFCURVE",
"406 600 CURVE SMOOTH",
"205 600 LINE SMOOTH",
"203 600 OFFCURVE",
"202 599 OFFCURVE",
"202 597 CURVE SMOOTH",
"202 587 LINE SMOOTH",
"202 585 OFFCURVE",
"203 584 OFFCURVE",
"205 584 CURVE SMOOTH"
);
}
);
width = 408;
},
{
components = (
{
alignment = -1;
name = d;
}
);
layerId = "447BF32C-5B1D-49E6-885E-D276D7630B14";
paths = (
{
closed = 1;
nodes = (
"434 547 LINE",
"464 547 LINE SMOOTH",
"472 547 OFFCURVE",
"477 553 OFFCURVE",
"477 561 CURVE SMOOTH",
"477 634 LINE SMOOTH",
"477 642 OFFCURVE",
"473 647 OFFCURVE",
"464 647 CURVE SMOOTH",
"208 647 LINE SMOOTH",
"200 647 OFFCURVE",
"195 642 OFFCURVE",
"195 634 CURVE SMOOTH",
"195 561 LINE SMOOTH",
"195 553 OFFCURVE",
"200 547 OFFCURVE",
"208 547 CURVE SMOOTH"
);
}
);
width = 475;
}
);
leftKerningGroup = o;
leftMetricsKey = "=o+2";
rightKerningGroup = dcroat;
unicode = 0111;
},
{
glyphname = e;
lastChange = "2022-10-27 03:26:45 +0000";
layers = (
{
anchors = (
{
name = bottom;
position = "{204, 0}";
},
{
name = ogonek;
position = "{283, 11}";
},
{
name = top;
position = "{201, 491}";
}
);
layerId = "315A68D9-B8D0-4E7E-8516-8D4632F47100";
paths = (
{
closed = 1;
nodes = (
"299 -8 OFFCURVE",
"352 41 OFFCURVE",
"350 125 CURVE SMOOTH",
"349 130 OFFCURVE",
"346 134 OFFCURVE",
"342 134 CURVE SMOOTH",
"287 134 LINE SMOOTH",
"283 134 OFFCURVE",
"279 129 OFFCURVE",
"279 123 CURVE SMOOTH",
"281 81 OFFCURVE",
"256 59 OFFCURVE",
"207 59 CURVE SMOOTH",
"145 59 OFFCURVE",
"119 93 OFFCURVE",
"119 176 CURVE SMOOTH",
"119 226 LINE",
"349 226 LINE SMOOTH",
"353 226 OFFCURVE",
"356 230 OFFCURVE",
"356 235 CURVE SMOOTH",
"356 325 LINE SMOOTH",
"356 437 OFFCURVE",
"303 495 OFFCURVE",
"202 495 CURVE SMOOTH",
"100 495 OFFCURVE",
"47 439 OFFCURVE",
"47 322 CURVE SMOOTH",
"47 167 LINE SMOOTH",
"47 49 OFFCURVE",
"101 -8 OFFCURVE",
"205 -8 CURVE SMOOTH"
);
},
{
closed = 1;
nodes = (
"119 321 LINE SMOOTH",
"119 394 OFFCURVE",
"145 428 OFFCURVE",
"203 428 CURVE SMOOTH",
"259 428 OFFCURVE",
"284 396 OFFCURVE",
"284 321 CURVE SMOOTH",
"284 291 LINE",
"119 291 LINE"
);
}
);
width = 402;
},
{
anchors = (
{
name = bottom;
position = "{192, 0}";
},
{
name = ogonek;
position = "{260, 10}";
},
{
name = top;
position = "{192, 478}";
}
);
layerId = "87A71899-7C85-4E95-82CD-7392C73A0331";
paths = (
{
closed = 1;
nodes = (
"281 -8 OFFCURVE",
"322 36 OFFCURVE",
"322 119 CURVE SMOOTH",
"322 121 OFFCURVE",
"321 122 OFFCURVE",
"319 122 CURVE SMOOTH",
"308 122 LINE SMOOTH",
"307 122 OFFCURVE",
"306 121 OFFCURVE",
"306 119 CURVE SMOOTH",
"305 47 OFFCURVE",
"271 8 OFFCURVE",
"198 8 CURVE SMOOTH",
"115 8 OFFCURVE",
"73 57 OFFCURVE",
"73 150 CURVE SMOOTH",
"73 248 LINE",
"326 248 LINE SMOOTH",
"328 248 OFFCURVE",
"329 249 OFFCURVE",
"329 252 CURVE SMOOTH",
"329 328 LINE SMOOTH",
"329 433 OFFCURVE",
"279 486 OFFCURVE",
"193 486 CURVE SMOOTH",
"107 486 OFFCURVE",
"57 435 OFFCURVE",
"57 327 CURVE SMOOTH",
"57 149 LINE SMOOTH",
"57 44 OFFCURVE",
"106 -9 OFFCURVE",
"198 -8 CURVE SMOOTH"
);
},
{
closed = 1;
nodes = (
"73 327 LINE SMOOTH",
"73 421 OFFCURVE",
"116 470 OFFCURVE",
"193 470 CURVE SMOOTH",
"271 470 OFFCURVE",
"313 419 OFFCURVE",
"313 327 CURVE SMOOTH",
"313 264 LINE",
"73 264 LINE"
);
}
);
width = 385;
},
{
anchors = (
{
name = bottom;
position = "{236, 0}";
},
{
name = ogonek;
position = "{352, 10}";
},
{
name = top;
position = "{232, 501}";
}
);
layerId = "447BF32C-5B1D-49E6-885E-D276D7630B14";
paths = (
{
closed = 1;
nodes = (
"370 -8 OFFCURVE",
"431 42 OFFCURVE",
"431 152 CURVE SMOOTH",
"430 162 OFFCURVE",
"426 166 OFFCURVE",
"417 166 CURVE SMOOTH",
"284 166 LINE SMOOTH",
"276 166 OFFCURVE",
"271 162 OFFCURVE",
"271 154 CURVE SMOOTH",
"271 126 OFFCURVE",
"257 116 OFFCURVE",
"231 116 CURVE SMOOTH",
"202 116 OFFCURVE",
"191 130 OFFCURVE",
"191 164 CURVE SMOOTH",
"191 210 LINE",
"425 210 LINE SMOOTH",
"434 210 OFFCURVE",
"440 216 OFFCURVE",
"440 225 CURVE SMOOTH",
"440 308 LINE SMOOTH",
"440 444 OFFCURVE",
"372 509 OFFCURVE",
"231 509 CURVE SMOOTH",
"96 509 OFFCURVE",
"25 438 OFFCURVE",
"25 312 CURVE SMOOTH",
"25 178 LINE SMOOTH",
"25 51 OFFCURVE",
"91 -8 OFFCURVE",
"233 -8 CURVE SMOOTH"
);
},
{
closed = 1;
nodes = (
"191 334 LINE SMOOTH",
"191 369 OFFCURVE",
"203 384 OFFCURVE",
"234 384 CURVE SMOOTH",
"263 384 OFFCURVE",
"275 369 OFFCURVE",
"275 334 CURVE SMOOTH",
"275 301 LINE",
"191 301 LINE"
);
}
);
width = 466;
}
);
leftKerningGroup = o;
leftMetricsKey = o;
rightKerningGroup = e;
unicode = 0065;
},
{
glyphname = f;
lastChange = "2022-10-27 03:26:45 +0000";
layers = (
{
anchors = (
{
name = bottom;
position = "{145, 0}";
},
{
name = top;
position = "{145, 487}";
}
);
layerId = "315A68D9-B8D0-4E7E-8516-8D4632F47100";
paths = (
{
closed = 1;
nodes = (
"148 0 LINE SMOOTH",
"153 0 OFFCURVE",
"156 4 OFFCURVE",
"156 9 CURVE SMOOTH",
"156 421 LINE",
"260 421 LINE SMOOTH",
"266 421 OFFCURVE",
"269 424 OFFCURVE",
"269 429 CURVE SMOOTH",
"269 478 LINE SMOOTH",
"269 483 OFFCURVE",
"266 487 OFFCURVE",
"260 487 CURVE SMOOTH",
"156 487 LINE",
"156 549 LINE SMOOTH",
"156 602 OFFCURVE",
"175 625 OFFCURVE",
"217 625 CURVE SMOOTH",
"238 625 OFFCURVE",
"260 619 OFFCURVE",
"276 612 CURVE",
"287 607 OFFCURVE",
"292 610 OFFCURVE",
"292 617 CURVE SMOOTH",
"292 663 LINE SMOOTH",
"292 670 OFFCURVE",
"290 673 OFFCURVE",
"281 678 CURVE",
"265 685 OFFCURVE",
"235 691 OFFCURVE",
"205 691 CURVE SMOOTH",
"126 691 OFFCURVE",
"84 643 OFFCURVE",
"84 550 CURVE SMOOTH",
"84 487 LINE",
"27 487 LINE SMOOTH",
"22 487 OFFCURVE",
"19 483 OFFCURVE",
"19 478 CURVE SMOOTH",
"19 429 LINE SMOOTH",
"19 424 OFFCURVE",
"22 421 OFFCURVE",
"27 421 CURVE SMOOTH",
"84 421 LINE",
"84 9 LINE SMOOTH",
"84 4 OFFCURVE",
"87 0 OFFCURVE",
"92 0 CURVE SMOOTH"
);
}
);
width = 289;
},
{
anchors = (
{
name = bottom;
position = "{135, 0}";
},
{
name = top;
position = "{135, 478}";
}
);
layerId = "87A71899-7C85-4E95-82CD-7392C73A0331";
paths = (
{
closed = 1;
nodes = (
"107 0 LINE SMOOTH",
"109 0 OFFCURVE",
"110 1 OFFCURVE",
"110 3 CURVE SMOOTH",
"110 462 LINE",
"246 462 LINE SMOOTH",
"248 462 OFFCURVE",
"249 463 OFFCURVE",
"249 465 CURVE SMOOTH",
"249 475 LINE SMOOTH",
"249 477 OFFCURVE",
"248 478 OFFCURVE",
"246 478 CURVE SMOOTH",
"110 478 LINE",
"110 555 LINE SMOOTH",
"110 639 OFFCURVE",
"131 675 OFFCURVE",
"199 675 CURVE SMOOTH",
"220 675 OFFCURVE",
"244 671 OFFCURVE",
"265 665 CURVE SMOOTH",
"267 664 OFFCURVE",
"268 665 OFFCURVE",
"268 667 CURVE SMOOTH",
"268 677 LINE SMOOTH",
"268 679 OFFCURVE",
"268 680 OFFCURVE",
"266 681 CURVE SMOOTH",
"250 686 OFFCURVE",
"223 691 OFFCURVE",
"199 691 CURVE SMOOTH",
"123 691 OFFCURVE",
"94 651 OFFCURVE",
"94 555 CURVE SMOOTH",
"94 478 LINE",
"29 478 LINE SMOOTH",
"27 478 OFFCURVE",
"26 477 OFFCURVE",
"26 475 CURVE SMOOTH",
"26 465 LINE SMOOTH",
"26 463 OFFCURVE",
"27 462 OFFCURVE",
"29 462 CURVE SMOOTH",
"94 462 LINE",
"94 3 LINE SMOOTH",
"94 1 OFFCURVE",
"95 0 OFFCURVE",
"97 0 CURVE SMOOTH"
);
}
);
width = 268;
},
{
anchors = (
{
name = bottom;
position = "{176, 0}";
},
{
name = top;
position = "{176, 498}";
}
);
layerId = "447BF32C-5B1D-49E6-885E-D276D7630B14";
paths = (
{
closed = 1;
nodes = (
"232 0 LINE SMOOTH",
"239 0 OFFCURVE",
"246 7 OFFCURVE",
"246 14 CURVE SMOOTH",
"246 359 LINE",
"316 359 LINE SMOOTH",
"325 359 OFFCURVE",
"330 365 OFFCURVE",
"330 373 CURVE SMOOTH",
"330 486 LINE SMOOTH",
"330 494 OFFCURVE",
"326 500 OFFCURVE",
"316 500 CURVE SMOOTH",
"246 500 LINE",
"246 515 LINE SMOOTH",
"246 545 OFFCURVE",
"258 561 OFFCURVE",
"289 561 CURVE SMOOTH",
"311 561 OFFCURVE",
"332 556 OFFCURVE",
"349 552 CURVE",
"357 549 OFFCURVE",
"362 552 OFFCURVE",
"362 564 CURVE SMOOTH",
"362 666 LINE SMOOTH",
"362 673 OFFCURVE",
"360 676 OFFCURVE",
"354 679 CURVE",
"333 685 OFFCURVE",
"288 691 OFFCURVE",
"237 691 CURVE SMOOTH",
"130 691 OFFCURVE",
"78 635 OFFCURVE",
"78 525 CURVE SMOOTH",
"78 500 LINE",
"25 500 LINE SMOOTH",
"15 500 OFFCURVE",
"10 494 OFFCURVE",
"10 486 CURVE SMOOTH",
"10 373 LINE SMOOTH",
"10 365 OFFCURVE",
"15 359 OFFCURVE",
"25 359 CURVE SMOOTH",
"78 359 LINE",
"78 14 LINE SMOOTH",
"78 7 OFFCURVE",
"84 0 OFFCURVE",
"91 0 CURVE SMOOTH"
);
}
);
width = 347;
}
);
leftKerningGroup = f;
rightKerningGroup = f;
unicode = 0066;
},
{
glyphname = g;
lastChange = "2022-10-27 03:26:45 +0000";
layers = (
{
anchors = (
{
name = bottom;
position = "{201, 0}";
},
{
name = top;
position = "{201, 487}";
}
);
layerId = "315A68D9-B8D0-4E7E-8516-8D4632F47100";
paths = (
{
closed = 1;
nodes = (
"321 -193 OFFCURVE",
"374 -151 OFFCURVE",
"374 -56 CURVE SMOOTH",
"374 31 OFFCURVE",
"340 73 OFFCURVE",
"267 79 CURVE SMOOTH",
"163 87 LINE SMOOTH",
"132 90 OFFCURVE",
"120 103 OFFCURVE",
"120 125 CURVE SMOOTH",
"120 148 OFFCURVE",
"136 166 OFFCURVE",
"164 176 CURVE",
"119 205 LINE",
"87 184 OFFCURVE",
"54 158 OFFCURVE",
"54 109 CURVE SMOOTH",
"54 58 OFFCURVE",
"85 27 OFFCURVE",
"133 23 CURVE SMOOTH",
"244 16 LINE SMOOTH",
"286 13 OFFCURVE",
"303 -7 OFFCURVE",
"303 -52 CURVE SMOOTH",
"303 -106 OFFCURVE",
"277 -128 OFFCURVE",
"200 -128 CURVE SMOOTH",
"128 -128 OFFCURVE",
"101 -109 OFFCURVE",
"101 -58 CURVE SMOOTH",
"101 -18 OFFCURVE",
"121 14 OFFCURVE",
"156 28 CURVE",
"104 52 LINE",
"54 26 OFFCURVE",
"28 -13 OFFCURVE",
"28 -70 CURVE SMOOTH",
"28 -152 OFFCURVE",
"78 -193 OFFCURVE",
"197 -193 CURVE SMOOTH"
);
},
{
closed = 1;
nodes = (
"303 160 OFFCURVE",
"346 211 OFFCURVE",
"346 327 CURVE SMOOTH",
"346 444 OFFCURVE",
"303 495 OFFCURVE",
"205 495 CURVE SMOOTH",
"105 495 OFFCURVE",
"62 444 OFFCURVE",
"62 328 CURVE SMOOTH",
"62 212 OFFCURVE",
"107 160 OFFCURVE",
"204 160 CURVE SMOOTH"
);
},
{
closed = 1;
nodes = (
"150 226 OFFCURVE",
"133 252 OFFCURVE",
"133 327 CURVE SMOOTH",
"133 403 OFFCURVE",
"150 430 OFFCURVE",
"204 430 CURVE SMOOTH",
"258 430 OFFCURVE",
"276 403 OFFCURVE",
"276 327 CURVE SMOOTH",
"276 252 OFFCURVE",
"258 226 OFFCURVE",
"204 226 CURVE SMOOTH"
);
},
{
closed = 1;
nodes = (
"305 524 OFFCURVE",
"314 567 OFFCURVE",
"323 608 CURVE SMOOTH",
"324 613 OFFCURVE",
"323 617 OFFCURVE",
"316 617 CURVE SMOOTH",
"266 617 LINE SMOOTH",
"261 617 OFFCURVE",
"259 613 OFFCURVE",
"258 606 CURVE SMOOTH",
"252 576 OFFCURVE",
"246 534 OFFCURVE",
"242 473 CURVE",
"299 446 LINE"
);
}
);
width = 399;
},
{
anchors = (
{
name = bottom;
position = "{192, 0}";
},
{
name = top;
position = "{192, 478}";
}
);
layerId = "87A71899-7C85-4E95-82CD-7392C73A0331";
paths = (
{
closed = 1;
nodes = (
"305 -193 OFFCURVE",
"348 -156 OFFCURVE",
"348 -67 CURVE SMOOTH",
"348 10 OFFCURVE",
"317 42 OFFCURVE",
"248 50 CURVE SMOOTH",
"149 60 LINE SMOOTH",
"99 65 OFFCURVE",
"81 89 OFFCURVE",
"81 121 CURVE SMOOTH",
"81 157 OFFCURVE",
"102 177 OFFCURVE",
"142 197 CURVE",
"127 208 LINE",
"87 184 OFFCURVE",
"65 160 OFFCURVE",
"65 122 CURVE SMOOTH",
"65 81 OFFCURVE",
"88 51 OFFCURVE",
"137 46 CURVE SMOOTH",
"243 35 LINE SMOOTH",
"308 28 OFFCURVE",
"332 1 OFFCURVE",
"332 -67 CURVE SMOOTH",
"332 -146 OFFCURVE",
"295 -177 OFFCURVE",
"193 -177 CURVE SMOOTH",
"93 -177 OFFCURVE",
"54 -148 OFFCURVE",
"54 -72 CURVE SMOOTH",
"54 -8 OFFCURVE",
"82 26 OFFCURVE",
"150 53 CURVE",
"126 57 LINE",
"66 33 OFFCURVE",
"38 -7 OFFCURVE",
"38 -72 CURVE SMOOTH",
"38 -158 OFFCURVE",
"82 -193 OFFCURVE",
"193 -193 CURVE SMOOTH"
);
},
{
closed = 1;
nodes = (
"289 180 OFFCURVE",
"328 231 OFFCURVE",
"328 333 CURVE SMOOTH",
"328 436 OFFCURVE",
"289 486 OFFCURVE",
"199 486 CURVE SMOOTH",
"109 486 OFFCURVE",
"70 436 OFFCURVE",
"70 333 CURVE SMOOTH",
"70 231 OFFCURVE",
"109 180 OFFCURVE",
"199 180 CURVE SMOOTH"
);
},
{
closed = 1;
nodes = (
"119 196 OFFCURVE",
"86 241 OFFCURVE",
"86 333 CURVE SMOOTH",
"86 426 OFFCURVE",
"119 470 OFFCURVE",
"199 470 CURVE SMOOTH",
"279 470 OFFCURVE",
"312 426 OFFCURVE",
"312 333 CURVE SMOOTH",
"312 241 OFFCURVE",
"279 196 OFFCURVE",
"199 196 CURVE SMOOTH"
);
},
{
closed = 1;
nodes = (
"277 515 OFFCURVE",
"286 571 OFFCURVE",
"295 604 CURVE SMOOTH",
"295 606 OFFCURVE",
"295 608 OFFCURVE",
"292 608 CURVE SMOOTH",
"283 608 LINE SMOOTH",
"281 608 OFFCURVE",
"279 607 OFFCURVE",
"278 604 CURVE SMOOTH",
"270 572 OFFCURVE",
"261 514 OFFCURVE",
"256 466 CURVE",
"271 466 LINE"
);
}
);
width = 382;
},
{
anchors = (
{
name = bottom;
position = "{223, 0}";
},
{
name = top;
position = "{223, 500}";
}
);
layerId = "447BF32C-5B1D-49E6-885E-D276D7630B14";
paths = (
{
closed = 1;
nodes = (
"382 -193 OFFCURVE",
"451 -145 OFFCURVE",
"451 -36 CURVE SMOOTH",
"451 63 OFFCURVE",
"412 109 OFFCURVE",
"311 118 CURVE SMOOTH",
"197 128 LINE SMOOTH",
"174 131 OFFCURVE",
"169 135 OFFCURVE",
"169 145 CURVE SMOOTH",
"169 153 OFFCURVE",
"175 163 OFFCURVE",
"194 168 CURVE",
"103 204 LINE",
"52 180 OFFCURVE",
"30 145 OFFCURVE",
"30 99 CURVE SMOOTH",
"30 41 OFFCURVE",
"64 6 OFFCURVE",
"127 0 CURVE SMOOTH",
"256 -11 LINE SMOOTH",
"283 -12 OFFCURVE",
"291 -20 OFFCURVE",
"291 -39 CURVE SMOOTH",
"291 -62 OFFCURVE",
"278 -71 OFFCURVE",
"225 -70 CURVE SMOOTH",
"183 -69 OFFCURVE",
"167 -59 OFFCURVE",
"167 -39 CURVE SMOOTH",
"167 -23 OFFCURVE",
"175 -10 OFFCURVE",
"196 2 CURVE",
"77 32 LINE",
"23 5 OFFCURVE",
"1 -32 OFFCURVE",
"1 -81 CURVE SMOOTH",
"1 -157 OFFCURVE",
"66 -193 OFFCURVE",
"216 -193 CURVE SMOOTH"
);
},
{
closed = 1;
nodes = (
"359 156 OFFCURVE",
"413 210 OFFCURVE",
"413 334 CURVE SMOOTH",
"413 454 OFFCURVE",
"359 509 OFFCURVE",
"227 509 CURVE SMOOTH",
"95 509 OFFCURVE",
"40 454 OFFCURVE",
"40 334 CURVE SMOOTH",
"40 210 OFFCURVE",
"95 156 OFFCURVE",
"227 156 CURVE SMOOTH"
);
},
{
closed = 1;
nodes = (
"202 277 OFFCURVE",
"195 287 OFFCURVE",
"195 331 CURVE SMOOTH",
"195 376 OFFCURVE",
"202 387 OFFCURVE",
"227 387 CURVE SMOOTH",
"252 387 OFFCURVE",
"258 376 OFFCURVE",
"258 331 CURVE SMOOTH",
"258 287 OFFCURVE",
"252 277 OFFCURVE",
"227 277 CURVE SMOOTH"
);
},
{
closed = 1;
nodes = (
"363 501 OFFCURVE",
"372 548 OFFCURVE",
"386 611 CURVE SMOOTH",
"389 621 OFFCURVE",
"386 626 OFFCURVE",
"374 626 CURVE SMOOTH",
"273 626 LINE SMOOTH",
"267 626 OFFCURVE",
"262 622 OFFCURVE",
"261 614 CURVE SMOOTH",
"257 581 OFFCURVE",
"254 536 OFFCURVE",
"256 494 CURVE",
"362 456 LINE"
);
}
);
width = 454;
}
);
leftKerningGroup = g;
rightKerningGroup = g;
unicode = 0067;
},
{
glyphname = h;
lastChange = "2022-10-27 03:26:45 +0000";
layers = (
{
anchors = (
{
name = bottom;
position = "{218, 0}";
},
{
name = center;
position = "{213, 243}";
},
{
name = top;
position = "{194, 639}";
}
);
layerId = "315A68D9-B8D0-4E7E-8516-8D4632F47100";
paths = (
{
closed = 1;
nodes = (
"363 0 LINE SMOOTH",
"368 0 OFFCURVE",
"371 4 OFFCURVE",
"371 9 CURVE SMOOTH",
"371 356 LINE SMOOTH",
"371 449 OFFCURVE",
"334 495 OFFCURVE",
"263 495 CURVE SMOOTH",
"210 495 OFFCURVE",
"165 468 OFFCURVE",
"116 412 CURVE",
"119 350 LINE",
"165 402 OFFCURVE",
"203 428 OFFCURVE",
"241 428 CURVE SMOOTH",
"280 428 OFFCURVE",
"299 405 OFFCURVE",
"299 352 CURVE SMOOTH",
"299 9 LINE SMOOTH",
"299 4 OFFCURVE",
"302 0 OFFCURVE",
"307 0 CURVE SMOOTH"
);
},
{
closed = 1;
nodes = (
"121 0 LINE SMOOTH",
"126 0 OFFCURVE",
"129 4 OFFCURVE",
"129 9 CURVE SMOOTH",
"129 674 LINE SMOOTH",
"129 679 OFFCURVE",
"126 683 OFFCURVE",
"121 683 CURVE SMOOTH",
"65 683 LINE SMOOTH",
"60 683 OFFCURVE",
"57 679 OFFCURVE",
"57 674 CURVE SMOOTH",
"57 9 LINE SMOOTH",
"57 4 OFFCURVE",
"60 0 OFFCURVE",
"65 0 CURVE SMOOTH"
);
}
);
width = 428;
},
{
anchors = (
{
name = bottom;
position = "{214, 0}";
},
{
name = center;
position = "{214, 239}";
},
{
name = top;
position = "{214, 478}";
}
);
layerId = "87A71899-7C85-4E95-82CD-7392C73A0331";
paths = (
{
closed = 1;
nodes = (
"349 0 LINE SMOOTH",
"351 0 OFFCURVE",
"352 1 OFFCURVE",
"352 3 CURVE SMOOTH",
"352 345 LINE SMOOTH",
"352 445 OFFCURVE",
"317 486 OFFCURVE",
"252 486 CURVE SMOOTH",
"193 486 OFFCURVE",
"138 445 OFFCURVE",
"86 385 CURVE",
"86 364 LINE",
"137 424 OFFCURVE",
"192 470 OFFCURVE",
"251 470 CURVE SMOOTH",
"309 470 OFFCURVE",
"336 430 OFFCURVE",
"336 343 CURVE SMOOTH",
"336 3 LINE SMOOTH",
"336 1 OFFCURVE",
"337 0 OFFCURVE",
"339 0 CURVE SMOOTH"
);
},
{
closed = 1;
nodes = (
"87 0 LINE SMOOTH",
"89 0 OFFCURVE",
"90 1 OFFCURVE",
"90 3 CURVE SMOOTH",
"90 680 LINE SMOOTH",
"90 682 OFFCURVE",
"89 683 OFFCURVE",
"87 683 CURVE SMOOTH",
"77 683 LINE SMOOTH",
"75 683 OFFCURVE",
"74 682 OFFCURVE",
"74 680 CURVE SMOOTH",
"74 3 LINE SMOOTH",
"74 1 OFFCURVE",
"75 0 OFFCURVE",
"76 0 CURVE SMOOTH"
);
}
);
width = 426;
},
{
anchors = (
{
name = bottom;
position = "{235, 0}";
},
{
name = center;
position = "{237, 249}";
},
{
name = top;
position = "{244, 528}";
}
);
layerId = "447BF32C-5B1D-49E6-885E-D276D7630B14";
paths = (
{
closed = 1;
nodes = (
"427 0 LINE SMOOTH",
"435 0 OFFCURVE",
"440 6 OFFCURVE",
"440 14 CURVE SMOOTH",
"440 363 LINE SMOOTH",
"440 465 OFFCURVE",
"404 509 OFFCURVE",
"327 509 CURVE SMOOTH",
"257 509 OFFCURVE",
"203 462 OFFCURVE",
"168 416 CURVE",
"191 338 LINE",
"205 353 OFFCURVE",
"224 365 OFFCURVE",
"243 365 CURVE SMOOTH",
"264 365 OFFCURVE",
"272 354 OFFCURVE",
"272 329 CURVE SMOOTH",
"272 14 LINE SMOOTH",
"272 6 OFFCURVE",
"277 0 OFFCURVE",
"285 0 CURVE SMOOTH"
);
},
{
closed = 1;
nodes = (
"186 0 LINE SMOOTH",
"194 0 OFFCURVE",
"199 6 OFFCURVE",
"199 14 CURVE SMOOTH",
"199 669 LINE SMOOTH",
"199 677 OFFCURVE",
"194 683 OFFCURVE",
"186 683 CURVE SMOOTH",
"45 683 LINE SMOOTH",
"37.003 683 OFFCURVE",
"31 677 OFFCURVE",
"31 669 CURVE SMOOTH",
"31 14 LINE SMOOTH",
"31 6 OFFCURVE",
"37.003 0 OFFCURVE",
"45 0 CURVE SMOOTH"
);
}
);
width = 471;
}
);
leftKerningGroup = h;
rightKerningGroup = n;
rightMetricsKey = n;
unicode = 0068;
},
{
glyphname = hbar;
lastChange = "2022-10-27 03:26:45 +0000";
layers = (
{
components = (
{
alignment = -1;
name = h;
}
);
layerId = "315A68D9-B8D0-4E7E-8516-8D4632F47100";
paths = (
{
closed = 1;
nodes = (
"57 556 LINE",
"207 556 LINE SMOOTH",
"212 556 OFFCURVE",
"215 560 OFFCURVE",
"215 566 CURVE SMOOTH",
"215 610 LINE SMOOTH",
"215 616 OFFCURVE",
"212 619 OFFCURVE",
"207 619 CURVE SMOOTH",
"5 619 LINE SMOOTH",
"0 619 OFFCURVE",
"-3 616 OFFCURVE",
"-3 610 CURVE SMOOTH",
"-3 566 LINE SMOOTH",
"-3 560 OFFCURVE",
"0 556 OFFCURVE",
"5 556 CURVE SMOOTH"
);
}
);
width = 428;
},
{
components = (
{
alignment = -1;
name = h;
}
);
layerId = "87A71899-7C85-4E95-82CD-7392C73A0331";
paths = (
{
closed = 1;
nodes = (
"74 584 LINE",
"202 584 LINE SMOOTH",
"204 584 OFFCURVE",
"205 585 OFFCURVE",
"205 587 CURVE SMOOTH",
"205 597 LINE SMOOTH",
"205 599 OFFCURVE",
"204 600 OFFCURVE",
"202 600 CURVE SMOOTH",
"2 600 LINE SMOOTH",
"0 600 OFFCURVE",
"-1 599 OFFCURVE",
"-1 597 CURVE SMOOTH",
"-1 587 LINE SMOOTH",
"-1 585 OFFCURVE",
"0 584 OFFCURVE",
"2 584 CURVE SMOOTH"
);
}
);
width = 426;
},
{
components = (
{
alignment = -1;
name = h;
transform = "{1, 0, 0, 1, 10, 0}";
}
);
layerId = "447BF32C-5B1D-49E6-885E-D276D7630B14";
paths = (
{
closed = 1;
nodes = (
"41 547 LINE",
"267 547 LINE SMOOTH",
"275 547 OFFCURVE",
"281 553 OFFCURVE",
"281 561 CURVE SMOOTH",
"281 634 LINE SMOOTH",
"281 642 OFFCURVE",
"275 647 OFFCURVE",
"267 647 CURVE SMOOTH",
"11 647 LINE SMOOTH",
"3 647 OFFCURVE",
"-2 642 OFFCURVE",
"-2 634 CURVE SMOOTH",
"-2 561 LINE SMOOTH",
"-2 553 OFFCURVE",
"3 547 OFFCURVE",
"11 547 CURVE SMOOTH"
);
}
);
width = 481;
}
);
leftKerningGroup = hbar;
leftMetricsKey = "=|dcroat";
rightKerningGroup = n;
rightMetricsKey = h;
unicode = 0127;
},
{
glyphname = idotless;
lastChange = "2022-10-27 03:26:45 +0000";
layers = (
{
anchors = (
{
name = bottom;
position = "{94, 0}";
},
{
name = ogonek;
position = "{131, 10}";
},
{
name = top;
position = "{94, 487}";
}
);
layerId = "315A68D9-B8D0-4E7E-8516-8D4632F47100";
paths = (
{
closed = 1;
nodes = (
"121 0 LINE SMOOTH",
"126 0 OFFCURVE",
"129 4 OFFCURVE",
"129 9 CURVE SMOOTH",
"129 478 LINE SMOOTH",
"129 483 OFFCURVE",
"126 487 OFFCURVE",
"121 487 CURVE SMOOTH",
"65 487 LINE SMOOTH",
"60 487 OFFCURVE",
"57 483 OFFCURVE",
"57 478 CURVE SMOOTH",
"57 9 LINE SMOOTH",
"57 4 OFFCURVE",
"60 0 OFFCURVE",
"65 0 CURVE SMOOTH"
);
}
);
width = 186;
},
{
anchors = (
{
name = bottom;
position = "{82, 0}";
},
{
name = ogonek;
position = "{97, 10}";
},
{
name = top;
position = "{82, 478}";
}
);
layerId = "87A71899-7C85-4E95-82CD-7392C73A0331";
paths = (
{
closed = 1;
nodes = (
"87 0 LINE SMOOTH",
"89 0 OFFCURVE",
"90 1 OFFCURVE",
"90 3 CURVE SMOOTH",
"90 475 LINE SMOOTH",
"90 477 OFFCURVE",
"89 478 OFFCURVE",
"87 478 CURVE SMOOTH",
"77 478 LINE SMOOTH",
"75 478 OFFCURVE",
"74 477 OFFCURVE",
"74 475 CURVE SMOOTH",
"74 3 LINE SMOOTH",
"74 1 OFFCURVE",
"75 0 OFFCURVE",
"77 0 CURVE SMOOTH"
);
}
);
width = 164;
},
{
anchors = (
{
name = bottom;
position = "{115, 0}";
},
{
name = ogonek;
position = "{193, 10}";
},
{
name = top;
position = "{115, 500}";
}
);
layerId = "447BF32C-5B1D-49E6-885E-D276D7630B14";
paths = (
{
closed = 1;
nodes = (
"186 0 LINE SMOOTH",
"194 0 OFFCURVE",
"199 6 OFFCURVE",
"199 14 CURVE SMOOTH",
"199 486 LINE SMOOTH",
"199 495 OFFCURVE",
"194 500 OFFCURVE",
"186 500 CURVE SMOOTH",
"45 500 LINE SMOOTH",
"37 500 OFFCURVE",
"31 495 OFFCURVE",
"31 486 CURVE SMOOTH",
"31 14 LINE SMOOTH",
"31 6 OFFCURVE",
"37.003 0 OFFCURVE",
"45 0 CURVE SMOOTH"
);
}
);
width = 230;
}
);
leftKerningGroup = n;
leftMetricsKey = u;
rightKerningGroup = u;
rightMetricsKey = n;
unicode = 0131;
},
{
glyphname = jdotless;
lastChange = "2022-10-27 03:26:45 +0000";
layers = (
{
anchors = (
{
name = bottom;
position = "{90, 0}";
},
{
name = top;
position = "{90, 487}";
}
);
layerId = "315A68D9-B8D0-4E7E-8516-8D4632F47100";
paths = (
{
closed = 1;
nodes = (
"102 -143 OFFCURVE",
"125 -67 OFFCURVE",
"125 54 CURVE SMOOTH",
"125 478 LINE SMOOTH",
"125 483 OFFCURVE",
"122 487 OFFCURVE",
"117 487 CURVE SMOOTH",
"61 487 LINE SMOOTH",
"56 487 OFFCURVE",
"53 483 OFFCURVE",
"53 478 CURVE SMOOTH",
"53 59 LINE SMOOTH",
"53 -38 OFFCURVE",
"35 -95 OFFCURVE",
"-7 -130 CURVE SMOOTH",
"-12 -133 OFFCURVE",
"-12 -138 OFFCURVE",
"-8 -143 CURVE SMOOTH",
"24 -186 LINE SMOOTH",
"27 -191 OFFCURVE",
"32 -191 OFFCURVE",
"36 -189 CURVE SMOOTH"
);
}
);
width = 179;
},
{
anchors = (
{
name = bottom;
position = "{78, 0}";
},
{
name = top;
position = "{78, 478}";
}
);
layerId = "87A71899-7C85-4E95-82CD-7392C73A0331";
paths = (
{
closed = 1;
nodes = (
"74 -122 OFFCURVE",
"86 -73 OFFCURVE",
"86 20 CURVE SMOOTH",
"86 475 LINE SMOOTH",
"86 477 OFFCURVE",
"85 478 OFFCURVE",
"83 478 CURVE SMOOTH",
"73 478 LINE SMOOTH",
"71 478 OFFCURVE",
"70 477 OFFCURVE",
"70 475 CURVE SMOOTH",
"70 21 LINE SMOOTH",
"70 -71 OFFCURVE",
"56 -116 OFFCURVE",
"4 -168 CURVE SMOOTH",
"3 -169 OFFCURVE",
"3 -171 OFFCURVE",
"4 -172 CURVE SMOOTH",
"12 -181 LINE SMOOTH",
"13 -182 OFFCURVE",
"14 -182 OFFCURVE",
"15 -181 CURVE SMOOTH"
);
}
);
width = 157;
},
{
anchors = (
{
name = bottom;
position = "{119, 0}";
},
{
name = top;
position = "{119, 500}";
}
);
layerId = "447BF32C-5B1D-49E6-885E-D276D7630B14";
paths = (
{
closed = 1;
nodes = (
"174 -124 OFFCURVE",
"200 -51 OFFCURVE",
"200 93 CURVE SMOOTH",
"200 486 LINE SMOOTH",
"200 495 OFFCURVE",
"194 500 OFFCURVE",
"186 500 CURVE SMOOTH",
"45 500 LINE SMOOTH",
"38 500 OFFCURVE",
"32 495 OFFCURVE",
"32 486 CURVE SMOOTH",
"32 91 LINE SMOOTH",
"32 4 OFFCURVE",
"19 -39 OFFCURVE",
"-19 -73 CURVE SMOOTH",
"-26 -79 OFFCURVE",
"-25 -87 OFFCURVE",
"-19 -93 CURVE SMOOTH",
"63 -186 LINE SMOOTH",
"67 -191 OFFCURVE",
"73 -193 OFFCURVE",
"78 -189 CURVE SMOOTH"
);
}
);
width = 232;
}
);
leftKerningGroup = j;
rightKerningGroup = j;
unicode = 0237;
},
{
glyphname = k;
lastChange = "2022-10-27 03:26:45 +0000";
layers = (
{
anchors = (
{
name = bottom;
position = "{203, 0}";
},
{
name = top;
position = "{194, 487}";
}
);
layerId = "315A68D9-B8D0-4E7E-8516-8D4632F47100";
paths = (
{
closed = 1;
nodes = (
"122 0 LINE SMOOTH",
"126 0 OFFCURVE",
"129 4 OFFCURVE",
"129 9 CURVE SMOOTH",
"129 169 LINE",
"182 240 LINE",
"290 6 LINE",
"292 3 OFFCURVE",
"296 0 OFFCURVE",
"300 0 CURVE SMOOTH",
"364 0 LINE SMOOTH",
"370 0 OFFCURVE",
"373 5 OFFCURVE",
"370 11 CURVE",
"231 305 LINE",
"357 476 LINE SMOOTH",
"361 481 OFFCURVE",
"359 487 OFFCURVE",
"353 487 CURVE SMOOTH",
"283 487 LINE SMOOTH",
"279 487 OFFCURVE",
"277 486 OFFCURVE",
"274 482 CURVE SMOOTH",
"187 360 LINE SMOOTH",
"166 329 OFFCURVE",
"148 302 OFFCURVE",
"129 271 CURVE",
"128 271 LINE",
"129 312 OFFCURVE",
"129 346 OFFCURVE",
"129 388 CURVE SMOOTH",
"129 674 LINE SMOOTH",
"129 679 OFFCURVE",
"126 683 OFFCURVE",
"121 683 CURVE SMOOTH",
"65 683 LINE SMOOTH",
"60 683 OFFCURVE",
"57 679 OFFCURVE",
"57 674 CURVE SMOOTH",
"57 9 LINE SMOOTH",
"57 4 OFFCURVE",
"60 0 OFFCURVE",
"65 0 CURVE SMOOTH"
);
}
);
width = 382;
},
{
anchors = (
{
name = bottom;
position = "{190, 0}";
},
{
name = top;
position = "{185, 478}";
}
);
layerId = "87A71899-7C85-4E95-82CD-7392C73A0331";
paths = (
{
closed = 1;
nodes = (
"87 0 LINE SMOOTH",
"89 0 OFFCURVE",
"90 1 OFFCURVE",
"90 3 CURVE SMOOTH",
"90 166 LINE",
"172 275 LINE",
"323 2 LINE",
"324 0 OFFCURVE",
"324 0 OFFCURVE",
"325 0 CURVE SMOOTH",
"338 0 LINE SMOOTH",
"340 0 OFFCURVE",
"341 2 OFFCURVE",
"340 4 CURVE",
"183 291 LINE",
"320 474 LINE SMOOTH",
"321 476 OFFCURVE",
"320 478 OFFCURVE",
"318 478 CURVE SMOOTH",
"306 478 LINE SMOOTH",
"305 478 OFFCURVE",
"303 478 OFFCURVE",
"301 475 CURVE SMOOTH",
"158 285 LINE SMOOTH",
"136 255 OFFCURVE",
"113 223 OFFCURVE",
"91 192 CURVE",
"90 192 LINE",
"90 236 OFFCURVE",
"90 279 OFFCURVE",
"90 322 CURVE SMOOTH",
"90 680 LINE SMOOTH",
"90 682 OFFCURVE",
"89 683 OFFCURVE",
"87 683 CURVE SMOOTH",
"77 683 LINE SMOOTH",
"75 683 OFFCURVE",
"74 682 OFFCURVE",
"74 680 CURVE SMOOTH",
"74 3 LINE SMOOTH",
"74 1 OFFCURVE",
"75 0 OFFCURVE",
"77 0 CURVE SMOOTH"
);
}
);
width = 362;
},
{
anchors = (
{
name = bottom;
position = "{246, 0}";
},
{
name = top;
position = "{242, 498}";
}
);
layerId = "447BF32C-5B1D-49E6-885E-D276D7630B14";
paths = (
{
closed = 1;
nodes = (
"186 0 LINE SMOOTH",
"194 0 OFFCURVE",
"199 6 OFFCURVE",
"199 14 CURVE SMOOTH",
"199 123 LINE",
"220 151 LINE",
"289 9 LINE",
"292 3 OFFCURVE",
"298 0 OFFCURVE",
"306 0 CURVE SMOOTH",
"468 0 LINE SMOOTH",
"479 0 OFFCURVE",
"482 8 OFFCURVE",
"476 18 CURVE",
"337 274 LINE",
"467 484 LINE SMOOTH",
"474 493 OFFCURVE",
"471 500 OFFCURVE",
"460 500 CURVE SMOOTH",
"301 500 LINE SMOOTH",
"294 500 OFFCURVE",
"289 498 OFFCURVE",
"286 492 CURVE SMOOTH",
"242 416 LINE SMOOTH",
"225 384 OFFCURVE",
"210 348 OFFCURVE",
"196 315 CURVE",
"193 315 LINE",
"197 362 OFFCURVE",
"199 429 OFFCURVE",
"199 474 CURVE SMOOTH",
"199 669 LINE SMOOTH",
"199 677 OFFCURVE",
"194 683 OFFCURVE",
"186 683 CURVE SMOOTH",
"45 683 LINE SMOOTH",
"37.003 683 OFFCURVE",
"31 677 OFFCURVE",
"31 669 CURVE SMOOTH",
"31 14 LINE SMOOTH",
"31 6 OFFCURVE",
"37.003 0 OFFCURVE",
"45 0 CURVE SMOOTH"
);
}
);
width = 483;
}
);
leftKerningGroup = h;
leftMetricsKey = h;
rightKerningGroup = k;
unicode = 006B;
},
{
glyphname = kgreenlandic;
lastChange = "2022-10-27 03:26:45 +0000";
layers = (
{
anchors = (
{
name = bottom;
position = "{195, 0}";
},
{
name = top;
position = "{194, 487}";
}
);
layerId = "315A68D9-B8D0-4E7E-8516-8D4632F47100";
paths = (
{
closed = 1;
nodes = (
"122 0 LINE SMOOTH",
"126 0 OFFCURVE",
"129 4 OFFCURVE",
"129 9 CURVE SMOOTH",
"129 169 LINE",
"182 240 LINE",
"290 6 LINE",
"292 3 OFFCURVE",
"296 0 OFFCURVE",
"300 0 CURVE SMOOTH",
"364 0 LINE SMOOTH",
"370 0 OFFCURVE",
"373 5 OFFCURVE",
"370 11 CURVE",
"231 305 LINE",
"357 476 LINE SMOOTH",
"361 481 OFFCURVE",
"359 487 OFFCURVE",
"353 487 CURVE SMOOTH",
"283 487 LINE SMOOTH",
"279 487 OFFCURVE",
"277 486 OFFCURVE",
"274 482 CURVE SMOOTH",
"187 360 LINE SMOOTH",
"166 329 OFFCURVE",
"148 298 OFFCURVE",
"129 267 CURVE",
"128 267 LINE",
"129 308 OFFCURVE",
"129 346 OFFCURVE",
"129 388 CURVE SMOOTH",
"129 478 LINE SMOOTH",
"129 483 OFFCURVE",
"126 487 OFFCURVE",
"121 487 CURVE SMOOTH",
"65 487 LINE SMOOTH",
"60 487 OFFCURVE",
"57 483 OFFCURVE",
"57 478 CURVE SMOOTH",
"57 9 LINE SMOOTH",
"57 4 OFFCURVE",
"60 0 OFFCURVE",
"65 0 CURVE SMOOTH"
);
}
);
width = 382;
},
{
anchors = (
{
name = bottom;
position = "{183, 0}";
},
{
name = top;
position = "{183, 478}";
}
);
layerId = "87A71899-7C85-4E95-82CD-7392C73A0331";
paths = (
{
closed = 1;
nodes = (
"87 0 LINE SMOOTH",
"89 0 OFFCURVE",
"90 1 OFFCURVE",
"90 3 CURVE SMOOTH",
"90 166 LINE",
"172 275 LINE",
"323 2 LINE",
"324 0 OFFCURVE",
"324 0 OFFCURVE",
"325 0 CURVE SMOOTH",
"338 0 LINE SMOOTH",
"340 0 OFFCURVE",
"341 2 OFFCURVE",
"340 4 CURVE",
"183 291 LINE",
"320 474 LINE SMOOTH",
"321 476 OFFCURVE",
"320 478 OFFCURVE",
"318 478 CURVE SMOOTH",
"306 478 LINE SMOOTH",
"305 478 OFFCURVE",
"303 478 OFFCURVE",
"301 475 CURVE SMOOTH",
"158 285 LINE SMOOTH",
"136 255 OFFCURVE",
"113 224 OFFCURVE",
"91 192 CURVE",
"90 192 LINE",
"90 236 OFFCURVE",
"90 279 OFFCURVE",
"90 322 CURVE SMOOTH",
"90 475 LINE SMOOTH",
"90 477 OFFCURVE",
"89 478 OFFCURVE",
"87 478 CURVE SMOOTH",
"77 478 LINE SMOOTH",
"75 478 OFFCURVE",
"74 477 OFFCURVE",
"74 475 CURVE SMOOTH",
"74 3 LINE SMOOTH",
"74 1 OFFCURVE",
"75 0 OFFCURVE",
"77 0 CURVE SMOOTH"
);
}
);
width = 362;
},
{
anchors = (
{
name = bottom;
position = "{240, 0}";
},
{
name = top;
position = "{240, 500}";
}
);
layerId = "447BF32C-5B1D-49E6-885E-D276D7630B14";
paths = (
{
closed = 1;
nodes = (
"186 0 LINE SMOOTH",
"194 0 OFFCURVE",
"199 6 OFFCURVE",
"199 14 CURVE SMOOTH",
"199 123 LINE",
"220 151 LINE",
"289 9 LINE",
"292 3 OFFCURVE",
"298 0 OFFCURVE",
"306 0 CURVE SMOOTH",
"468 0 LINE SMOOTH",
"479 0 OFFCURVE",
"482 8 OFFCURVE",
"476 18 CURVE",
"337 274 LINE",
"467 484 LINE SMOOTH",
"474 493 OFFCURVE",
"471 500 OFFCURVE",
"460 500 CURVE SMOOTH",
"301 500 LINE SMOOTH",
"294 500 OFFCURVE",
"289 498 OFFCURVE",
"286 492 CURVE SMOOTH",
"242 416 LINE SMOOTH",
"225 384 OFFCURVE",
"210 349 OFFCURVE",
"196 315 CURVE",
"193 315 LINE",
"197 361 OFFCURVE",
"199 429 OFFCURVE",
"199 470 CURVE SMOOTH",
"199 486 LINE SMOOTH",
"199 494 OFFCURVE",
"194 500 OFFCURVE",
"186 500 CURVE SMOOTH",
"45 500 LINE SMOOTH",
"37 500 OFFCURVE",
"31 494 OFFCURVE",
"31 486 CURVE SMOOTH",
"31 14 LINE SMOOTH",
"31 6 OFFCURVE",
"37.003 0 OFFCURVE",
"45 0 CURVE SMOOTH"
);
}
);
width = 483;
}
);
leftKerningGroup = u;
leftMetricsKey = u;
rightKerningGroup = k;
rightMetricsKey = k;
unicode = 0138;
},
{
glyphname = l;
lastChange = "2022-10-27 03:26:45 +0000";
layers = (
{
anchors = (
{
name = bottom;
position = "{94, 0}";
},
{
name = center;
position = "{94, 243}";
},
{
name = top;
position = "{94, 683}";
},
{
name = topright;
position = "{167, 487}";
}
);
layerId = "315A68D9-B8D0-4E7E-8516-8D4632F47100";
paths = (
{
closed = 1;
nodes = (
"121 0 LINE SMOOTH",
"126 0 OFFCURVE",
"129 4 OFFCURVE",
"129 9 CURVE SMOOTH",
"129 674 LINE SMOOTH",
"129 679 OFFCURVE",
"126 683 OFFCURVE",
"121 683 CURVE SMOOTH",
"65 683 LINE SMOOTH",
"60 683 OFFCURVE",
"57 679 OFFCURVE",
"57 674 CURVE SMOOTH",
"57 9 LINE SMOOTH",
"57 4 OFFCURVE",
"60 0 OFFCURVE",
"65 0 CURVE SMOOTH"
);
}
);
width = 186;
},
{
anchors = (
{
name = bottom;
position = "{82, 0}";
},
{
name = center;
position = "{82, 239}";
},
{
name = top;
position = "{82, 683}";
},
{
name = topright;
position = "{143, 478}";
}
);
layerId = "87A71899-7C85-4E95-82CD-7392C73A0331";
paths = (
{
closed = 1;
nodes = (
"87 0 LINE SMOOTH",
"89 0 OFFCURVE",
"90 1 OFFCURVE",
"90 3 CURVE SMOOTH",
"90 680 LINE SMOOTH",
"90 682 OFFCURVE",
"89 683 OFFCURVE",
"87 683 CURVE SMOOTH",
"77 683 LINE SMOOTH",
"75 683 OFFCURVE",
"74 682 OFFCURVE",
"74 680 CURVE SMOOTH",
"74 3 LINE SMOOTH",
"74 1 OFFCURVE",
"75 0 OFFCURVE",
"77 0 CURVE SMOOTH"
);
}
);
width = 164;
},
{
anchors = (
{
name = bottom;
position = "{116, 0}";
},
{
name = center;
position = "{115, 250}";
},
{
name = top;
position = "{115, 683}";
},
{
name = topright;
position = "{211, 500}";
}
);
layerId = "447BF32C-5B1D-49E6-885E-D276D7630B14";
paths = (
{
closed = 1;
nodes = (
"186 0 LINE SMOOTH",
"194 0 OFFCURVE",
"199 6 OFFCURVE",
"199 14 CURVE SMOOTH",
"199 669 LINE SMOOTH",
"199 677 OFFCURVE",
"194 683 OFFCURVE",
"186 683 CURVE SMOOTH",
"45 683 LINE SMOOTH",
"37.003 683 OFFCURVE",
"31 677 OFFCURVE",
"31 669 CURVE SMOOTH",
"31 14 LINE SMOOTH",
"31 6 OFFCURVE",
"37.003 0 OFFCURVE",
"45 0 CURVE SMOOTH"
);
}
);
width = 230;
}
);
leftKerningGroup = h;
leftMetricsKey = h;
rightKerningGroup = l;
rightMetricsKey = "=|h";
unicode = 006C;
},
{
glyphname = lslash;
lastChange = "2022-10-27 03:26:45 +0000";
layers = (
{
components = (
{
alignment = -1;
name = l;
}
);
layerId = "315A68D9-B8D0-4E7E-8516-8D4632F47100";
paths = (
{
closed = 1;
nodes = (
"57 369 LINE",
"182 446 LINE SMOOTH",
"186 448 OFFCURVE",
"188 451 OFFCURVE",
"188 455 CURVE SMOOTH",
"188 508 LINE SMOOTH",
"188 514 OFFCURVE",
"184 516 OFFCURVE",
"179 514 CURVE SMOOTH",
"5 408 LINE SMOOTH",
"1 406 OFFCURVE",
"-1 403 OFFCURVE",
"-1 398 CURVE SMOOTH",
"-1 345 LINE SMOOTH",
"-1 339 OFFCURVE",
"4 337 OFFCURVE",
"8 340 CURVE SMOOTH"
);
}
);
width = 187;
},
{
components = (
{
alignment = -1;
name = l;
}
);
layerId = "87A71899-7C85-4E95-82CD-7392C73A0331";
paths = (
{
closed = 1;
nodes = (
"74 410 LINE",
"155 457 LINE SMOOTH",
"157 459 OFFCURVE",
"157 459 OFFCURVE",
"157 461 CURVE SMOOTH",
"157 473 LINE SMOOTH",
"157 476 OFFCURVE",
"155 476 OFFCURVE",
"153 475 CURVE SMOOTH",
"9 390 LINE SMOOTH",
"7 389 OFFCURVE",
"7 388 OFFCURVE",
"7 386 CURVE SMOOTH",
"7 374 LINE SMOOTH",
"7 372 OFFCURVE",
"9 372 OFFCURVE",
"11 373 CURVE SMOOTH"
);
}
);
width = 164;
},
{
components = (
{
alignment = -1;
name = l;
transform = "{1, 0, 0, 1, 2, 0}";
}
);
layerId = "447BF32C-5B1D-49E6-885E-D276D7630B14";
paths = (
{
closed = 1;
nodes = (
"33 322 LINE",
"231 396 LINE SMOOTH",
"238 399 OFFCURVE",
"240 402 OFFCURVE",
"240 410 CURVE SMOOTH",
"240 501 LINE SMOOTH",
"240 508 OFFCURVE",
"236 512 OFFCURVE",
"229 509 CURVE SMOOTH",
"3 424 LINE SMOOTH",
"-4 422 OFFCURVE",
"-6 418 OFFCURVE",
"-6 410 CURVE SMOOTH",
"-6 320 LINE SMOOTH",
"-6 313 OFFCURVE",
"-2 308 OFFCURVE",
"6 311 CURVE SMOOTH"
);
}
);
width = 234;
}
);
leftKerningGroup = lslash;
rightKerningGroup = lslash;
unicode = 0142;
},
{
glyphname = m;
lastChange = "2022-10-27 03:26:45 +0000";
layers = (
{
anchors = (
{
name = bottom;
position = "{321, 0}";
},
{
name = top;
position = "{321, 487}";
}
);
layerId = "315A68D9-B8D0-4E7E-8516-8D4632F47100";
paths = (
{
closed = 1;
nodes = (
"121 0 LINE SMOOTH",
"126 0 OFFCURVE",
"129 4 OFFCURVE",
"129 9 CURVE SMOOTH",
"129 361 LINE",
"170 405 OFFCURVE",
"202 428 OFFCURVE",
"234 428 CURVE SMOOTH",
"269 428 OFFCURVE",
"285 406 OFFCURVE",
"285 357 CURVE SMOOTH",
"285 9 LINE SMOOTH",
"285 4 OFFCURVE",
"288 0 OFFCURVE",
"293 0 CURVE SMOOTH",
"349 0 LINE SMOOTH",
"354 0 OFFCURVE",
"357 4 OFFCURVE",
"357 9 CURVE SMOOTH",
"357 361 LINE",
"398 405 OFFCURVE",
"430 428 OFFCURVE",
"462 428 CURVE SMOOTH",
"496 428 OFFCURVE",
"513 406 OFFCURVE",
"513 357 CURVE SMOOTH",
"513 9 LINE SMOOTH",
"513 4 OFFCURVE",
"516 0 OFFCURVE",
"521 0 CURVE SMOOTH",
"577 0 LINE SMOOTH",
"582 0 OFFCURVE",
"585 4 OFFCURVE",
"585 9 CURVE SMOOTH",
"585 364 LINE SMOOTH",
"585 449 OFFCURVE",
"549 495 OFFCURVE",
"486 495 CURVE SMOOTH",
"435 495 OFFCURVE",
"396 469 OFFCURVE",
"351 419 CURVE",
"338 469 OFFCURVE",
"306 495 OFFCURVE",
"258 495 CURVE SMOOTH",
"208 495 OFFCURVE",
"169 470 OFFCURVE",
"125 421 CURVE",
"123 442 OFFCURVE",
"121 459 OFFCURVE",
"119 479 CURVE",
"118 485 OFFCURVE",
"116 487 OFFCURVE",
"111 487 CURVE SMOOTH",
"61 487 LINE SMOOTH",
"55 487 OFFCURVE",
"52 483 OFFCURVE",
"53 475 CURVE",
"56 452 OFFCURVE",
"57 415 OFFCURVE",
"57 366 CURVE SMOOTH",
"57 9 LINE SMOOTH",
"57 4 OFFCURVE",
"60 0 OFFCURVE",
"65 0 CURVE SMOOTH"
);
}
);
width = 642;
},
{
anchors = (
{
name = bottom;
position = "{320, 0}";
},
{
name = top;
position = "{320, 478}";
}
);
layerId = "87A71899-7C85-4E95-82CD-7392C73A0331";
paths = (
{
closed = 1;
nodes = (
"87 0 LINE SMOOTH",
"89 0 OFFCURVE",
"90 1 OFFCURVE",
"90 3 CURVE SMOOTH",
"90 368 LINE",
"149 438 OFFCURVE",
"193 470 OFFCURVE",
"237 470 CURVE SMOOTH",
"289 470 OFFCURVE",
"313 429 OFFCURVE",
"313 362 CURVE SMOOTH",
"313 3 LINE SMOOTH",
"313 1 OFFCURVE",
"314 0 OFFCURVE",
"316 0 CURVE SMOOTH",
"326 0 LINE SMOOTH",
"328 0 OFFCURVE",
"329 1 OFFCURVE",
"329 3 CURVE SMOOTH",
"329 368 LINE",
"389 438 OFFCURVE",
"432 470 OFFCURVE",
"476 470 CURVE SMOOTH",
"528 470 OFFCURVE",
"552 429 OFFCURVE",
"552 362 CURVE SMOOTH",
"552 3 LINE SMOOTH",
"552 1 OFFCURVE",
"553 0 OFFCURVE",
"555 0 CURVE SMOOTH",
"565 0 LINE SMOOTH",
"567 0 OFFCURVE",
"568 1 OFFCURVE",
"568 3 CURVE SMOOTH",
"568 365 LINE SMOOTH",
"568 442 OFFCURVE",
"538 486 OFFCURVE",
"478 486 CURVE SMOOTH",
"429 486 OFFCURVE",
"384 454 OFFCURVE",
"327 389 CURVE",
"322 451 OFFCURVE",
"293 486 OFFCURVE",
"239 486 CURVE SMOOTH",
"190 486 OFFCURVE",
"145 454 OFFCURVE",
"90 390 CURVE",
"89 417 OFFCURVE",
"88 447 OFFCURVE",
"85 475 CURVE",
"85 477 OFFCURVE",
"84 478 OFFCURVE",
"82 478 CURVE SMOOTH",
"73 478 LINE SMOOTH",
"71 478 OFFCURVE",
"70 477 OFFCURVE",
"70 475 CURVE",
"72 441 OFFCURVE",
"74 404 OFFCURVE",
"74 368 CURVE SMOOTH",
"74 3 LINE SMOOTH",
"74 1 OFFCURVE",
"75 0 OFFCURVE",
"77 0 CURVE SMOOTH"
);
}
);
width = 642;
},
{
anchors = (
{
name = bottom;
position = "{343, 0}";
},
{
name = top;
position = "{343, 500}";
}
);
layerId = "447BF32C-5B1D-49E6-885E-D276D7630B14";
paths = (
{
closed = 1;
nodes = (
"186 0 LINE SMOOTH",
"194 0 OFFCURVE",
"199 6 OFFCURVE",
"199 14 CURVE SMOOTH",
"199 348 LINE",
"211 357 OFFCURVE",
"224 365 OFFCURVE",
"239 365 CURVE SMOOTH",
"258 365 OFFCURVE",
"264 354 OFFCURVE",
"264 332 CURVE SMOOTH",
"264 14 LINE SMOOTH",
"264 6 OFFCURVE",
"270 0 OFFCURVE",
"277 0 CURVE SMOOTH",
"419 0 LINE SMOOTH",
"427 0 OFFCURVE",
"432 6 OFFCURVE",
"432 14 CURVE SMOOTH",
"432 348 LINE",
"444 357 OFFCURVE",
"457 365 OFFCURVE",
"472 365 CURVE SMOOTH",
"490 365 OFFCURVE",
"497 354 OFFCURVE",
"497 332 CURVE SMOOTH",
"497 14 LINE SMOOTH",
"497 6 OFFCURVE",
"503 0 OFFCURVE",
"510 0 CURVE SMOOTH",
"652 0 LINE SMOOTH",
"660 0 OFFCURVE",
"665 6 OFFCURVE",
"665 14 CURVE SMOOTH",
"665 361 LINE SMOOTH",
"665 464 OFFCURVE",
"630 509 OFFCURVE",
"551 509 CURVE SMOOTH",
"496 509 OFFCURVE",
"452 478 OFFCURVE",
"419 442 CURVE",
"403 488 OFFCURVE",
"374 509 OFFCURVE",
"320 509 CURVE SMOOTH",
"256 509 OFFCURVE",
"216 473 OFFCURVE",
"180 432 CURVE",
"179 452 OFFCURVE",
"176 476 OFFCURVE",
"174 489 CURVE",
"172 498 OFFCURVE",
"167 500 OFFCURVE",
"161 500 CURVE SMOOTH",
"40 500 LINE SMOOTH",
"31 500 OFFCURVE",
"27 495 OFFCURVE",
"28 485 CURVE",
"31 451 OFFCURVE",
"31 410 OFFCURVE",
"31 368 CURVE SMOOTH",
"31 14 LINE SMOOTH",
"31 6 OFFCURVE",
"37.003 0 OFFCURVE",
"45 0 CURVE SMOOTH"
);
}
);
width = 696;
}
);
leftKerningGroup = n;
leftMetricsKey = n;
rightKerningGroup = n;
rightMetricsKey = n;
unicode = 006D;
},
{
glyphname = n;
lastChange = "2022-10-27 03:26:45 +0000";
layers = (
{
anchors = (
{
name = apo;
position = "{33, 488}";
},
{
name = bottom;
position = "{217, 0}";
},
{
name = top;
position = "{217, 487}";
}
);
layerId = "315A68D9-B8D0-4E7E-8516-8D4632F47100";
paths = (
{
closed = 1;
nodes = (
"363 0 LINE SMOOTH",
"368 0 OFFCURVE",
"371 4 OFFCURVE",
"371 9 CURVE SMOOTH",
"371 356 LINE SMOOTH",
"371 449 OFFCURVE",
"334 495 OFFCURVE",
"263 495 CURVE SMOOTH",
"209 495 OFFCURVE",
"165 468 OFFCURVE",
"115 411 CURVE",
"118 349 LINE",
"168 404 OFFCURVE",
"203 428 OFFCURVE",
"240 428 CURVE SMOOTH",
"280 428 OFFCURVE",
"299 405 OFFCURVE",
"299 352 CURVE SMOOTH",
"299 9 LINE SMOOTH",
"299 4 OFFCURVE",
"302 0 OFFCURVE",
"307 0 CURVE SMOOTH"
);
},
{
closed = 1;
nodes = (
"121 0 LINE SMOOTH",
"126 0 OFFCURVE",
"129 4 OFFCURVE",
"129 9 CURVE SMOOTH",
"129 371 LINE",
"127 384 LINE",
"126 407 OFFCURVE",
"123 454 OFFCURVE",
"119 478 CURVE SMOOTH",
"118 484 OFFCURVE",
"116 487 OFFCURVE",
"110 487 CURVE SMOOTH",
"60 487 LINE SMOOTH",
"54 487 OFFCURVE",
"52 483 OFFCURVE",
"53 475 CURVE SMOOTH",
"55 454 OFFCURVE",
"57 415 OFFCURVE",
"57 366 CURVE SMOOTH",
"57 9 LINE SMOOTH",
"57 4 OFFCURVE",
"60 0 OFFCURVE",
"65 0 CURVE SMOOTH"
);
}
);
width = 428;
},
{
anchors = (
{
name = apo;
position = "{12, 488}";
},
{
name = bottom;
position = "{214, 0}";
},
{
name = top;
position = "{212, 478}";
}
);
layerId = "87A71899-7C85-4E95-82CD-7392C73A0331";
paths = (
{
closed = 1;
nodes = (
"349 0 LINE SMOOTH",
"351 0 OFFCURVE",
"352 1 OFFCURVE",
"352 3 CURVE SMOOTH",
"352 345 LINE SMOOTH",
"352 445 OFFCURVE",
"317 486 OFFCURVE",
"252 486 CURVE SMOOTH",
"193 486 OFFCURVE",
"138 445 OFFCURVE",
"86 385 CURVE",
"86 364 LINE",
"137 424 OFFCURVE",
"192 470 OFFCURVE",
"251 470 CURVE SMOOTH",
"309 470 OFFCURVE",
"336 430 OFFCURVE",
"336 343 CURVE SMOOTH",
"336 3 LINE SMOOTH",
"336 1 OFFCURVE",
"337 0 OFFCURVE",
"339 0 CURVE SMOOTH"
);
},
{
closed = 1;
nodes = (
"87 0 LINE SMOOTH",
"89 0 OFFCURVE",
"90 1 OFFCURVE",
"90 3 CURVE SMOOTH",
"90 373 LINE",
"90 377 LINE",
"90 404 OFFCURVE",
"88 447 OFFCURVE",
"85 475 CURVE SMOOTH",
"85 477 OFFCURVE",
"84 478 OFFCURVE",
"82 478 CURVE SMOOTH",
"73 478 LINE SMOOTH",
"71 478 OFFCURVE",
"70 477 OFFCURVE",
"70 475 CURVE SMOOTH",
"72 441 OFFCURVE",
"74 403 OFFCURVE",
"74 368 CURVE SMOOTH",
"74 3 LINE SMOOTH",
"74 1 OFFCURVE",
"75 0 OFFCURVE",
"77 0 CURVE SMOOTH"
);
}
);
width = 426;
},
{
anchors = (
{
name = apo;
position = "{-37, 498}";
},
{
name = bottom;
position = "{240, 0}";
},
{
name = top;
position = "{237, 500}";
}
);
layerId = "447BF32C-5B1D-49E6-885E-D276D7630B14";
paths = (
{
closed = 1;
nodes = (
"425.996 0 LINE SMOOTH",
"435 0 OFFCURVE",
"440 6 OFFCURVE",
"440 14 CURVE SMOOTH",
"440 363 LINE SMOOTH",
"440 465 OFFCURVE",
"404 509 OFFCURVE",
"327 509 CURVE SMOOTH",
"256 509 OFFCURVE",
"203 462 OFFCURVE",
"168 416 CURVE",
"191 338 LINE",
"205 353 OFFCURVE",
"224 365 OFFCURVE",
"243 365 CURVE SMOOTH",
"264 365 OFFCURVE",
"272 354 OFFCURVE",
"272 329 CURVE SMOOTH",
"272 14 LINE SMOOTH",
"272 6 OFFCURVE",
"277 0 OFFCURVE",
"286 0 CURVE SMOOTH"
);
},
{
closed = 1;
nodes = (
"186 0 LINE SMOOTH",
"194 0 OFFCURVE",
"199 6 OFFCURVE",
"199 14 CURVE SMOOTH",
"199 359 LINE",
"182 408 LINE",
"181 435 OFFCURVE",
"177 469 OFFCURVE",
"174 488 CURVE SMOOTH",
"172 498 OFFCURVE",
"168 500 OFFCURVE",
"161 500 CURVE SMOOTH",
"40 500 LINE SMOOTH",
"31 500 OFFCURVE",
"27 495 OFFCURVE",
"28 485 CURVE SMOOTH",
"30 451 OFFCURVE",
"31 410 OFFCURVE",
"31 368 CURVE SMOOTH",
"31 14 LINE SMOOTH",
"31 6 OFFCURVE",
"37.003 0 OFFCURVE",
"46 0 CURVE SMOOTH"
);
}
);
width = 471;
}
);
leftKerningGroup = n;
rightKerningGroup = n;
unicode = 006E;
},
{
glyphname = eng;
lastChange = "2022-10-27 03:26:45 +0000";
layers = (
{
layerId = "315A68D9-B8D0-4E7E-8516-8D4632F47100";
paths = (
{
closed = 1;
nodes = (
"347 -143 OFFCURVE",
"371 -66 OFFCURVE",
"371 55 CURVE SMOOTH",
"371 356 LINE SMOOTH",
"371 449 OFFCURVE",
"334 495 OFFCURVE",
"263 495 CURVE SMOOTH",
"213 495 OFFCURVE",
"171 471 OFFCURVE",
"125 422 CURVE",
"123 442 OFFCURVE",
"122 464 OFFCURVE",
"119 478 CURVE",
"118 484 OFFCURVE",
"116 487 OFFCURVE",
"110 487 CURVE SMOOTH",
"60 487 LINE SMOOTH",
"54 487 OFFCURVE",
"52 483 OFFCURVE",
"53 475 CURVE",
"55 454 OFFCURVE",
"57 415 OFFCURVE",
"57 366 CURVE SMOOTH",
"57 9 LINE SMOOTH",
"57 4 OFFCURVE",
"60 0 OFFCURVE",
"65 0 CURVE SMOOTH",
"121 0 LINE SMOOTH",
"126 0 OFFCURVE",
"129 4 OFFCURVE",
"129 9 CURVE SMOOTH",
"129 361 LINE",
"173 407 OFFCURVE",
"206 428 OFFCURVE",
"240 428 CURVE SMOOTH",
"280 428 OFFCURVE",
"299 405 OFFCURVE",
"299 352 CURVE SMOOTH",
"299 61 LINE SMOOTH",
"299 -36 OFFCURVE",
"282 -95 OFFCURVE",
"238 -128 CURVE SMOOTH",
"234 -132 OFFCURVE",
"234 -136 OFFCURVE",
"237 -141 CURVE SMOOTH",
"270 -185 LINE SMOOTH",
"273 -190 OFFCURVE",
"278 -189 OFFCURVE",
"281 -187 CURVE SMOOTH"
);
}
);
width = 428;
},
{
layerId = "87A71899-7C85-4E95-82CD-7392C73A0331";
paths = (
{
closed = 1;
nodes = (
"340 -109 OFFCURVE",
"352 -58 OFFCURVE",
"352 33 CURVE SMOOTH",
"352 345 LINE SMOOTH",
"352 445 OFFCURVE",
"317 486 OFFCURVE",
"252 486 CURVE SMOOTH",
"194 486 OFFCURVE",
"140 447 OFFCURVE",
"90 389 CURVE",
"89 417 OFFCURVE",
"87 453 OFFCURVE",
"85 475 CURVE",
"85 477 OFFCURVE",
"84 478 OFFCURVE",
"82 478 CURVE SMOOTH",
"73 478 LINE SMOOTH",
"71 478 OFFCURVE",
"70 477 OFFCURVE",
"70 475 CURVE",
"72 441 OFFCURVE",
"74 403 OFFCURVE",
"74 368 CURVE SMOOTH",
"74 3 LINE SMOOTH",
"74 1 OFFCURVE",
"75 0 OFFCURVE",
"77 0 CURVE SMOOTH",
"87 0 LINE SMOOTH",
"89 0 OFFCURVE",
"90 1 OFFCURVE",
"90 3 CURVE SMOOTH",
"90 368 LINE",
"140 426 OFFCURVE",
"193 470 OFFCURVE",
"251 470 CURVE SMOOTH",
"309 470 OFFCURVE",
"336 430 OFFCURVE",
"336 343 CURVE SMOOTH",
"336 34 LINE SMOOTH",
"336 -58 OFFCURVE",
"322 -103 OFFCURVE",
"270 -155 CURVE SMOOTH",
"269 -156 OFFCURVE",
"269 -158 OFFCURVE",
"270 -159 CURVE",
"278 -168 LINE",
"279 -169 OFFCURVE",
"280 -169 OFFCURVE",
"281 -168 CURVE SMOOTH"
);
}
);
width = 426;
},
{
layerId = "447BF32C-5B1D-49E6-885E-D276D7630B14";
paths = (
{
closed = 1;
nodes = (
"413 -125 OFFCURVE",
"440 -52 OFFCURVE",
"440 92 CURVE SMOOTH",
"440 363 LINE SMOOTH",
"440 465 OFFCURVE",
"404 509 OFFCURVE",
"327 509 CURVE SMOOTH",
"265 509 OFFCURVE",
"216 473 OFFCURVE",
"180 432 CURVE",
"179 453 OFFCURVE",
"176 474 OFFCURVE",
"174 488 CURVE",
"172 498 OFFCURVE",
"168 500 OFFCURVE",
"161 500 CURVE SMOOTH",
"40 500 LINE SMOOTH",
"31 500 OFFCURVE",
"27 495 OFFCURVE",
"28 485 CURVE",
"30 451 OFFCURVE",
"31 410 OFFCURVE",
"31 368 CURVE SMOOTH",
"31 14 LINE SMOOTH",
"31 6 OFFCURVE",
"37.003 0 OFFCURVE",
"46 0 CURVE SMOOTH",
"186 0 LINE SMOOTH",
"194 0 OFFCURVE",
"199 6 OFFCURVE",
"199 14 CURVE SMOOTH",
"199 347 LINE",
"213 357 OFFCURVE",
"228 365 OFFCURVE",
"243 365 CURVE SMOOTH",
"264 365 OFFCURVE",
"272 354 OFFCURVE",
"272 329 CURVE SMOOTH",
"272 90 LINE SMOOTH",
"272 4 OFFCURVE",
"258 -40 OFFCURVE",
"220 -73 CURVE SMOOTH",
"214 -80 OFFCURVE",
"215 -87 OFFCURVE",
"221 -93 CURVE SMOOTH",
"303 -186 LINE SMOOTH",
"307 -191 OFFCURVE",
"313 -193 OFFCURVE",
"318 -190 CURVE SMOOTH"
);
}
);
width = 471;
}
);
leftKerningGroup = n;
leftMetricsKey = n;
rightKerningGroup = n;
rightMetricsKey = n;
unicode = 014B;
},
{
glyphname = o;
lastChange = "2022-10-27 03:26:45 +0000";
layers = (
{
anchors = (
{
name = bottom;
position = "{207, -12}";
},
{
name = center;
position = "{207, 255}";
},
{
name = ogonek;
position = "{369, 10}";
},
{
name = top;
position = "{207, 487}";
},
{
name = topright;
position = "{395, 487}";
}
);
layerId = "315A68D9-B8D0-4E7E-8516-8D4632F47100";
paths = (
{
closed = 1;
nodes = (
"314 -8 OFFCURVE",
"367 49 OFFCURVE",
"367 167 CURVE SMOOTH",
"367 319 LINE SMOOTH",
"367 438 OFFCURVE",
"314 495 OFFCURVE",
"207 495 CURVE SMOOTH",
"100 495 OFFCURVE",
"47 438 OFFCURVE",
"47 319 CURVE SMOOTH",
"47 167 LINE SMOOTH",
"47 49 OFFCURVE",
"101 -8 OFFCURVE",
"207 -8 CURVE SMOOTH"
);
},
{
closed = 1;
nodes = (
"146 59 OFFCURVE",
"119 93 OFFCURVE",
"119 171 CURVE SMOOTH",
"119 315 LINE SMOOTH",
"119 393 OFFCURVE",
"145 428 OFFCURVE",
"207 428 CURVE SMOOTH",
"269 428 OFFCURVE",
"295 393 OFFCURVE",
"295 315 CURVE SMOOTH",
"295 171 LINE SMOOTH",
"295 93 OFFCURVE",
"269 59 OFFCURVE",
"207 59 CURVE SMOOTH"
);
}
);
width = 415;
},
{
anchors = (
{
name = bottom;
position = "{199, 0}";
},
{
name = center;
position = "{199, 239}";
},
{
name = ogonek;
position = "{359, 10}";
},
{
name = top;
position = "{199, 478}";
},
{
name = topright;
position = "{385, 478}";
}
);
layerId = "87A71899-7C85-4E95-82CD-7392C73A0331";
paths = (
{
closed = 1;
nodes = (
"288 -8 OFFCURVE",
"340 46 OFFCURVE",
"340 145 CURVE SMOOTH",
"340 333 LINE SMOOTH",
"340 433 OFFCURVE",
"289 486 OFFCURVE",
"199 486 CURVE SMOOTH",
"109 486 OFFCURVE",
"57 431 OFFCURVE",
"57 333 CURVE SMOOTH",
"57 145 LINE SMOOTH",
"57 46 OFFCURVE",
"108 -8 OFFCURVE",
"199 -8 CURVE SMOOTH"
);
},
{
closed = 1;
nodes = (
"119 8 OFFCURVE",
"73 57 OFFCURVE",
"73 147 CURVE SMOOTH",
"73 331 LINE SMOOTH",
"73 421 OFFCURVE",
"119 470 OFFCURVE",
"199 470 CURVE SMOOTH",
"279 470 OFFCURVE",
"324 421 OFFCURVE",
"324 331 CURVE SMOOTH",
"324 147 LINE SMOOTH",
"324 57 OFFCURVE",
"279 8 OFFCURVE",
"199 8 CURVE SMOOTH"
);
}
);
width = 397;
},
{
anchors = (
{
name = bottom;
position = "{234, 267}";
},
{
name = center;
position = "{234, -18}";
},
{
name = ogonek;
position = "{416, 10}";
},
{
name = top;
position = "{234, 500}";
},
{
name = topright;
position = "{446, 498}";
}
);
layerId = "447BF32C-5B1D-49E6-885E-D276D7630B14";
paths = (
{
closed = 1;
nodes = (
"364 -8 OFFCURVE",
"442 60 OFFCURVE",
"442 185 CURVE SMOOTH",
"442 317 LINE SMOOTH",
"442 440 OFFCURVE",
"363 509 OFFCURVE",
"234 509 CURVE SMOOTH",
"104 509 OFFCURVE",
"25 440 OFFCURVE",
"25 317 CURVE SMOOTH",
"25 185 LINE SMOOTH",
"25 60 OFFCURVE",
"104 -8 OFFCURVE",
"234 -8 CURVE SMOOTH"
);
},
{
closed = 1;
nodes = (
"206 134 OFFCURVE",
"193 149 OFFCURVE",
"193 191 CURVE SMOOTH",
"193 310 LINE SMOOTH",
"193 351 OFFCURVE",
"206 366 OFFCURVE",
"234 366 CURVE SMOOTH",
"262 366 OFFCURVE",
"274 351 OFFCURVE",
"274 310 CURVE SMOOTH",
"274 191 LINE SMOOTH",
"274 149 OFFCURVE",
"262 134 OFFCURVE",
"234 134 CURVE SMOOTH"
);
}
);
width = 467;
}
);
leftKerningGroup = o;
rightKerningGroup = o;
unicode = 006F;
},
{
glyphname = oslash;
lastChange = "2022-10-27 03:26:45 +0000";
layers = (
{
anchors = (
{
name = top;
position = "{207, 487}";
}
);
components = (
{
alignment = -1;
name = o;
}
);
layerId = "315A68D9-B8D0-4E7E-8516-8D4632F47100";
paths = (
{
closed = 1;
nodes = (
"71 -51 LINE SMOOTH",
"75 -51 OFFCURVE",
"79 -49 OFFCURVE",
"81 -45 CURVE",
"124 32 LINE",
"140 59 LINE",
"314 374 LINE",
"335 412 LINE",
"399 527 LINE SMOOTH",
"403 532 OFFCURVE",
"400 537 OFFCURVE",
"394 537 CURVE SMOOTH",
"343 537 LINE SMOOTH",
"339 537 OFFCURVE",
"335 536 OFFCURVE",
"333 532 CURVE SMOOTH",
"291 457 LINE",
"274 427 LINE",
"100 116 LINE",
"86 89 LINE",
"15 -40 LINE",
"12 -45 OFFCURVE",
"14 -51 OFFCURVE",
"19.992 -51 CURVE SMOOTH"
);
}
);
width = 415;
},
{
anchors = (
{
name = top;
position = "{192, 478}";
}
);
components = (
{
alignment = -1;
name = o;
}
);
layerId = "87A71899-7C85-4E95-82CD-7392C73A0331";
paths = (
{
closed = 1;
nodes = (
"37 -51 LINE SMOOTH",
"38 -51 OFFCURVE",
"39 -51 OFFCURVE",
"40 -49 CURVE SMOOTH",
"93 42 LINE",
"96 48 LINE",
"308 422 LINE",
"312 429 LINE",
"372 535 LINE SMOOTH",
"373 537 OFFCURVE",
"372 538 OFFCURVE",
"371 538 CURVE SMOOTH",
"360 538 LINE SMOOTH",
"358 538 OFFCURVE",
"358 538 OFFCURVE",
"357 536 CURVE SMOOTH",
"301 440 LINE",
"298 434 LINE",
"86 62 LINE",
"83 56 LINE",
"24 -48 LINE SMOOTH",
"23 -50 OFFCURVE",
"24 -51 OFFCURVE",
"26 -51 CURVE SMOOTH"
);
}
);
width = 397;
},
{
anchors = (
{
name = top;
position = "{236, 500}";
}
);
components = (
{
alignment = -1;
name = o;
}
);
layerId = "447BF32C-5B1D-49E6-885E-D276D7630B14";
paths = (
{
closed = 1;
nodes = (
"141 -52 LINE SMOOTH",
"149 -52 OFFCURVE",
"153 -48 OFFCURVE",
"157 -41 CURVE",
"187 20 LINE",
"202 111 LINE",
"315 362 LINE",
"392 426 LINE",
"446 533 LINE SMOOTH",
"450 542 OFFCURVE",
"447 549 OFFCURVE",
"438 549 CURVE SMOOTH",
"329 549 LINE SMOOTH",
"322 549 OFFCURVE",
"318 547 OFFCURVE",
"314 539 CURVE SMOOTH",
"287 482 LINE",
"274 398 LINE",
"167 160 LINE",
"82 82 LINE",
"25 -35 LINE",
"21 -45 OFFCURVE",
"23 -52 OFFCURVE",
"33 -52 CURVE SMOOTH"
);
}
);
width = 467;
}
);
leftKerningGroup = o;
rightKerningGroup = o;
unicode = 00F8;
},
{
glyphname = oe;
lastChange = "2022-10-27 03:26:45 +0000";
layers = (
{
layerId = "315A68D9-B8D0-4E7E-8516-8D4632F47100";
paths = (
{
closed = 1;
nodes = (
"262 -8 OFFCURVE",
"299 12 OFFCURVE",
"327 57 CURVE",
"353 12 OFFCURVE",
"390 -8 OFFCURVE",
"449 -8 CURVE SMOOTH",
"540 -8 OFFCURVE",
"594 40 OFFCURVE",
"593 124 CURVE SMOOTH",
"593 130 OFFCURVE",
"591 134 OFFCURVE",
"585 134 CURVE SMOOTH",
"531 134 LINE SMOOTH",
"526 134 OFFCURVE",
"523 129 OFFCURVE",
"523 122 CURVE SMOOTH",
"525 82 OFFCURVE",
"499 59 OFFCURVE",
"450 59 CURVE SMOOTH",
"389 59 OFFCURVE",
"363 93 OFFCURVE",
"363 176 CURVE SMOOTH",
"363 226 LINE",
"592 226 LINE SMOOTH",
"597 226 OFFCURVE",
"600 229 OFFCURVE",
"600 235 CURVE SMOOTH",
"600 325 LINE SMOOTH",
"600 436 OFFCURVE",
"547 495 OFFCURVE",
"449 495 CURVE SMOOTH",
"396 495 OFFCURVE",
"354 474 OFFCURVE",
"327 430 CURVE",
"302 473 OFFCURVE",
"261 495 OFFCURVE",
"204 495 CURVE SMOOTH",
"100 495 OFFCURVE",
"47 437 OFFCURVE",
"47 320 CURVE SMOOTH",
"47 166 LINE SMOOTH",
"47 50 OFFCURVE",
"100 -8 OFFCURVE",
"204 -8 CURVE SMOOTH"
);
},
{
closed = 1;
nodes = (
"147 59 OFFCURVE",
"119 93 OFFCURVE",
"119 169 CURVE SMOOTH",
"119 316 LINE SMOOTH",
"119 394 OFFCURVE",
"146 428 OFFCURVE",
"205 428 CURVE SMOOTH",
"264 428 OFFCURVE",
"291 394 OFFCURVE",
"291 316 CURVE SMOOTH",
"291 169 LINE SMOOTH",
"291 93 OFFCURVE",
"264 59 OFFCURVE",
"205 59 CURVE SMOOTH"
);
},
{
closed = 1;
nodes = (
"363 320 LINE SMOOTH",
"363 394 OFFCURVE",
"389 428 OFFCURVE",
"446 428 CURVE SMOOTH",
"503 428 OFFCURVE",
"528 396 OFFCURVE",
"528 320 CURVE SMOOTH",
"528 291 LINE",
"363 291 LINE"
);
}
);
width = 646;
},
{
layerId = "87A71899-7C85-4E95-82CD-7392C73A0331";
paths = (
{
closed = 1;
nodes = (
"259 -8 OFFCURVE",
"305 23 OFFCURVE",
"322 87 CURVE",
"338 23 OFFCURVE",
"384 -9 OFFCURVE",
"455 -8 CURVE SMOOTH",
"537 -8 OFFCURVE",
"579 36 OFFCURVE",
"579 119 CURVE SMOOTH",
"579 121 OFFCURVE",
"578 122 OFFCURVE",
"576 122 CURVE SMOOTH",
"565 122 LINE SMOOTH",
"564 122 OFFCURVE",
"563 121 OFFCURVE",
"563 119 CURVE SMOOTH",
"563 47 OFFCURVE",
"528 8 OFFCURVE",
"455 8 CURVE SMOOTH",
"371 8 OFFCURVE",
"330 57 OFFCURVE",
"330 150 CURVE SMOOTH",
"330 248 LINE",
"583 248 LINE SMOOTH",
"585 248 OFFCURVE",
"586 249 OFFCURVE",
"586 252 CURVE SMOOTH",
"586 328 LINE SMOOTH",
"586 433 OFFCURVE",
"536 486 OFFCURVE",
"450 486 CURVE SMOOTH",
"384 486 OFFCURVE",
"339 456 OFFCURVE",
"322 390 CURVE",
"308 454 OFFCURVE",
"260 486 OFFCURVE",
"194 486 CURVE SMOOTH",
"109 486 OFFCURVE",
"57 431 OFFCURVE",
"57 333 CURVE SMOOTH",
"57 145 LINE SMOOTH",
"57 46 OFFCURVE",
"108 -8 OFFCURVE",
"194 -8 CURVE SMOOTH"
);
},
{
closed = 1;
nodes = (
"118 8 OFFCURVE",
"73 56 OFFCURVE",
"73 147 CURVE SMOOTH",
"73 331 LINE SMOOTH",
"73 422 OFFCURVE",
"118 470 OFFCURVE",
"194 470 CURVE SMOOTH",
"269 470 OFFCURVE",
"314 422 OFFCURVE",
"314 331 CURVE SMOOTH",
"314 147 LINE SMOOTH",
"314 56 OFFCURVE",
"269 8 OFFCURVE",
"194 8 CURVE SMOOTH"
);
},
{
closed = 1;
nodes = (
"330 327 LINE SMOOTH",
"330 421 OFFCURVE",
"373 470 OFFCURVE",
"450 470 CURVE SMOOTH",
"527 470 OFFCURVE",
"570 419 OFFCURVE",
"570 327 CURVE SMOOTH",
"570 264 LINE",
"330 264 LINE"
);
}
);
width = 642;
},
{
layerId = "447BF32C-5B1D-49E6-885E-D276D7630B14";
paths = (
{
closed = 1;
nodes = (
"280 -8 OFFCURVE",
"318 3 OFFCURVE",
"352 34 CURVE",
"384 3 OFFCURVE",
"426 -8 OFFCURVE",
"486 -8 CURVE SMOOTH",
"619 -8 OFFCURVE",
"681 42 OFFCURVE",
"680 152 CURVE SMOOTH",
"680 162 OFFCURVE",
"676 166 OFFCURVE",
"667 166 CURVE SMOOTH",
"533 166 LINE SMOOTH",
"525 166 OFFCURVE",
"520 162 OFFCURVE",
"520 153 CURVE SMOOTH",
"520 126 OFFCURVE",
"506 116 OFFCURVE",
"480 116 CURVE SMOOTH",
"451 116 OFFCURVE",
"440 130 OFFCURVE",
"440 164 CURVE SMOOTH",
"440 210 LINE",
"675 210 LINE SMOOTH",
"684 210 OFFCURVE",
"690 217 OFFCURVE",
"690 225 CURVE SMOOTH",
"690 308 LINE SMOOTH",
"690 443 OFFCURVE",
"620 509 OFFCURVE",
"495 509 CURVE SMOOTH",
"434 509 OFFCURVE",
"387 491 OFFCURVE",
"355 464 CURVE",
"325 492 OFFCURVE",
"284 509 OFFCURVE",
"222 509 CURVE SMOOTH",
"103 509 OFFCURVE",
"25 438 OFFCURVE",
"25 316 CURVE SMOOTH",
"25 185 LINE SMOOTH",
"25 62 OFFCURVE",
"103 -8 OFFCURVE",
"225 -8 CURVE SMOOTH"
);
},
{
closed = 1;
nodes = (
"206 134 OFFCURVE",
"193 149 OFFCURVE",
"193 191 CURVE SMOOTH",
"193 310 LINE SMOOTH",
"193 351 OFFCURVE",
"206 366 OFFCURVE",
"233 366 CURVE SMOOTH",
"261 366 OFFCURVE",
"274 351 OFFCURVE",
"274 310 CURVE SMOOTH",
"274 191 LINE SMOOTH",
"274 149 OFFCURVE",
"261 134 OFFCURVE",
"233 134 CURVE SMOOTH"
);
},
{
closed = 1;
nodes = (
"440 334 LINE SMOOTH",
"440 369 OFFCURVE",
"453 384 OFFCURVE",
"483 384 CURVE SMOOTH",
"513 384 OFFCURVE",
"525 369 OFFCURVE",
"525 334 CURVE SMOOTH",
"525 301 LINE",
"440 301 LINE"
);
}
);
width = 716;
}
);
leftKerningGroup = o;
leftMetricsKey = o;
rightKerningGroup = e;
rightMetricsKey = e;
unicode = 0153;
},
